<?xml version="1.0" encoding="UTF-8" standalone="no"?>
<svg
   xmlns:dc="http://purl.org/dc/elements/1.1/"
   xmlns:cc="http://creativecommons.org/ns#"
   xmlns:rdf="http://www.w3.org/1999/02/22-rdf-syntax-ns#"
   xmlns:svg="http://www.w3.org/2000/svg"
   xmlns="http://www.w3.org/2000/svg"
   xmlns:sodipodi="http://sodipodi.sourceforge.net/DTD/sodipodi-0.dtd"
   xmlns:inkscape="http://www.inkscape.org/namespaces/inkscape"
   version="1.1"
   id="svg2"
   xml:space="preserve"
   width="4946.6665"
   height="4946.6665"
   viewBox="0 0 4946.6665 4946.6665"
   sodipodi:docname="20945382.eps"><metadata
     id="metadata8"><rdf:RDF><cc:Work
         rdf:about=""><dc:format>image/svg+xml</dc:format><dc:type
           rdf:resource="http://purl.org/dc/dcmitype/StillImage" /></cc:Work></rdf:RDF></metadata><defs
     id="defs6"><clipPath
       clipPathUnits="userSpaceOnUse"
       id="clipPath22"><path
         d="m 19013.6,4527.8 c -1693.9,0 -2988,236.9 -3504.1,341.7 -650.8,132.2 -1512.6,307.2 -2470,608.6 416.5,172.9 779.6,463.3 1037.5,843.9 l 1950.9,2878.2 c 1239.2,-607.3 2632.9,-948.4 4105.9,-948.4 200.9,0 400,6.3 597.7,18.8 l 1028.8,-2244.2 c 218.4,-476.3 700.9,-782.6 1232.9,-782.6 h 895.5 c -1756.3,-549.5 -3456.1,-716 -4875.1,-716 m 6659.3,1409.3 5076.5,10795.5 745.9,-83.9 c 25.7,-2.8 51.2,-4.3 76.4,-4.3 345.8,0.1 639.8,265.1 660.7,612.6 l 180.9,3012.4 c 600.1,-4532 -614.9,-9192.1 -3086.4,-11794 -573.6,-603.9 -1116.4,-993.3 -1545.2,-1301 -690.3,-495.3 -1398.2,-903.1 -2108.8,-1237.3 M 11017,6281.2 C 9771.41,6894.1 8499.59,7772 7403.69,9060.7 5196.89,11655.9 4412.27,15084 4682.17,18448.2 c 428.53,-774.3 1555.42,-2413.5 3413.42,-2413.5 66.24,0 133.07,2.1 201.17,6.3 826.2,51.9 1708.94,259.8 2557.64,471.7 243.8,-2117.8 1196,-4019.9 2613.4,-5463.6 C 12028.7,8986.3 10744.4,7052.5 10744.4,7052.5 l 272.6,-771.3 m -6302.72,12519 c 214.13,2096.2 833.88,4155.1 1770.19,5959.4 265.26,-399.7 481.91,-822.3 596.38,-1245 252.58,-932.9 826.51,-1695 1533.77,-2260.3 -63.07,-46.5 -126.51,-94.7 -190.35,-144.5 C 6616,19699.3 5488.05,18987.5 4826.55,18855.2 c -43.64,-8.7 -81.59,-28.3 -112.27,-55 m 24287.82,1735.5 c -1232.8,3717.3 -4737.4,6398.5 -8868.3,6398.5 -860.5,0 -1693.5,-116.3 -2484.9,-334.1 -12.1,534.4 -70.8,1043.1 -190,1505.6 -453.9,1761.5 -2141.2,2902.9 -3702.7,3601.6 882.7,355.7 1859,626.8 2931.9,767 598.4,78.3 1213.5,117.8 1836.6,117.8 3012.5,0 6221.1,-922.9 8740.8,-2859.1 -48.6,-69.9 -78.9,-153.2 -84.6,-243.1 l -250.6,-3969.5 c -17.2,-272.9 197,-504.9 470.4,-509.4 l 3661.9,-60.3 c 200.4,-426.1 379.7,-861.6 538.7,-1304.3 l -2599.2,-3110.7 m -18181.4,6951 c -538.6,130.3 -1195.98,179.9 -1884.9,179.9 -180.34,0 -362.64,-3.3 -545.77,-9.6 604.71,739.5 1419.01,1597.2 2457.87,2387.4 -6.6,-517.9 -17.6,-1138.3 -34.6,-1881.6 -5.4,-236.2 -2.8,-461.4 7.4,-676.1"
         id="path20" /></clipPath><linearGradient
       x1="0"
       y1="0"
       x2="1"
       y2="0"
       gradientUnits="userSpaceOnUse"
       gradientTransform="matrix(-24971.9,31013.6,31013.6,24971.9,36196.8,-3755.3)"
       spreadMethod="pad"
       id="linearGradient28"><stop
         style="stop-opacity:1;stop-color:#dae3fe"
         offset="0"
         id="stop24" /><stop
         style="stop-opacity:1;stop-color:#e9effd"
         offset="1"
         id="stop26" /></linearGradient><clipPath
       clipPathUnits="userSpaceOnUse"
       id="clipPath52"><path
         d="m 20034.9,9790 c -1115.5,14 -2175.7,263.2 -3132.5,700.2 l 1591.6,2348.1 c 55.8,-19.3 112,-37.6 168.7,-55 L 20034.9,9790 m 2826.8,491.3 -1294.5,2490.6 c 2077,618.5 3595.8,2545.8 3595.8,4821.1 0,2773.1 -2256.1,5029.1 -5029.2,5029.1 -2773.1,0 -5029.1,-2256 -5029.1,-5029.1 0,-1107.3 359.7,-2132.2 968.4,-2963.9 -497.6,-634.3 -1091.6,-1443.4 -1699.5,-2295.3 -1268.6,1388.2 -2043.3,3234.8 -2043.3,5259.2 0,4302.9 3500.6,7803.5 7803.5,7803.5 3791.3,0 6959.8,-2717.7 7659.6,-6307.3 l -1430.7,-1712.3 c -125.2,-149.8 -16.7,-375 180.6,-375 h 1069.9 l -3127.4,-5883.4 c -503.1,-339.2 -1047.5,-621.4 -1624.1,-837.2"
         id="path50" /></clipPath><linearGradient
       x1="0"
       y1="0"
       x2="1"
       y2="0"
       gradientUnits="userSpaceOnUse"
       gradientTransform="matrix(-17950.8,-23832.5,-23832.5,17950.8,27079.2,26814.1)"
       spreadMethod="pad"
       id="linearGradient58"><stop
         style="stop-opacity:1;stop-color:#4f52ff"
         offset="0"
         id="stop54" /><stop
         style="stop-opacity:1;stop-color:#4042e2"
         offset="1"
         id="stop56" /></linearGradient><clipPath
       clipPathUnits="userSpaceOnUse"
       id="clipPath70"><path
         d="m 21408.4,13077.4 -740.2,1424.1 -268.3,638.2 c -156.2,371.8 -412,698.1 -748.9,926.8 -349.9,237.4 -701.1,323.5 -1026.6,323.5 -861,0 -1542.1,-602.7 -1542.1,-602.7 -191.6,-169.4 -464.7,-478.9 -790.9,-883.4 -534.9,761.9 -849.1,1689.5 -849.1,2689.1 0,2586.9 2104.6,4691.5 4691.5,4691.5 2586.9,0 4691.5,-2104.6 4691.5,-4691.5 0,-2145.3 -1447.4,-3958.9 -3416.9,-4515.6"
         id="path68" /></clipPath><linearGradient
       x1="0"
       y1="0"
       x2="1"
       y2="0"
       gradientUnits="userSpaceOnUse"
       gradientTransform="matrix(-17950.7,-23832.5,-23832.5,17950.7,27079.2,26814.1)"
       spreadMethod="pad"
       id="linearGradient76"><stop
         style="stop-opacity:1;stop-color:#4f52ff"
         offset="0"
         id="stop72" /><stop
         style="stop-opacity:1;stop-color:#4042e2"
         offset="1"
         id="stop74" /></linearGradient><clipPath
       clipPathUnits="userSpaceOnUse"
       id="clipPath88"><path
         d="m 22016.9,17593 c 0,-1040 -843.1,-1883.1 -1883.1,-1883.1 -1040,0 -1883,843.1 -1883,1883.1 0,1040 843,1883 1883,1883 1040,0 1883.1,-843 1883.1,-1883 z"
         id="path86" /></clipPath><linearGradient
       x1="0"
       y1="0"
       x2="1"
       y2="0"
       gradientUnits="userSpaceOnUse"
       gradientTransform="matrix(-17950.7,-23832.5,-23832.5,17950.7,27079.2,26814.1)"
       spreadMethod="pad"
       id="linearGradient94"><stop
         style="stop-opacity:1;stop-color:#4f52ff"
         offset="0"
         id="stop90" /><stop
         style="stop-opacity:1;stop-color:#4042e2"
         offset="1"
         id="stop92" /></linearGradient><clipPath
       clipPathUnits="userSpaceOnUse"
       id="clipPath106"><path
         d="m 25508.9,5609.5 59.2,104.8 c -17.2,-36.7 -37.1,-71.7 -59.2,-104.8 m 59.2,104.8 c -204.2,0 -391.2,112.4 -484,291 l -1639.5,3154.5 720.9,1356.3 320.3,602.4 3127.4,5883.4 h -1069.9 c -197.3,0 -305.8,225.2 -180.6,375 l 1430.7,1712.3 276.9,331.4 931.8,1115.1 2599.2,3110.7 327,391.4 c 82.2,98.4 191.6,142 299.4,142 208.5,0 410.7,-163.4 395.9,-409.2 l -210.3,-3501.2 -180.9,-3012.4 c -20.9,-347.5 -314.9,-612.5 -660.7,-612.6 -25.2,0 -50.7,1.5 -76.4,4.3 l -745.9,83.9 -5076.5,-10795.5 -104.8,-222.8 v 0 m 6488,18001.7 c -57.6,0 -113,-26 -150.5,-73.8 l -4595.9,-5863.8 c -17.2,-22 -13.3,-53.9 8.7,-71.1 9.2,-7.3 20.2,-10.8 31.2,-10.8 15,0 29.9,6.6 39.9,19.4 l 4595.8,5863.8 c 20.2,25.8 45.8,35.2 69.9,35.2 13.3,0 26.1,-2.9 37.3,-7.5 30,-12.3 60.1,-42.6 54.5,-90.7 l -81,-702.9 c -3.2,-27.7 16.7,-52.9 44.5,-56.1 2,-0.2 3.9,-0.3 5.9,-0.3 25.3,0 47.3,19 50.2,44.8 l 81.1,702.9 c 9.9,85.8 -35.9,162.8 -116.7,196 -24.5,10 -49.9,14.9 -74.9,14.9 m -24,-1585.4 c -25.2,0 -47.2,-19.2 -50.1,-44.9 l -36.7,-318.1 c -3.2,-27.7 16.7,-52.9 44.5,-56.1 2,-0.2 3.9,-0.3 5.8,-0.3 25.4,0 47.3,19 50.3,44.8 l 36.7,318.1 c 3.2,27.7 -16.7,52.9 -44.5,56.1 -2,0.2 -4,0.4 -6,0.4"
         id="path104" /></clipPath><linearGradient
       x1="0"
       y1="0"
       x2="1"
       y2="0"
       gradientUnits="userSpaceOnUse"
       gradientTransform="matrix(-9588.89,-13505.5,-13505.5,9588.89,34286.1,23254.5)"
       spreadMethod="pad"
       id="linearGradient112"><stop
         style="stop-opacity:1;stop-color:#ff928e"
         offset="0"
         id="stop108" /><stop
         style="stop-opacity:1;stop-color:#fe7062"
         offset="1"
         id="stop110" /></linearGradient><clipPath
       clipPathUnits="userSpaceOnUse"
       id="clipPath122"><path
         d="m 24893.7,5243.8 h -1900.5 c -532,0 -1014.5,306.3 -1232.9,782.6 l -1028.8,2244.2 -541.6,1181.4 -155,338 -1372.2,2993.3 -83.1,181.3 917.8,1354.1 c 156.2,230.4 412.3,353.1 672,353.1 174.4,0 350.4,-55.3 498.8,-170.4 v 0 0 0.1 l 740.2,-1424.1 158.8,-305.5 1294.5,-2490.6 158.6,-305.3 424.3,-816.2 1639.5,-3154.5 c 92.8,-178.6 279.8,-291 484,-291 v 0 l -59.2,-104.8 -8.4,-14.9 c -122.3,-216.5 -354.6,-350.8 -606.8,-350.8"
         id="path120" /></clipPath><linearGradient
       x1="0"
       y1="0"
       x2="1"
       y2="0"
       gradientUnits="userSpaceOnUse"
       gradientTransform="matrix(-4254.22,7428.01,7428.01,4254.22,26227.7,1549)"
       spreadMethod="pad"
       id="linearGradient128"><stop
         style="stop-opacity:1;stop-color:#ff928e"
         offset="0"
         id="stop124" /><stop
         style="stop-opacity:1;stop-color:#fe7062"
         offset="1"
         id="stop126" /></linearGradient><clipPath
       clipPathUnits="userSpaceOnUse"
       id="clipPath138"><path
         d="m 12127.8,5296.7 h -762.7 l -348.1,984.5 -272.6,771.3 c 0,0 1284.3,1933.8 2723.4,3996.6 232.1,332.6 468.2,668.6 703.6,1000.4 67.4,95 135,190.1 202.2,284.3 607.9,851.9 1201.9,1661 1699.5,2295.3 75.1,95.8 147.8,187.4 218.3,274.8 326.2,404.5 599.3,714 790.9,883.4 0,0 681.1,602.7 1542.1,602.7 325.5,0 676.7,-86.1 1026.6,-323.5 336.9,-228.7 592.7,-555 748.9,-926.8 l 268.3,-638.2 v -0.1 c -148.4,115.1 -324.4,170.4 -498.8,170.4 -259.7,0 -515.8,-122.7 -672,-353.1 L 18579.6,12964.6 18494,12838.3 16902.4,10490.2 16707.7,10203 16027.9,9200.2 14077,6322 c -257.9,-380.6 -621,-671 -1037.5,-843.9 -284.4,-118.1 -593.8,-181.4 -911.7,-181.4 m 4330.5,5676.6 c -16.1,0 -32,-7.7 -41.8,-22 l -152.4,-221.8 c -15.8,-23.1 -10,-54.6 13,-70.4 8.8,-6.1 18.8,-8.9 28.7,-8.9 16.1,0 31.9,7.6 41.8,21.9 l 152.4,221.9 c 15.8,23 10,54.5 -13.1,70.4 -8.7,6 -18.7,8.9 -28.6,8.9 m 3145.1,4295.7 c -139,0 -265.9,-66.1 -344.8,-180.9 l -2376.9,-3459.6 c -15.8,-23.1 -9.9,-54.6 13.1,-70.4 8.8,-6 18.8,-8.9 28.7,-8.9 16.1,0 31.9,7.7 41.7,21.9 l 2376.9,3459.6 c 59.6,86.9 155.6,137 261.3,137 8.6,0 17.3,-0.3 26.1,-1 114.7,-8.8 212.5,-74.8 261.6,-176.7 8.7,-18.1 26.8,-28.7 45.6,-28.7 7.4,0 14.9,1.7 22,5.1 25.2,12.1 35.8,42.4 23.6,67.6 -64.9,134.8 -194,222.2 -345.1,233.7 -11.3,0.9 -22.6,1.3 -33.8,1.3"
         id="path136" /></clipPath><linearGradient
       x1="0"
       y1="0"
       x2="1"
       y2="0"
       gradientUnits="userSpaceOnUse"
       gradientTransform="matrix(-5942.4,-8305.86,-8305.86,5942.4,18688.3,15049.3)"
       spreadMethod="pad"
       id="linearGradient144"><stop
         style="stop-opacity:1;stop-color:#ff928e"
         offset="0"
         id="stop140" /><stop
         style="stop-opacity:1;stop-color:#fe7062"
         offset="1"
         id="stop142" /></linearGradient><clipPath
       clipPathUnits="userSpaceOnUse"
       id="clipPath154"><path
         d="m 4518.48,12249.1 c 0,0 1237.8,639.3 2996.03,812.5 0,0 835.07,-279.3 2498.69,-3206.6 1663.7,-2927.3 2768,-4262.1 4063.8,-3533 l -107.2,-174.9 c -353.6,-576.5 -988.8,-929 -1674.1,-929 H 11579 c -789.1,0 -1529.8,372.6 -1990.58,1001.5 -1294.84,1767.5 -4274.54,5755.1 -5069.94,6029.5 z"
         id="path152" /></clipPath><linearGradient
       x1="0"
       y1="0"
       x2="1"
       y2="0"
       gradientUnits="userSpaceOnUse"
       gradientTransform="matrix(202.579,7428,7428,-202.579,9328.66,10418.8)"
       spreadMethod="pad"
       id="linearGradient162"><stop
         style="stop-opacity:1;stop-color:#ff928e"
         offset="0"
         id="stop156" /><stop
         style="stop-opacity:1;stop-color:#ff847c"
         offset="0.404582"
         id="stop158" /><stop
         style="stop-opacity:1;stop-color:#fe7062"
         offset="1"
         id="stop160" /></linearGradient><clipPath
       clipPathUnits="userSpaceOnUse"
       id="clipPath172"><path
         d="m 31995.6,21711.2 c -1.9,0 -3.8,0.1 -5.8,0.3 -27.8,3.2 -47.7,28.4 -44.5,56.1 l 36.7,318.1 c 2.9,25.7 24.9,44.9 50.1,44.9 2,0 4,-0.2 6,-0.4 27.8,-3.2 47.7,-28.4 44.5,-56.1 l -36.7,-318.1 c -3,-25.8 -24.9,-44.8 -50.3,-44.8"
         id="path170" /></clipPath><linearGradient
       x1="0"
       y1="0"
       x2="1"
       y2="0"
       gradientUnits="userSpaceOnUse"
       gradientTransform="matrix(-9588.89,-13505.5,-13505.5,9588.89,34286.1,23254.5)"
       spreadMethod="pad"
       id="linearGradient178"><stop
         style="stop-opacity:1;stop-color:#ffe1e0"
         offset="0"
         id="stop174" /><stop
         style="stop-opacity:1;stop-color:#ffd7d3"
         offset="1"
         id="stop176" /></linearGradient><clipPath
       clipPathUnits="userSpaceOnUse"
       id="clipPath188"><path
         d="m 27349.6,17696.5 c -11,0 -22,3.5 -31.2,10.8 -22,17.2 -25.9,49.1 -8.7,71.1 l 4595.9,5863.8 c 37.5,47.8 92.9,73.8 150.5,73.8 25,0 50.4,-4.9 74.9,-14.9 80.8,-33.2 126.6,-110.2 116.7,-196 l -81.1,-702.9 c -2.9,-25.8 -24.9,-44.8 -50.2,-44.8 -2,0 -3.9,0.1 -5.9,0.3 -27.8,3.2 -47.7,28.4 -44.5,56.1 l 81,702.9 c 5.6,48.1 -24.5,78.4 -54.5,90.7 -11.2,4.6 -24,7.5 -37.3,7.5 -24.1,0 -49.7,-9.4 -69.9,-35.2 l -4595.8,-5863.8 c -10,-12.8 -24.9,-19.4 -39.9,-19.4"
         id="path186" /></clipPath><linearGradient
       x1="0"
       y1="0"
       x2="1"
       y2="0"
       gradientUnits="userSpaceOnUse"
       gradientTransform="matrix(-9588.89,-13505.5,-13505.5,9588.89,34286.1,23254.5)"
       spreadMethod="pad"
       id="linearGradient194"><stop
         style="stop-opacity:1;stop-color:#ffe1e0"
         offset="0"
         id="stop190" /><stop
         style="stop-opacity:1;stop-color:#ffd7d3"
         offset="1"
         id="stop192" /></linearGradient><clipPath
       clipPathUnits="userSpaceOnUse"
       id="clipPath204"><path
         d="m 16923.5,11549.2 c -9.9,0 -19.9,2.9 -28.7,8.9 -23,15.8 -28.9,47.3 -13.1,70.4 l 2376.9,3459.6 c 78.9,114.8 205.8,180.9 344.8,180.9 11.2,0 22.5,-0.4 33.8,-1.3 151.1,-11.5 280.2,-98.9 345.1,-233.7 12.2,-25.2 1.6,-55.5 -23.6,-67.6 -7.1,-3.4 -14.6,-5.1 -22,-5.1 -18.8,0 -36.9,10.6 -45.6,28.7 -49.1,101.9 -146.9,167.9 -261.6,176.7 -8.8,0.7 -17.5,1 -26.1,1 -105.7,0 -201.7,-50.1 -261.3,-137 l -2376.9,-3459.6 c -9.8,-14.2 -25.6,-21.9 -41.7,-21.9"
         id="path202" /></clipPath><linearGradient
       x1="0"
       y1="0"
       x2="1"
       y2="0"
       gradientUnits="userSpaceOnUse"
       gradientTransform="matrix(-5942.4,-8305.86,-8305.86,5942.4,18688.3,15049.3)"
       spreadMethod="pad"
       id="linearGradient210"><stop
         style="stop-opacity:1;stop-color:#ffe1e0"
         offset="0"
         id="stop206" /><stop
         style="stop-opacity:1;stop-color:#ffd7d3"
         offset="1"
         id="stop208" /></linearGradient><clipPath
       clipPathUnits="userSpaceOnUse"
       id="clipPath220"><path
         d="m 16305.8,10650.2 c -9.9,0 -19.9,2.8 -28.7,8.9 -23,15.8 -28.8,47.3 -13,70.4 l 152.4,221.8 c 9.8,14.3 25.7,22 41.8,22 9.9,0 19.9,-2.9 28.6,-8.9 23.1,-15.9 28.9,-47.4 13.1,-70.4 l -152.4,-221.9 c -9.9,-14.3 -25.7,-21.9 -41.8,-21.9"
         id="path218" /></clipPath><linearGradient
       x1="0"
       y1="0"
       x2="1"
       y2="0"
       gradientUnits="userSpaceOnUse"
       gradientTransform="matrix(-5942.4,-8305.86,-8305.86,5942.4,18688.3,15049.3)"
       spreadMethod="pad"
       id="linearGradient226"><stop
         style="stop-opacity:1;stop-color:#ffe1e0"
         offset="0"
         id="stop222" /><stop
         style="stop-opacity:1;stop-color:#ffd7d3"
         offset="1"
         id="stop224" /></linearGradient><clipPath
       clipPathUnits="userSpaceOnUse"
       id="clipPath262"><path
         d="m 15222,5250.7 c -337.8,-29.1 -923.9,-76.6 -1386,-96.9 -277.8,-12.2 -437.7,15 -529.8,51.8 0.2,-10.3 0.5,-20.2 0.9,-29.3 2.2,-48.6 41.7,-87.5 90.8,-90.2 873.1,-48.8 1567.5,-16.9 1814.8,-1.9 51.1,3.2 81.5,58.7 55.4,102.3 -13.1,21.8 -28.9,43.1 -46.1,64.2 z"
         id="path260" /></clipPath><linearGradient
       x1="0"
       y1="0"
       x2="1"
       y2="0"
       gradientUnits="userSpaceOnUse"
       gradientTransform="matrix(1971.43,0,0,-1971.43,13306.2,5155.4)"
       spreadMethod="pad"
       id="linearGradient268"><stop
         style="stop-opacity:1;stop-color:#4f52ff"
         offset="0"
         id="stop264" /><stop
         style="stop-opacity:1;stop-color:#4042e2"
         offset="1"
         id="stop266" /></linearGradient><clipPath
       clipPathUnits="userSpaceOnUse"
       id="clipPath278"><path
         d="m 13836,5153.8 c 462.1,20.3 1048.2,67.8 1386,96.9 -332.1,407.4 -1386,682 -1386,682 h -297.7 c -204.7,-295.1 -234.3,-576.1 -232.1,-727.1 92.1,-36.8 252,-64 529.8,-51.8 z"
         id="path276" /></clipPath><linearGradient
       x1="0"
       y1="0"
       x2="1"
       y2="0"
       gradientUnits="userSpaceOnUse"
       gradientTransform="matrix(1915.87,0,0,-1915.87,13306.1,5541.8)"
       spreadMethod="pad"
       id="linearGradient284"><stop
         style="stop-opacity:1;stop-color:#09005d"
         offset="0"
         id="stop280" /><stop
         style="stop-opacity:1;stop-color:#1a0f91"
         offset="1"
         id="stop282" /></linearGradient><clipPath
       clipPathUnits="userSpaceOnUse"
       id="clipPath294"><path
         d="m 13488.2,6418.6 27.9,-551.2 c 3,-59.7 47.7,-109.8 107.5,-118.4 59.4,-8.5 139.1,-9.6 223.6,18.6 51.9,17.3 90.5,61 100.1,114.5 l 96.2,536.5 z"
         id="path292" /></clipPath><linearGradient
       x1="0"
       y1="0"
       x2="1"
       y2="0"
       gradientUnits="userSpaceOnUse"
       gradientTransform="matrix(555.309,0,0,-555.309,13488.2,6081.2)"
       spreadMethod="pad"
       id="linearGradient300"><stop
         style="stop-opacity:1;stop-color:#febbba"
         offset="0"
         id="stop296" /><stop
         style="stop-opacity:1;stop-color:#ff928e"
         offset="1"
         id="stop298" /></linearGradient><clipPath
       clipPathUnits="userSpaceOnUse"
       id="clipPath310"><path
         d="m 10033.5,4614.9 c -146.46,26.4 -212.73,124.7 -240.52,229.8 -0.18,-0.9 -0.36,-1.9 -0.55,-2.8 -21.54,-110.9 28.41,-225.8 128.28,-280.5 120.69,-66 252.69,-77.3 355.09,-71.8 110,5.8 210.9,64.6 266.3,158.7 l 0.9,1.4 c -110.4,-70.5 -265.3,-78.9 -509.5,-34.8 z"
         id="path308" /></clipPath><linearGradient
       x1="0"
       y1="0"
       x2="1"
       y2="0"
       gradientUnits="userSpaceOnUse"
       gradientTransform="matrix(755.483,0,0,-755.483,9787.49,4666.5)"
       spreadMethod="pad"
       id="linearGradient316"><stop
         style="stop-opacity:1;stop-color:#4f52ff"
         offset="0"
         id="stop312" /><stop
         style="stop-opacity:1;stop-color:#4042e2"
         offset="1"
         id="stop314" /></linearGradient><clipPath
       clipPathUnits="userSpaceOnUse"
       id="clipPath326"><path
         d="m 10724,6248.8 h -245.5 c -373.9,9.9 -608.66,-1009.4 -685.52,-1404.1 27.79,-105.1 94.06,-203.4 240.52,-229.8 244.2,-44.1 399.1,-35.7 509.5,34.8 202,343.6 302.1,846.7 350.3,1140.4 54.7,334 -169.3,458.7 -169.3,458.7 z"
         id="path324" /></clipPath><linearGradient
       x1="0"
       y1="0"
       x2="1"
       y2="0"
       gradientUnits="userSpaceOnUse"
       gradientTransform="matrix(1108.9,0,0,-1108.9,9792.98,5418.3)"
       spreadMethod="pad"
       id="linearGradient332"><stop
         style="stop-opacity:1;stop-color:#09005d"
         offset="0"
         id="stop328" /><stop
         style="stop-opacity:1;stop-color:#1a0f91"
         offset="1"
         id="stop330" /></linearGradient><clipPath
       clipPathUnits="userSpaceOnUse"
       id="clipPath342"><path
         d="m 10510.1,6760.4 -136.3,-542.1 c -16.7,-66.5 15.1,-135.2 76.6,-166.8 76.2,-39.1 183.6,-80.2 282.2,-68.3 46.4,5.6 85,38.3 100.3,82 l 200.1,570.3 z"
         id="path340" /></clipPath><linearGradient
       x1="0"
       y1="0"
       x2="1"
       y2="0"
       gradientUnits="userSpaceOnUse"
       gradientTransform="matrix(663.652,0,0,-663.652,10369.4,6370.8)"
       spreadMethod="pad"
       id="linearGradient348"><stop
         style="stop-opacity:1;stop-color:#febbba"
         offset="0"
         id="stop344" /><stop
         style="stop-opacity:1;stop-color:#ff928e"
         offset="1"
         id="stop346" /></linearGradient><clipPath
       clipPathUnits="userSpaceOnUse"
       id="clipPath358"><path
         d="m 15305.1,13900.8 c 0,0 -1218.1,-7614.3 -1198,-7656.2 0,0 -336.5,-152.9 -703.2,-19.5 0,0 110.1,4070.4 368.2,5631.1 0,0 -2078.9,-3638.1 -2739.1,-5450.9 0,0 -344.3,41 -629.3,228.6 0,0 2238.4,6548.5 2835.6,7420.7 z"
         id="path356" /></clipPath><linearGradient
       x1="0"
       y1="0"
       x2="1"
       y2="0"
       gradientUnits="userSpaceOnUse"
       gradientTransform="matrix(-5666.07,-9281.57,-9281.57,5666.07,15737.4,13532.4)"
       spreadMethod="pad"
       id="linearGradient364"><stop
         style="stop-opacity:1;stop-color:#09005d"
         offset="0"
         id="stop360" /><stop
         style="stop-opacity:1;stop-color:#1a0f91"
         offset="1"
         id="stop362" /></linearGradient><clipPath
       clipPathUnits="userSpaceOnUse"
       id="clipPath374"><path
         d="m 13820.8,11895.9 c -6.6,0 -13.2,1.7 -19.1,5.4 -16.8,10.6 -21.9,32.8 -11.4,49.6 l 455.2,727.1 c 5.3,8.4 13.7,14.3 23.4,16.2 l 335,67.4 c 19.6,3.9 38.5,-8.7 42.4,-28.1 3.9,-19.5 -8.7,-38.5 -28.2,-42.4 l -319.8,-64.4 -447,-713.9 c -6.8,-11 -18.6,-16.9 -30.5,-16.9 z"
         id="path372" /></clipPath><linearGradient
       x1="0"
       y1="0"
       x2="1"
       y2="0"
       gradientUnits="userSpaceOnUse"
       gradientTransform="matrix(247.601,-2340.95,-2340.95,-247.601,13726.1,16960.5)"
       spreadMethod="pad"
       id="linearGradient380"><stop
         style="stop-opacity:1;stop-color:#09005d"
         offset="0"
         id="stop376" /><stop
         style="stop-opacity:1;stop-color:#1a0f91"
         offset="1"
         id="stop378" /></linearGradient><clipPath
       clipPathUnits="userSpaceOnUse"
       id="clipPath390"><path
         d="m 20895,21356.8 c 0,0 -821.9,-181.3 -1321.9,-412.1 -99.3,-45.8 -178.5,-126 -223.6,-224.8 -149.5,-327.5 -596.9,-1148.9 -1464.4,-1540.8 124.9,-165.8 326.1,-510.8 413.7,-1090.5 521.1,387.8 970.9,1035.5 1186.9,2097.7 0,0 164.5,-89.4 369.6,10.2 108.4,52.7 233.5,127.3 327.5,186.1 93.6,58.5 163.3,149.4 190.4,255.6 35.8,140.3 14.7,263.7 14.7,396 l 422.5,130.9 c 0,0 127,47.9 84.6,191.7 z"
         id="path388" /></clipPath><linearGradient
       x1="0"
       y1="0"
       x2="1"
       y2="0"
       gradientUnits="userSpaceOnUse"
       gradientTransform="matrix(-2628.43,-3419.52,-3419.52,2628.43,19497.6,20349.9)"
       spreadMethod="pad"
       id="linearGradient396"><stop
         style="stop-opacity:1;stop-color:#febbba"
         offset="0"
         id="stop392" /><stop
         style="stop-opacity:1;stop-color:#ff928e"
         offset="1"
         id="stop394" /></linearGradient><clipPath
       clipPathUnits="userSpaceOnUse"
       id="clipPath406"><path
         d="m 18298.8,18088.6 c -87.6,579.7 -288.8,924.7 -413.7,1090.5 -539,-243.5 -1240,-321.3 -2132.8,-12 -82.2,28.5 -168.1,45.2 -255.1,50.3 -475.3,27.9 -2041.4,78.7 -3337.3,-349.4 -272.7,-90.1 -493.6,-291.7 -607.4,-553 -350.6,-804.5 -918.1,-2636.5 657.4,-3561.5 121.1,300.6 260.8,542.1 380.3,719.6 -253.8,428 -328.9,1012.5 121.3,1773.7 328.4,-886.5 482.4,-2180 514.6,-2752.5 10.6,-188.5 -22.5,-376.6 -96.4,-550.6 l -8.1,-19 c -15.8,-37.2 5.9,-80 45.8,-88.9 886.9,-199.3 1809.5,-145.2 2085.1,-122.4 49.2,4.1 90.1,39.3 101.4,86.8 431.3,1817.4 432.3,3057.1 326.7,3840.8 403.4,-90.2 1637.2,-282.6 2618.2,447.6 z"
         id="path404" /></clipPath><linearGradient
       x1="0"
       y1="0"
       x2="1"
       y2="0"
       gradientUnits="userSpaceOnUse"
       gradientTransform="matrix(-3781.53,-6482.63,-6482.63,3781.53,24869.4,35255)"
       spreadMethod="pad"
       id="linearGradient412"><stop
         style="stop-opacity:1;stop-color:#e1473d"
         offset="0"
         id="stop408" /><stop
         style="stop-opacity:1;stop-color:#e9605a"
         offset="1"
         id="stop410" /></linearGradient><clipPath
       clipPathUnits="userSpaceOnUse"
       id="clipPath422"><path
         d="m 15682.3,17592.1 c -17.8,0 -33.2,13.2 -35.6,31.3 -101.3,765.2 -307.6,1099.1 -309.7,1102.4 -10.6,16.8 -5.6,39 11.2,49.6 16.7,10.6 39,5.7 49.6,-11.1 8.8,-13.8 216.5,-348.2 320.2,-1131.5 2.6,-19.7 -11.3,-37.8 -30.9,-40.4 -1.7,-0.2 -3.2,-0.3 -4.8,-0.3 z"
         id="path420" /></clipPath><linearGradient
       x1="0"
       y1="0"
       x2="1"
       y2="0"
       gradientUnits="userSpaceOnUse"
       gradientTransform="matrix(-3291.79,-8001.59,-8001.59,3291.79,18452.9,25304)"
       spreadMethod="pad"
       id="linearGradient428"><stop
         style="stop-opacity:1;stop-color:#ff928e"
         offset="0"
         id="stop424" /><stop
         style="stop-opacity:1;stop-color:#fe7062"
         offset="1"
         id="stop426" /></linearGradient><clipPath
       clipPathUnits="userSpaceOnUse"
       id="clipPath438"><path
         d="m 13493.4,20276.1 c 0,0 -89.8,-948.7 -168.8,-1229.4 -11.9,-42.5 6.5,-87.4 45.2,-109.5 134.1,-76.7 455.7,-201.6 895.6,14 71.3,34.9 114.1,109.2 110.8,187.8 l -38.7,916.8 z"
         id="path436" /></clipPath><linearGradient
       x1="0"
       y1="0"
       x2="1"
       y2="0"
       gradientUnits="userSpaceOnUse"
       gradientTransform="matrix(287.554,1509.66,1509.66,-287.554,13638.9,18139.8)"
       spreadMethod="pad"
       id="linearGradient444"><stop
         style="stop-opacity:1;stop-color:#febbba"
         offset="0"
         id="stop440" /><stop
         style="stop-opacity:1;stop-color:#ff928e"
         offset="1"
         id="stop442" /></linearGradient><clipPath
       clipPathUnits="userSpaceOnUse"
       id="clipPath454"><path
         d="m 14356.8,21489.9 c 0,0 287,-659.3 306.3,-1005.4 19.2,-346 93.8,-570.5 -306.3,-640.2 -400.1,-69.7 -737.2,129.6 -919.8,474.3 0,0 -286.1,531.1 -221.9,748.7 64.2,217.5 1141.7,422.6 1141.7,422.6 z"
         id="path452" /></clipPath><linearGradient
       x1="0"
       y1="0"
       x2="1"
       y2="0"
       gradientUnits="userSpaceOnUse"
       gradientTransform="matrix(-1640.67,-1255.37,-1255.37,1640.67,14417,20909.5)"
       spreadMethod="pad"
       id="linearGradient460"><stop
         style="stop-opacity:1;stop-color:#febbba"
         offset="0"
         id="stop456" /><stop
         style="stop-opacity:1;stop-color:#ff928e"
         offset="1"
         id="stop458" /></linearGradient><clipPath
       clipPathUnits="userSpaceOnUse"
       id="clipPath470"><path
         d="m 13573.8,20566.4 22.7,10.1 c 29,12.8 41.4,47.3 26.9,75.4 -56.4,109 -166.4,358.8 -24.3,417.1 183.1,75.1 908.4,223 1064.9,480.4 150.4,247.4 17.2,566.7 -183.1,657.5 -13.4,6.1 -29.2,1.3 -36.1,-11.7 l -16.7,-31.6 c -11.4,-21.6 -43.3,-18.4 -50.1,5.1 -6.6,22.6 -36.6,27 -49,7 -48.1,-77 -178,-201.8 -525.3,-265.9 -493.6,-91.1 -819.9,-290.8 -828.1,-631.9 -0.5,-21.7 -23.5,-33.7 -42,-22.5 -36.5,22.2 -94.8,32.7 -172.8,-32.9 -135.5,-114 -80,-409.6 217.1,-652.9 14.1,-11.5 14,-33.6 -1.3,-43.5 -53.8,-35.1 -134.1,-118.5 74,-229.8 215.2,-115 375.9,-105.6 437.8,-95.4 15.4,2.6 25.3,17.5 22,32.7 l -66.1,299.8 c -3.7,17 9.2,33 26.6,33 z"
         id="path468" /></clipPath><linearGradient
       x1="0"
       y1="0"
       x2="1"
       y2="0"
       gradientUnits="userSpaceOnUse"
       gradientTransform="matrix(1528.03,-1967.33,-1967.33,-1528.03,13262,21903.5)"
       spreadMethod="pad"
       id="linearGradient476"><stop
         style="stop-opacity:1;stop-color:#09005d"
         offset="0"
         id="stop472" /><stop
         style="stop-opacity:1;stop-color:#1a0f91"
         offset="1"
         id="stop474" /></linearGradient><clipPath
       clipPathUnits="userSpaceOnUse"
       id="clipPath486"><path
         d="m 13586.2,20503.2 c 0,0 -109.5,421.1 -298.3,303 -188.8,-118 98,-471.8 249.8,-487.6 z"
         id="path484" /></clipPath><linearGradient
       x1="0"
       y1="0"
       x2="1"
       y2="0"
       gradientUnits="userSpaceOnUse"
       gradientTransform="matrix(-1640.68,-1255.37,-1255.37,1640.68,14213.5,21175.5)"
       spreadMethod="pad"
       id="linearGradient492"><stop
         style="stop-opacity:1;stop-color:#febbba"
         offset="0"
         id="stop488" /><stop
         style="stop-opacity:1;stop-color:#ff928e"
         offset="1"
         id="stop490" /></linearGradient><clipPath
       clipPathUnits="userSpaceOnUse"
       id="clipPath504"><path
         d="m 13572.3,14297.6 1268.5,-15.7 -443.9,417.9 c -110.4,103.9 -278.8,120.7 -406.2,38.1 -74.6,-48.4 -155.5,-114.1 -225.6,-201 0,0 -791.3,289.2 -1174.9,936.2 -119.5,-177.5 -259.2,-419 -380.3,-719.6 343.9,-201.9 789.7,-360.6 1362.4,-455.9 z"
         id="path502" /></clipPath><linearGradient
       x1="0"
       y1="0"
       x2="1"
       y2="0"
       gradientUnits="userSpaceOnUse"
       gradientTransform="matrix(1671.22,5165.58,5165.58,-1671.22,13781.8,15310.1)"
       spreadMethod="pad"
       id="linearGradient510"><stop
         style="stop-opacity:1;stop-color:#febbba"
         offset="0"
         id="stop506" /><stop
         style="stop-opacity:1;stop-color:#ff928e"
         offset="1"
         id="stop508" /></linearGradient><clipPath
       clipPathUnits="userSpaceOnUse"
       id="clipPath520"><path
         d="m 13708.9,14134 c 2.5,-0.2 5,-0.2 7.4,-0.2 l 3220.2,3.5 c 79.6,0 144.1,63.9 144,142.7 -0.1,78.8 -64.9,143.9 -144.3,142.5 L 13716,14419 c -79.6,-0.1 -144,-64 -144,-142.8 0.1,-76.3 60.8,-138.5 136.9,-142.2 z"
         id="path518" /></clipPath><linearGradient
       x1="0"
       y1="0"
       x2="1"
       y2="0"
       gradientUnits="userSpaceOnUse"
       gradientTransform="matrix(2556.04,-838.329,838.329,2556.04,13162.8,14987.9)"
       spreadMethod="pad"
       id="linearGradient526"><stop
         style="stop-opacity:1;stop-color:#09005d"
         offset="0"
         id="stop522" /><stop
         style="stop-opacity:1;stop-color:#1a0f91"
         offset="1"
         id="stop524" /></linearGradient><clipPath
       clipPathUnits="userSpaceOnUse"
       id="clipPath536"><path
         d="m 19831.3,17026.8 h -2681.8 c -197.8,0 -377.9,-113 -462.3,-290 l -1239.7,-2601.1 h 3332.7 c 127.5,0 242,77 288.9,194.3 l 961.4,2407 c 55.5,139.1 -48.1,289.8 -199.2,289.8 z"
         id="path534" /></clipPath><linearGradient
       x1="0"
       y1="0"
       x2="1"
       y2="0"
       gradientUnits="userSpaceOnUse"
       gradientTransform="matrix(1829.94,-1934.13,1934.13,1829.94,16680.9,16643.4)"
       spreadMethod="pad"
       id="linearGradient542"><stop
         style="stop-opacity:1;stop-color:#09005d"
         offset="0"
         id="stop538" /><stop
         style="stop-opacity:1;stop-color:#1a0f91"
         offset="1"
         id="stop540" /></linearGradient></defs><sodipodi:namedview
     pagecolor="#ffffff"
     bordercolor="#666666"
     borderopacity="1"
     objecttolerance="10"
     gridtolerance="10"
     guidetolerance="10"
     inkscape:pageopacity="0"
     inkscape:pageshadow="2"
     inkscape:window-width="640"
     inkscape:window-height="480"
     id="namedview4" /><g
     id="g10"
     inkscape:groupmode="layer"
     inkscape:label="ink_ext_XXXXXX"
     transform="matrix(1.3333333,0,0,-1.3333333,0,4946.6667)"><g
       id="g12"
       transform="scale(0.1)"><path
         d="M 0,0 H 37100 V 37100 H 0 Z"
         style="fill:#ffffff;fill-opacity:1;fill-rule:nonzero;stroke:none"
         id="path14" /><g
         id="g16"><g
           id="g18"
           clip-path="url(#clipPath22)"><path
             d="m 19013.6,4527.8 c -1693.9,0 -2988,236.9 -3504.1,341.7 -650.8,132.2 -1512.6,307.2 -2470,608.6 416.5,172.9 779.6,463.3 1037.5,843.9 l 1950.9,2878.2 c 1239.2,-607.3 2632.9,-948.4 4105.9,-948.4 200.9,0 400,6.3 597.7,18.8 l 1028.8,-2244.2 c 218.4,-476.3 700.9,-782.6 1232.9,-782.6 h 895.5 c -1756.3,-549.5 -3456.1,-716 -4875.1,-716 m 6659.3,1409.3 5076.5,10795.5 745.9,-83.9 c 25.7,-2.8 51.2,-4.3 76.4,-4.3 345.8,0.1 639.8,265.1 660.7,612.6 l 180.9,3012.4 c 600.1,-4532 -614.9,-9192.1 -3086.4,-11794 -573.6,-603.9 -1116.4,-993.3 -1545.2,-1301 -690.3,-495.3 -1398.2,-903.1 -2108.8,-1237.3 M 11017,6281.2 C 9771.41,6894.1 8499.59,7772 7403.69,9060.7 5196.89,11655.9 4412.27,15084 4682.17,18448.2 c 428.53,-774.3 1555.42,-2413.5 3413.42,-2413.5 66.24,0 133.07,2.1 201.17,6.3 826.2,51.9 1708.94,259.8 2557.64,471.7 243.8,-2117.8 1196,-4019.9 2613.4,-5463.6 C 12028.7,8986.3 10744.4,7052.5 10744.4,7052.5 l 272.6,-771.3 m -6302.72,12519 c 214.13,2096.2 833.88,4155.1 1770.19,5959.4 265.26,-399.7 481.91,-822.3 596.38,-1245 252.58,-932.9 826.51,-1695 1533.77,-2260.3 -63.07,-46.5 -126.51,-94.7 -190.35,-144.5 C 6616,19699.3 5488.05,18987.5 4826.55,18855.2 c -43.64,-8.7 -81.59,-28.3 -112.27,-55 m 24287.82,1735.5 c -1232.8,3717.3 -4737.4,6398.5 -8868.3,6398.5 -860.5,0 -1693.5,-116.3 -2484.9,-334.1 -12.1,534.4 -70.8,1043.1 -190,1505.6 -453.9,1761.5 -2141.2,2902.9 -3702.7,3601.6 882.7,355.7 1859,626.8 2931.9,767 598.4,78.3 1213.5,117.8 1836.6,117.8 3012.5,0 6221.1,-922.9 8740.8,-2859.1 -48.6,-69.9 -78.9,-153.2 -84.6,-243.1 l -250.6,-3969.5 c -17.2,-272.9 197,-504.9 470.4,-509.4 l 3661.9,-60.3 c 200.4,-426.1 379.7,-861.6 538.7,-1304.3 l -2599.2,-3110.7 m -18181.4,6951 c -538.6,130.3 -1195.98,179.9 -1884.9,179.9 -180.34,0 -362.64,-3.3 -545.77,-9.6 604.71,739.5 1419.01,1597.2 2457.87,2387.4 -6.6,-517.9 -17.6,-1138.3 -34.6,-1881.6 -5.4,-236.2 -2.8,-461.4 7.4,-676.1"
             style="fill:url(#linearGradient28);fill-opacity:1;fill-rule:nonzero;stroke:none"
             id="path30" /></g></g><path
         d="m 11189.3,32570.7 c -183.6,43.4 -357.5,-100.6 -349.8,-289.1 19.9,-483.5 31.8,-1590.5 -26.2,-4118.8 -99.1,-4318.6 2509,-4941.9 3855.9,-5809.4 1347,-867.5 1137.8,-3868.6 1137.8,-3868.6 0,0 2552.3,6127.4 1651.9,9620.9 -759.4,2946.8 -4970.3,4158.1 -6269.6,4465"
         style="fill:#bdd0fb;fill-opacity:1;fill-rule:nonzero;stroke:none"
         id="path32" /><path
         d="m 15437.9,25669.8 c -14.6,39.5 -29.6,78.9 -44.8,118.1 l -56.2,140.5 -28.2,70.3 -7,17.5 -3.5,8.8 -2.9,6.7 -15.1,34.4 c -40.3,91.7 -80.5,183.4 -120.6,274.8 -40.2,91.5 -80.3,182.8 -120.3,273.8 -43.1,89.6 -86,178.9 -128.8,267.9 -42.8,89 -85.4,177.6 -127.7,265.8 -45,86.9 -89.8,173.4 -134.2,259.4 -44.5,86 -88.7,171.5 -132.5,256.4 -44.9,84.3 -92.2,166.6 -137.6,249 -45.7,82.3 -91.1,163.8 -136,244.6 -45.7,80.3 -93.6,158.4 -139.6,236.5 -45.9,78.1 -91.3,155.4 -136.1,231.8 -45.8,75.8 -92.9,149.5 -138.4,222.8 -45.7,73.3 -90.8,145.5 -135.2,216.6 -46.2,70.1 -91.6,139.1 -136.3,206.9 -44.7,67.8 -88.8,134.5 -132,199.9 -44.7,64.4 -88.6,127.6 -131.6,189.5 -43.1,61.8 -85.4,122.3 -126.7,181.5 -42.4,58.3 -83.9,115.3 -124.4,170.8 -79.3,112.3 -157.7,216.4 -231.5,314.3 -72.8,98.6 -144.2,188.4 -209.5,271.9 -64.7,84.1 -127.1,158.8 -182.4,227.3 -111.7,135.9 -200.9,241.5 -262.8,312.5 -61.6,70.6 -95.8,107.6 -95.8,107.6 -15.4,16.8 -14.4,42.9 2.4,58.4 8,7.3 18,10.9 28,10.9 10.5,0 20.8,-3.9 28.8,-11.7 l 0.3,-0.2 c 0,0 36.1,-35.3 102.7,-104 65.8,-68.6 162.3,-169.4 279.7,-302.3 58.4,-66.7 124.3,-139.5 192.8,-221.5 69.1,-81.5 144.6,-169.1 221.9,-265.5 78.2,-95.5 161.4,-197.3 245.8,-307.2 42.3,-54.9 85.6,-111.2 130,-168.9 43.2,-58.5 87.3,-118.4 132.5,-179.6 45,-61.3 90.9,-123.8 137.7,-187.6 45.4,-64.8 91.5,-130.8 138.5,-198 46.8,-67.3 94.5,-135.7 142.9,-205.2 46.7,-70.6 94.1,-142.3 142.2,-215 47.8,-72.8 97.4,-146 145.6,-221.3 47.3,-75.9 95.2,-152.8 143.7,-230.4 47.7,-78.2 97.3,-156.3 144.8,-236.8 46.7,-80.9 93.9,-162.6 141.4,-245 47.3,-82.5 96.3,-165 143.1,-249.6 45.7,-85.1 91.8,-170.9 138.1,-257.2 46.3,-86.3 93.3,-172.9 138.8,-260.9 43.6,-88.9 87.6,-178.3 131.6,-268 44.1,-89.7 88.3,-179.8 132.7,-270.1 41.3,-91.8 82.7,-183.9 124.2,-276.2 41.4,-92.3 82.9,-184.8 124.5,-277.3 l 15.6,-34.8 4.6,-10.6 3.5,-8.8 7.1,-17.5 28.2,-70.2 56.5,-140.5 c 11.5,-29.4 22.8,-58.9 34,-88.5 -69.4,-38.1 -138.2,-77 -206.5,-116.8"
         style="fill:#dee8fd;fill-opacity:1;fill-rule:nonzero;stroke:none"
         id="path34" /><path
         d="m 17231,10183.5 c 279.3,-139.6 -2625.9,3573 -3499.7,9375.1 -411.7,2734.1 -390.6,6155.5 -1935.8,7486.1 -1286,1107.5 -5696.84,449.2 -7140.34,197.2 -180.38,-31.5 -242.8,-258.6 -103.51,-377.4 686.71,-586 2154.71,-1966.9 2529.2,-3349.9 493.59,-1823 2213.9,-2993.5 3759.65,-3318.7 1545.8,-325.3 2404.6,-635.9 3139.5,-3117.7 734.8,-2481.9 2457.6,-6497.9 3251,-6894.7"
         style="fill:#91b3fa;fill-opacity:1;fill-rule:nonzero;stroke:none"
         id="path36" /><path
         d="m 6675.81,26440.7 c 0,0 43.94,-1.3 125.07,-7.5 81.25,-6.3 200.32,-16.8 350.9,-37.8 150.57,-20.8 332.86,-50.7 540.03,-95.2 207.03,-44.7 439.52,-102.2 688.12,-182.3 248.67,-79.4 514.31,-178.7 786.86,-303.5 272.24,-125.2 552.34,-274.9 824.74,-457.6 272.27,-182.6 537.97,-396 781.97,-640 244.3,-243.7 466.2,-518.1 654.6,-814.3 l 69.3,-111.9 34.6,-56 31.4,-57.8 c 41.2,-77.3 83.5,-154.2 122.6,-232.1 75.5,-154.9 150.6,-309.2 225.1,-462.2 73.3,-154 146.1,-306.8 217.9,-457.7 70,-151.7 139.2,-301.6 207.3,-449 67.9,-147.4 132.4,-293.5 196.7,-435.8 64.1,-142.5 123.5,-283.4 183.1,-419.8 117.6,-273.4 226.2,-533 325,-773.2 48.7,-120.4 95.5,-235.7 139.9,-345.5 42.8,-110.3 83.5,-215 121.7,-313.4 75.2,-197.2 139.6,-369.6 191.3,-512 52.1,-142.4 90.6,-255.1 116.8,-332 25.8,-77.2 39.5,-118.4 39.5,-118.4 5,-14.8 -3,-30.9 -17.9,-35.9 -14.5,-4.8 -30.1,2.7 -35.5,16.8 l -0.3,0.7 c 0,0 -15.3,40.2 -43.9,115.8 -29.7,75.3 -73.1,185.8 -128.4,326.5 -55.7,140.5 -125.1,310.4 -205.9,504.8 -82.1,193.9 -174.9,412.6 -276,651.1 -102.7,237.9 -215.7,494.9 -337.9,765.6 -122.7,270.3 -252.7,555.1 -389.5,848.7 -137.3,293.5 -281.5,595.3 -428.7,901.7 -74.9,152.9 -150.4,307 -226.2,461.7 -38.2,76 -79.8,150 -119,225.6 l -30,56.3 -33.3,54.5 -66.6,109.1 c -181,288.6 -394.8,556.6 -630.9,795.3 -236,239 -493.7,448.9 -758.75,629.2 -264.98,180.5 -535.67,334.2 -801.55,461.3 -265.77,127.5 -525.85,229.9 -769.92,312.7 -244.27,82.2 -471.79,147.5 -675.61,197 -203.77,49.8 -383.55,84.5 -532.15,109.4 -148.62,24.6 -265.98,40.6 -346.14,49.6 -80.29,9.1 -122.77,11.9 -122.77,11.9 -12.58,0.8 -22.09,11.7 -21.25,24.3 0.82,12.3 11.2,21.6 23.37,21.3 h 0.28"
         style="fill:#bdd0fb;fill-opacity:1;fill-rule:nonzero;stroke:none"
         id="path38" /><path
         d="m 17078.6,10175.1 c 181.3,-95.6 -1021.3,1974.2 -1113.5,3797.8 -92.3,1823.6 -503.7,4935.9 -2076.3,6797.8 -1572.5,1861.8 -3294.6,2031.6 -5464.53,339.1 C 6616,19699.3 5488.05,18987.5 4826.55,18855.2 c -163.8,-32.8 -247.39,-217.7 -167.68,-364.5 424.28,-781.3 1623.82,-2576 3637.89,-2449.7 2569.04,161.2 5682.64,1831.3 6631.64,438.1 948.9,-1393.2 827.1,-2172.8 856.2,-2833 29.2,-660.3 94.2,-2838.4 1294,-3471"
         style="fill:#bdd0fb;fill-opacity:1;fill-rule:nonzero;stroke:none"
         id="path40" /><path
         d="m 9186.81,18811.1 c -7.53,0 -15.01,3.2 -20.21,9.5 -8.95,10.7 -7.91,26.5 2.11,35.9 l 0.23,0.2 c 0,0 26.84,25.3 78.11,70 51.33,45 127.66,109.6 228.25,187.6 100.44,78.1 224.62,170.2 371.58,269.8 146.84,99.7 318.22,203.9 510.92,308.2 192.7,103.9 407.9,206.4 645.3,292.6 35.6,13.3 71.9,25.9 108.6,37.8 -13.6,-50.8 -26.9,-101.8 -39.7,-152.9 -8.5,-3 -16.9,-5.9 -25.4,-9 -232.1,-77.5 -445.2,-171.6 -636.8,-268.4 -192.1,-96.3 -362.2,-196.6 -511.58,-287.8 -149.21,-91.6 -275.98,-177.1 -378.7,-249.9 -102.52,-73 -181.65,-132.4 -235.12,-173.5 -53.49,-41.3 -80.74,-64 -80.74,-64 -4.93,-4.1 -10.9,-6.1 -16.85,-6.1"
         style="fill:#dee8fd;fill-opacity:1;fill-rule:nonzero;stroke:none"
         id="path42" /><path
         d="m 29475,17593 c 0,-5159 -4182.2,-9341.2 -9341.2,-9341.2 -5159,0 -9341.2,4182.2 -9341.2,9341.2 0,5159 4182.2,9341.2 9341.2,9341.2 5159,0 9341.2,-4182.2 9341.2,-9341.2"
         style="fill:#ffffff;fill-opacity:1;fill-rule:nonzero;stroke:none"
         id="path44" /><g
         id="g46"><g
           id="g48"
           clip-path="url(#clipPath52)"><path
             d="m 20034.9,9790 c -1115.5,14 -2175.7,263.2 -3132.5,700.2 l 1591.6,2348.1 c 55.8,-19.3 112,-37.6 168.7,-55 L 20034.9,9790 m 2826.8,491.3 -1294.5,2490.6 c 2077,618.5 3595.8,2545.8 3595.8,4821.1 0,2773.1 -2256.1,5029.1 -5029.2,5029.1 -2773.1,0 -5029.1,-2256 -5029.1,-5029.1 0,-1107.3 359.7,-2132.2 968.4,-2963.9 -497.6,-634.3 -1091.6,-1443.4 -1699.5,-2295.3 -1268.6,1388.2 -2043.3,3234.8 -2043.3,5259.2 0,4302.9 3500.6,7803.5 7803.5,7803.5 3791.3,0 6959.8,-2717.7 7659.6,-6307.3 l -1430.7,-1712.3 c -125.2,-149.8 -16.7,-375 180.6,-375 h 1069.9 l -3127.4,-5883.4 c -503.1,-339.2 -1047.5,-621.4 -1624.1,-837.2"
             style="fill:url(#linearGradient58);fill-opacity:1;fill-rule:nonzero;stroke:none"
             id="path60" /></g></g><path
         d="m 20133.8,25396.5 c -4302.9,0 -7803.5,-3500.6 -7803.5,-7803.5 0,-4302.9 3500.6,-7803.6 7803.5,-7803.6 4302.9,0 7803.6,3500.7 7803.6,7803.6 0,4302.9 -3500.7,7803.5 -7803.6,7803.5 m 0,-15944.7 c -2174.6,0 -4219,846.8 -5756.7,2384.5 -1537.6,1537.7 -2384.5,3582.1 -2384.5,5756.7 0,2174.6 846.9,4219 2384.5,5756.7 1537.7,1537.6 3582.1,2384.5 5756.7,2384.5 2174.6,0 4219,-846.9 5756.7,-2384.5 C 27428.2,21812 28275,19767.6 28275,17593 c 0,-2174.6 -846.8,-4219 -2384.5,-5756.7 -1537.7,-1537.7 -3582.1,-2384.5 -5756.7,-2384.5"
         style="fill:#bdd0fb;fill-opacity:1;fill-rule:nonzero;stroke:none"
         id="path62" /><g
         id="g64"><g
           id="g66"
           clip-path="url(#clipPath70)"><path
             d="m 21408.4,13077.4 -740.2,1424.1 -268.3,638.2 c -156.2,371.8 -412,698.1 -748.9,926.8 -349.9,237.4 -701.1,323.5 -1026.6,323.5 -861,0 -1542.1,-602.7 -1542.1,-602.7 -191.6,-169.4 -464.7,-478.9 -790.9,-883.4 -534.9,761.9 -849.1,1689.5 -849.1,2689.1 0,2586.9 2104.6,4691.5 4691.5,4691.5 2586.9,0 4691.5,-2104.6 4691.5,-4691.5 0,-2145.3 -1447.4,-3958.9 -3416.9,-4515.6"
             style="fill:url(#linearGradient76);fill-opacity:1;fill-rule:nonzero;stroke:none"
             id="path78" /></g></g><path
         d="m 20133.8,22284.5 c -2586.9,0 -4691.5,-2104.6 -4691.5,-4691.5 0,-2586.9 2104.6,-4691.5 4691.5,-4691.5 2586.9,0 4691.5,2104.6 4691.5,4691.5 0,2586.9 -2104.6,4691.5 -4691.5,4691.5 m 0,-9720.7 c -2773.1,0 -5029.1,2256.1 -5029.1,5029.2 0,2773.1 2256,5029.1 5029.1,5029.1 2773.1,0 5029.2,-2256 5029.2,-5029.1 0,-2773.1 -2256.1,-5029.2 -5029.2,-5029.2"
         style="fill:#bdd0fb;fill-opacity:1;fill-rule:nonzero;stroke:none"
         id="path80" /><g
         id="g82"><g
           id="g84"
           clip-path="url(#clipPath88)"><path
             d="m 22016.9,17593 c 0,-1040 -843.1,-1883.1 -1883.1,-1883.1 -1040,0 -1883,843.1 -1883,1883.1 0,1040 843,1883 1883,1883 1040,0 1883.1,-843 1883.1,-1883"
             style="fill:url(#linearGradient94);fill-opacity:1;fill-rule:nonzero;stroke:none"
             id="path96" /></g></g><path
         d="m 20133.8,19307.2 c -945.2,0 -1714.2,-769 -1714.2,-1714.2 0,-945.2 769,-1714.2 1714.2,-1714.2 945.2,0 1714.2,769 1714.2,1714.2 0,945.2 -769,1714.2 -1714.2,1714.2 z m 0,-3766.1 c -1131.4,0 -2051.8,920.5 -2051.8,2051.9 0,1131.4 920.4,2051.8 2051.8,2051.8 1131.4,0 2051.9,-920.4 2051.9,-2051.8 0,-1131.4 -920.5,-2051.9 -2051.9,-2051.9"
         style="fill:#bdd0fb;fill-opacity:1;fill-rule:nonzero;stroke:none"
         id="path98" /><g
         id="g100"><g
           id="g102"
           clip-path="url(#clipPath106)"><path
             d="m 25508.9,5609.5 59.2,104.8 c -17.2,-36.7 -37.1,-71.7 -59.2,-104.8 m 59.2,104.8 c -204.2,0 -391.2,112.4 -484,291 l -1639.5,3154.5 720.9,1356.3 320.3,602.4 3127.4,5883.4 h -1069.9 c -197.3,0 -305.8,225.2 -180.6,375 l 1430.7,1712.3 276.9,331.4 931.8,1115.1 2599.2,3110.7 327,391.4 c 82.2,98.4 191.6,142 299.4,142 208.5,0 410.7,-163.4 395.9,-409.2 l -210.3,-3501.2 -180.9,-3012.4 c -20.9,-347.5 -314.9,-612.5 -660.7,-612.6 -25.2,0 -50.7,1.5 -76.4,4.3 l -745.9,83.9 -5076.5,-10795.5 -104.8,-222.8 v 0 m 6488,18001.7 c -57.6,0 -113,-26 -150.5,-73.8 l -4595.9,-5863.8 c -17.2,-22 -13.3,-53.9 8.7,-71.1 9.2,-7.3 20.2,-10.8 31.2,-10.8 15,0 29.9,6.6 39.9,19.4 l 4595.8,5863.8 c 20.2,25.8 45.8,35.2 69.9,35.2 13.3,0 26.1,-2.9 37.3,-7.5 30,-12.3 60.1,-42.6 54.5,-90.7 l -81,-702.9 c -3.2,-27.7 16.7,-52.9 44.5,-56.1 2,-0.2 3.9,-0.3 5.9,-0.3 25.3,0 47.3,19 50.2,44.8 l 81.1,702.9 c 9.9,85.8 -35.9,162.8 -116.7,196 -24.5,10 -49.9,14.9 -74.9,14.9 m -24,-1585.4 c -25.2,0 -47.2,-19.2 -50.1,-44.9 l -36.7,-318.1 c -3.2,-27.7 16.7,-52.9 44.5,-56.1 2,-0.2 3.9,-0.3 5.8,-0.3 25.4,0 47.3,19 50.3,44.8 l 36.7,318.1 c 3.2,27.7 -16.7,52.9 -44.5,56.1 -2,0.2 -4,0.4 -6,0.4"
             style="fill:url(#linearGradient112);fill-opacity:1;fill-rule:nonzero;stroke:none"
             id="path114" /></g></g><g
         id="g116"><g
           id="g118"
           clip-path="url(#clipPath122)"><path
             d="m 24893.7,5243.8 h -1900.5 c -532,0 -1014.5,306.3 -1232.9,782.6 l -1028.8,2244.2 -541.6,1181.4 -155,338 -1372.2,2993.3 -83.1,181.3 917.8,1354.1 c 156.2,230.4 412.3,353.1 672,353.1 174.4,0 350.4,-55.3 498.8,-170.4 v 0 0 0.1 l 740.2,-1424.1 158.8,-305.5 1294.5,-2490.6 158.6,-305.3 424.3,-816.2 1639.5,-3154.5 c 92.8,-178.6 279.8,-291 484,-291 v 0 l -59.2,-104.8 -8.4,-14.9 c -122.3,-216.5 -354.6,-350.8 -606.8,-350.8"
             style="fill:url(#linearGradient128);fill-opacity:1;fill-rule:nonzero;stroke:none"
             id="path130" /></g></g><g
         id="g132"><g
           id="g134"
           clip-path="url(#clipPath138)"><path
             d="m 12127.8,5296.7 h -762.7 l -348.1,984.5 -272.6,771.3 c 0,0 1284.3,1933.8 2723.4,3996.6 232.1,332.6 468.2,668.6 703.6,1000.4 67.4,95 135,190.1 202.2,284.3 607.9,851.9 1201.9,1661 1699.5,2295.3 75.1,95.8 147.8,187.4 218.3,274.8 326.2,404.5 599.3,714 790.9,883.4 0,0 681.1,602.7 1542.1,602.7 325.5,0 676.7,-86.1 1026.6,-323.5 336.9,-228.7 592.7,-555 748.9,-926.8 l 268.3,-638.2 v -0.1 c -148.4,115.1 -324.4,170.4 -498.8,170.4 -259.7,0 -515.8,-122.7 -672,-353.1 L 18579.6,12964.6 18494,12838.3 16902.4,10490.2 16707.7,10203 16027.9,9200.2 14077,6322 c -257.9,-380.6 -621,-671 -1037.5,-843.9 -284.4,-118.1 -593.8,-181.4 -911.7,-181.4 m 4330.5,5676.6 c -16.1,0 -32,-7.7 -41.8,-22 l -152.4,-221.8 c -15.8,-23.1 -10,-54.6 13,-70.4 8.8,-6.1 18.8,-8.9 28.7,-8.9 16.1,0 31.9,7.6 41.8,21.9 l 152.4,221.9 c 15.8,23 10,54.5 -13.1,70.4 -8.7,6 -18.7,8.9 -28.6,8.9 m 3145.1,4295.7 c -139,0 -265.9,-66.1 -344.8,-180.9 l -2376.9,-3459.6 c -15.8,-23.1 -9.9,-54.6 13.1,-70.4 8.8,-6 18.8,-8.9 28.7,-8.9 16.1,0 31.9,7.7 41.7,21.9 l 2376.9,3459.6 c 59.6,86.9 155.6,137 261.3,137 8.6,0 17.3,-0.3 26.1,-1 114.7,-8.8 212.5,-74.8 261.6,-176.7 8.7,-18.1 26.8,-28.7 45.6,-28.7 7.4,0 14.9,1.7 22,5.1 25.2,12.1 35.8,42.4 23.6,67.6 -64.9,134.8 -194,222.2 -345.1,233.7 -11.3,0.9 -22.6,1.3 -33.8,1.3"
             style="fill:url(#linearGradient144);fill-opacity:1;fill-rule:nonzero;stroke:none"
             id="path146" /></g></g><g
         id="g148"><g
           id="g150"
           clip-path="url(#clipPath154)"><path
             d="m 4518.48,12249.1 c 0,0 1237.8,639.3 2996.03,812.5 0,0 835.07,-279.3 2498.69,-3206.6 1663.7,-2927.3 2768,-4262.1 4063.8,-3533 l -107.2,-174.9 c -353.6,-576.5 -988.8,-929 -1674.1,-929 H 11579 c -789.1,0 -1529.8,372.6 -1990.58,1001.5 -1294.84,1767.5 -4274.54,5755.1 -5069.94,6029.5"
             style="fill:url(#linearGradient162);fill-opacity:1;fill-rule:nonzero;stroke:none"
             id="path164" /></g></g><g
         id="g166"><g
           id="g168"
           clip-path="url(#clipPath172)"><path
             d="m 31995.6,21711.2 c -1.9,0 -3.8,0.1 -5.8,0.3 -27.8,3.2 -47.7,28.4 -44.5,56.1 l 36.7,318.1 c 2.9,25.7 24.9,44.9 50.1,44.9 2,0 4,-0.2 6,-0.4 27.8,-3.2 47.7,-28.4 44.5,-56.1 l -36.7,-318.1 c -3,-25.8 -24.9,-44.8 -50.3,-44.8"
             style="fill:url(#linearGradient178);fill-opacity:1;fill-rule:nonzero;stroke:none"
             id="path180" /></g></g><g
         id="g182"><g
           id="g184"
           clip-path="url(#clipPath188)"><path
             d="m 27349.6,17696.5 c -11,0 -22,3.5 -31.2,10.8 -22,17.2 -25.9,49.1 -8.7,71.1 l 4595.9,5863.8 c 37.5,47.8 92.9,73.8 150.5,73.8 25,0 50.4,-4.9 74.9,-14.9 80.8,-33.2 126.6,-110.2 116.7,-196 l -81.1,-702.9 c -2.9,-25.8 -24.9,-44.8 -50.2,-44.8 -2,0 -3.9,0.1 -5.9,0.3 -27.8,3.2 -47.7,28.4 -44.5,56.1 l 81,702.9 c 5.6,48.1 -24.5,78.4 -54.5,90.7 -11.2,4.6 -24,7.5 -37.3,7.5 -24.1,0 -49.7,-9.4 -69.9,-35.2 l -4595.8,-5863.8 c -10,-12.8 -24.9,-19.4 -39.9,-19.4"
             style="fill:url(#linearGradient194);fill-opacity:1;fill-rule:nonzero;stroke:none"
             id="path196" /></g></g><g
         id="g198"><g
           id="g200"
           clip-path="url(#clipPath204)"><path
             d="m 16923.5,11549.2 c -9.9,0 -19.9,2.9 -28.7,8.9 -23,15.8 -28.9,47.3 -13.1,70.4 l 2376.9,3459.6 c 78.9,114.8 205.8,180.9 344.8,180.9 11.2,0 22.5,-0.4 33.8,-1.3 151.1,-11.5 280.2,-98.9 345.1,-233.7 12.2,-25.2 1.6,-55.5 -23.6,-67.6 -7.1,-3.4 -14.6,-5.1 -22,-5.1 -18.8,0 -36.9,10.6 -45.6,28.7 -49.1,101.9 -146.9,167.9 -261.6,176.7 -8.8,0.7 -17.5,1 -26.1,1 -105.7,0 -201.7,-50.1 -261.3,-137 l -2376.9,-3459.6 c -9.8,-14.2 -25.6,-21.9 -41.7,-21.9"
             style="fill:url(#linearGradient210);fill-opacity:1;fill-rule:nonzero;stroke:none"
             id="path212" /></g></g><g
         id="g214"><g
           id="g216"
           clip-path="url(#clipPath220)"><path
             d="m 16305.8,10650.2 c -9.9,0 -19.9,2.8 -28.7,8.9 -23,15.8 -28.8,47.3 -13,70.4 l 152.4,221.8 c 9.8,14.3 25.7,22 41.8,22 9.9,0 19.9,-2.9 28.6,-8.9 23.1,-15.9 28.9,-47.4 13.1,-70.4 l -152.4,-221.9 c -9.9,-14.3 -25.7,-21.9 -41.8,-21.9"
             style="fill:url(#linearGradient226);fill-opacity:1;fill-rule:nonzero;stroke:none"
             id="path228" /></g></g><path
         d="m 32223.9,13419.2 c 0,-1200.9 -973.5,-2174.3 -2174.3,-2174.3 -1200.8,0 -2174.2,973.4 -2174.2,2174.3 0,1200.8 973.4,2174.2 2174.2,2174.2 1200.8,0 2174.3,-973.4 2174.3,-2174.2"
         style="fill:#91b3fa;fill-opacity:1;fill-rule:nonzero;stroke:none"
         id="path230" /><path
         d="m 30043.7,13911.8 c 54.3,-64.9 467.2,-311.1 0.1,-705.1 -22.2,-42.6 40.1,-152.8 83.7,-138.8 672.4,461 41.3,1035.2 -27.9,978.9 -69.1,-56.3 -119.1,-59.6 -55.9,-135"
         style="fill:#ffffff;fill-opacity:1;fill-rule:nonzero;stroke:none"
         id="path232" /><path
         d="m 30323.7,12789.9 c 10.1,-86 68.7,-166.9 143.9,-142.7 74.1,23.8 1032.7,844.4 -47.9,1758.3 -13.2,11.3 -30.4,16.7 -47.7,15.2 -17.3,-1.5 -33.3,-9.9 -44.4,-23.2 -34.7,-41.6 -58,-77.1 -52.3,-123 948.3,-836.4 38.3,-1398.7 48.4,-1484.6"
         style="fill:#ffffff;fill-opacity:1;fill-rule:nonzero;stroke:none"
         id="path234" /><path
         d="m 30610.1,12362.7 c -12.3,-61.1 33.7,-185.9 134,-153.7 1571.5,1444.4 -75.6,2730.7 -142.1,2683.5 -66.4,-47.2 -68.9,-142.9 -46.5,-181.4 1475.2,-1150 66.8,-2287.3 54.6,-2348.4"
         style="fill:#ffffff;fill-opacity:1;fill-rule:nonzero;stroke:none"
         id="path236" /><path
         d="m 29666.6,14640.9 c -12.7,5.2 -25.9,2.2 -35.4,-7.6 l -544,-556.7 c -5.9,-6.1 -13.5,-9.7 -22,-10.1 l -452.2,-22.6 c -44.6,-2.3 -80.3,-37.5 -83.4,-82 l -56.7,-816.1 c -3.2,-47.2 31.3,-88.5 78.3,-93.7 l 516.2,-57.4 c 7.3,-0.8 14.2,-4 19.5,-9.1 l 546.4,-522.1 c 9.8,-9.3 21.4,-12 33.8,-6.7 12.4,5.3 17.7,17.5 17.7,31 v 2121.9 c 0,13.7 -5.5,26 -18.2,31.2"
         style="fill:#ffffff;fill-opacity:1;fill-rule:nonzero;stroke:none"
         id="path238" /><path
         d="m 28845.9,18377.8 h -3780.8 c -289.2,0 -523.6,234.4 -523.6,523.5 v 3791 c 0,272.8 209.5,499.8 481.4,521.8 l 4028.2,326.1 c 317.3,25.6 583.9,-235.5 564.8,-553.3 l -247.4,-4117 c -16.6,-276.4 -245.6,-492.1 -522.6,-492.1"
         style="fill:#91b3fa;fill-opacity:1;fill-rule:nonzero;stroke:none"
         id="path240" /><path
         d="m 24997.1,19369.6 h 3655.6 c 113.8,0 184.5,123.6 126.8,221.7 l -1447.2,2460.3 c -60.4,102.6 -211.3,94.8 -260.7,-13.5 l -698.8,-1531.2 c -41.5,-90.9 -159.6,-114.9 -233.3,-47.4 l -282.7,259.2 c -65.6,60.2 -169.3,48.6 -220.2,-24.5 l -760.3,-1093.5 c -67.9,-97.6 1.9,-231.1 120.8,-231.1"
         style="fill:#ffffff;fill-opacity:1;fill-rule:nonzero;stroke:none"
         id="path242" /><path
         d="m 28728.6,22124.2 c 0,-272.6 -221,-493.5 -493.5,-493.5 -272.5,0 -493.5,220.9 -493.5,493.5 0,272.5 221,493.4 493.5,493.4 272.5,0 493.5,-220.9 493.5,-493.4"
         style="fill:#ffffff;fill-opacity:1;fill-rule:nonzero;stroke:none"
         id="path244" /><path
         d="m 31210,24948.3 -3809.3,62.7 c -273.4,4.5 -487.6,236.5 -470.4,509.4 l 250.6,3969.5 c 14.4,228.5 188.4,414.8 415.4,444.9 l 3319.6,265.2 c 317.8,42.1 987.9,-355.8 937.6,-672.4 l -162.3,-4175.2 c -37.5,-235.7 -242.6,-408 -481.2,-404.1"
         style="fill:#91b3fa;fill-opacity:1;fill-rule:nonzero;stroke:none"
         id="path246" /><path
         d="m 29502.8,26038.8 c -826,0 -1498.1,672 -1498.1,1498.1 0,826.1 672.1,1498.1 1498.1,1498.1 826.1,0 1498.2,-672 1498.2,-1498.1 0,-826.1 -672.1,-1498.1 -1498.2,-1498.1 m 0,2745.2 c -687.6,0 -1247.1,-559.4 -1247.1,-1247.1 0,-687.6 559.5,-1247.1 1247.1,-1247.1 687.7,0 1247.1,559.5 1247.1,1247.1 0,687.7 -559.4,1247.1 -1247.1,1247.1"
         style="fill:#f4f7fe;fill-opacity:1;fill-rule:nonzero;stroke:none"
         id="path248" /><path
         d="m 29182.3,26811.3 c -77.5,0 -148.8,61.9 -148.8,148.7 v 1077 c 0,86.8 71.3,148.7 148.8,148.7 25.2,0 51.1,-6.6 75.5,-21 l 907.5,-538.5 c 97,-57.5 97,-197.9 0,-255.4 l -907.5,-538.5 c -24.4,-14.5 -50.3,-21 -75.5,-21"
         style="fill:#f4f7fe;fill-opacity:1;fill-rule:nonzero;stroke:none"
         id="path250" /><path
         d="m 28342.4,29891.3 c 0,-1461.9 -1185,-2646.9 -2646.8,-2646.9 -1461.9,0 -2646.9,1185 -2646.9,2646.9 0,1461.8 1185,2646.8 2646.9,2646.8 1461.8,0 2646.8,-1185 2646.8,-2646.8"
         style="fill:#7d97f4;fill-opacity:1;fill-rule:nonzero;stroke:none"
         id="path252" /><path
         d="m 26944.2,30951.3 c -336,330.3 -860.1,230.9 -1220.9,-72 -51.7,-43.4 -126.7,-43.9 -179.1,-1.4 -365.6,296.5 -889.2,386.8 -1219.4,50.8 -358.6,-364.8 -353.5,-951.1 11.3,-1309.7 l 1220.6,-1199.8 c 55.4,-54.5 144.6,-53.7 199.1,1.7 l 1199.7,1220.7 c 358.6,364.7 353.5,951.1 -11.3,1309.7"
         style="fill:#ffffff;fill-opacity:1;fill-rule:nonzero;stroke:none"
         id="path254" /><g
         id="g256"><g
           id="g258"
           clip-path="url(#clipPath262)"><path
             d="m 15222,5250.7 c -337.8,-29.1 -923.9,-76.6 -1386,-96.9 -277.8,-12.2 -437.7,15 -529.8,51.8 0.2,-10.3 0.5,-20.2 0.9,-29.3 2.2,-48.6 41.7,-87.5 90.8,-90.2 873.1,-48.8 1567.5,-16.9 1814.8,-1.9 51.1,3.2 81.5,58.7 55.4,102.3 -13.1,21.8 -28.9,43.1 -46.1,64.2"
             style="fill:url(#linearGradient268);fill-opacity:1;fill-rule:nonzero;stroke:none"
             id="path270" /></g></g><g
         id="g272"><g
           id="g274"
           clip-path="url(#clipPath278)"><path
             d="m 13836,5153.8 c 462.1,20.3 1048.2,67.8 1386,96.9 -332.1,407.4 -1386,682 -1386,682 h -297.7 c -204.7,-295.1 -234.3,-576.1 -232.1,-727.1 92.1,-36.8 252,-64 529.8,-51.8"
             style="fill:url(#linearGradient284);fill-opacity:1;fill-rule:nonzero;stroke:none"
             id="path286" /></g></g><g
         id="g288"><g
           id="g290"
           clip-path="url(#clipPath294)"><path
             d="m 13488.2,6418.6 27.9,-551.2 c 3,-59.7 47.7,-109.8 107.5,-118.4 59.4,-8.5 139.1,-9.6 223.6,18.6 51.9,17.3 90.5,61 100.1,114.5 l 96.2,536.5 h -555.3"
             style="fill:url(#linearGradient300);fill-opacity:1;fill-rule:nonzero;stroke:none"
             id="path302" /></g></g><g
         id="g304"><g
           id="g306"
           clip-path="url(#clipPath310)"><path
             d="m 10033.5,4614.9 c -146.46,26.4 -212.73,124.7 -240.52,229.8 -0.18,-0.9 -0.36,-1.9 -0.55,-2.8 -21.54,-110.9 28.41,-225.8 128.28,-280.5 120.69,-66 252.69,-77.3 355.09,-71.8 110,5.8 210.9,64.6 266.3,158.7 l 0.9,1.4 c -110.4,-70.5 -265.3,-78.9 -509.5,-34.8"
             style="fill:url(#linearGradient316);fill-opacity:1;fill-rule:nonzero;stroke:none"
             id="path318" /></g></g><g
         id="g320"><g
           id="g322"
           clip-path="url(#clipPath326)"><path
             d="m 10724,6248.8 h -245.5 c -373.9,9.9 -608.66,-1009.4 -685.52,-1404.1 27.79,-105.1 94.06,-203.4 240.52,-229.8 244.2,-44.1 399.1,-35.7 509.5,34.8 202,343.6 302.1,846.7 350.3,1140.4 54.7,334 -169.3,458.7 -169.3,458.7"
             style="fill:url(#linearGradient332);fill-opacity:1;fill-rule:nonzero;stroke:none"
             id="path334" /></g></g><g
         id="g336"><g
           id="g338"
           clip-path="url(#clipPath342)"><path
             d="m 10510.1,6760.4 -136.3,-542.1 c -16.7,-66.5 15.1,-135.2 76.6,-166.8 76.2,-39.1 183.6,-80.2 282.2,-68.3 46.4,5.6 85,38.3 100.3,82 l 200.1,570.3 -522.9,124.9"
             style="fill:url(#linearGradient348);fill-opacity:1;fill-rule:nonzero;stroke:none"
             id="path350" /></g></g><g
         id="g352"><g
           id="g354"
           clip-path="url(#clipPath358)"><path
             d="m 15305.1,13900.8 c 0,0 -1218.1,-7614.3 -1198,-7656.2 0,0 -336.5,-152.9 -703.2,-19.5 0,0 110.1,4070.4 368.2,5631.1 0,0 -2078.9,-3638.1 -2739.1,-5450.9 0,0 -344.3,41 -629.3,228.6 0,0 2238.4,6548.5 2835.6,7420.7 l 2065.8,-153.8"
             style="fill:url(#linearGradient364);fill-opacity:1;fill-rule:nonzero;stroke:none"
             id="path366" /></g></g><g
         id="g368"><g
           id="g370"
           clip-path="url(#clipPath374)"><path
             d="m 13820.8,11895.9 c -6.6,0 -13.2,1.7 -19.1,5.4 -16.8,10.6 -21.9,32.8 -11.4,49.6 l 455.2,727.1 c 5.3,8.4 13.7,14.3 23.4,16.2 l 335,67.4 c 19.6,3.9 38.5,-8.7 42.4,-28.1 3.9,-19.5 -8.7,-38.5 -28.2,-42.4 l -319.8,-64.4 -447,-713.9 c -6.8,-11 -18.6,-16.9 -30.5,-16.9"
             style="fill:url(#linearGradient380);fill-opacity:1;fill-rule:nonzero;stroke:none"
             id="path382" /></g></g><g
         id="g384"><g
           id="g386"
           clip-path="url(#clipPath390)"><path
             d="m 20895,21356.8 c 0,0 -821.9,-181.3 -1321.9,-412.1 -99.3,-45.8 -178.5,-126 -223.6,-224.8 -149.5,-327.5 -596.9,-1148.9 -1464.4,-1540.8 124.9,-165.8 326.1,-510.8 413.7,-1090.5 521.1,387.8 970.9,1035.5 1186.9,2097.7 0,0 164.5,-89.4 369.6,10.2 108.4,52.7 233.5,127.3 327.5,186.1 93.6,58.5 163.3,149.4 190.4,255.6 35.8,140.3 14.7,263.7 14.7,396 l 422.5,130.9 c 0,0 127,47.9 84.6,191.7"
             style="fill:url(#linearGradient396);fill-opacity:1;fill-rule:nonzero;stroke:none"
             id="path398" /></g></g><g
         id="g400"><g
           id="g402"
           clip-path="url(#clipPath406)"><path
             d="m 18298.8,18088.6 c -87.6,579.7 -288.8,924.7 -413.7,1090.5 -539,-243.5 -1240,-321.3 -2132.8,-12 -82.2,28.5 -168.1,45.2 -255.1,50.3 -475.3,27.9 -2041.4,78.7 -3337.3,-349.4 -272.7,-90.1 -493.6,-291.7 -607.4,-553 -350.6,-804.5 -918.1,-2636.5 657.4,-3561.5 121.1,300.6 260.8,542.1 380.3,719.6 -253.8,428 -328.9,1012.5 121.3,1773.7 328.4,-886.5 482.4,-2180 514.6,-2752.5 10.6,-188.5 -22.5,-376.6 -96.4,-550.6 l -8.1,-19 c -15.8,-37.2 5.9,-80 45.8,-88.9 886.9,-199.3 1809.5,-145.2 2085.1,-122.4 49.2,4.1 90.1,39.3 101.4,86.8 431.3,1817.4 432.3,3057.1 326.7,3840.8 403.4,-90.2 1637.2,-282.6 2618.2,447.6"
             style="fill:url(#linearGradient412);fill-opacity:1;fill-rule:nonzero;stroke:none"
             id="path414" /></g></g><g
         id="g416"><g
           id="g418"
           clip-path="url(#clipPath422)"><path
             d="m 15682.3,17592.1 c -17.8,0 -33.2,13.2 -35.6,31.3 -101.3,765.2 -307.6,1099.1 -309.7,1102.4 -10.6,16.8 -5.6,39 11.2,49.6 16.7,10.6 39,5.7 49.6,-11.1 8.8,-13.8 216.5,-348.2 320.2,-1131.5 2.6,-19.7 -11.3,-37.8 -30.9,-40.4 -1.7,-0.2 -3.2,-0.3 -4.8,-0.3"
             style="fill:url(#linearGradient428);fill-opacity:1;fill-rule:nonzero;stroke:none"
             id="path430" /></g></g><g
         id="g432"><g
           id="g434"
           clip-path="url(#clipPath438)"><path
             d="m 13493.4,20276.1 c 0,0 -89.8,-948.7 -168.8,-1229.4 -11.9,-42.5 6.5,-87.4 45.2,-109.5 134.1,-76.7 455.7,-201.6 895.6,14 71.3,34.9 114.1,109.2 110.8,187.8 l -38.7,916.8 -844.1,220.3"
             style="fill:url(#linearGradient444);fill-opacity:1;fill-rule:nonzero;stroke:none"
             id="path446" /></g></g><g
         id="g448"><g
           id="g450"
           clip-path="url(#clipPath454)"><path
             d="m 14356.8,21489.9 c 0,0 287,-659.3 306.3,-1005.4 19.2,-346 93.8,-570.5 -306.3,-640.2 -400.1,-69.7 -737.2,129.6 -919.8,474.3 0,0 -286.1,531.1 -221.9,748.7 64.2,217.5 1141.7,422.6 1141.7,422.6"
             style="fill:url(#linearGradient460);fill-opacity:1;fill-rule:nonzero;stroke:none"
             id="path462" /></g></g><g
         id="g464"><g
           id="g466"
           clip-path="url(#clipPath470)"><path
             d="m 13573.8,20566.4 22.7,10.1 c 29,12.8 41.4,47.3 26.9,75.4 -56.4,109 -166.4,358.8 -24.3,417.1 183.1,75.1 908.4,223 1064.9,480.4 150.4,247.4 17.2,566.7 -183.1,657.5 -13.4,6.1 -29.2,1.3 -36.1,-11.7 l -16.7,-31.6 c -11.4,-21.6 -43.3,-18.4 -50.1,5.1 -6.6,22.6 -36.6,27 -49,7 -48.1,-77 -178,-201.8 -525.3,-265.9 -493.6,-91.1 -819.9,-290.8 -828.1,-631.9 -0.5,-21.7 -23.5,-33.7 -42,-22.5 -36.5,22.2 -94.8,32.7 -172.8,-32.9 -135.5,-114 -80,-409.6 217.1,-652.9 14.1,-11.5 14,-33.6 -1.3,-43.5 -53.8,-35.1 -134.1,-118.5 74,-229.8 215.2,-115 375.9,-105.6 437.8,-95.4 15.4,2.6 25.3,17.5 22,32.7 l -66.1,299.8 c -3.7,17 9.2,33 26.6,33 h 102.9"
             style="fill:url(#linearGradient476);fill-opacity:1;fill-rule:nonzero;stroke:none"
             id="path478" /></g></g><g
         id="g480"><g
           id="g482"
           clip-path="url(#clipPath486)"><path
             d="m 13586.2,20503.2 c 0,0 -109.5,421.1 -298.3,303 -188.8,-118 98,-471.8 249.8,-487.6 l 48.5,184.6"
             style="fill:url(#linearGradient492);fill-opacity:1;fill-rule:nonzero;stroke:none"
             id="path494" /></g></g><path
         d="m 19704.9,20284.3 c -8,0 -16,2.6 -22.7,8 -15.4,12.5 -17.7,35.2 -5.2,50.6 31.1,38.3 307,375.5 413.2,435.5 38.7,21.9 61.7,44.5 66.6,65.3 2.4,9.9 0.8,21.1 -4.8,33.8 l -324.1,-64.9 -183.6,-157.6 c -15,-12.9 -37.8,-11.2 -50.7,3.9 -13,15.1 -11.2,37.8 3.9,50.7 l 190.7,163.7 c 4.7,4 10.3,6.8 16.3,8 l 358.8,71.9 c 14.4,2.9 28.9,-3.2 37,-15.2 26.3,-39 35,-75.3 26.6,-110.8 -10,-42.1 -43.1,-78.5 -101.3,-111.4 -79.9,-45.2 -310.6,-317.2 -392.8,-418.3 -7,-8.7 -17.4,-13.2 -27.9,-13.2"
         style="fill:#f8a570;fill-opacity:1;fill-rule:nonzero;stroke:none"
         id="path496" /><g
         id="g498"><g
           id="g500"
           clip-path="url(#clipPath504)"><path
             d="m 13572.3,14297.6 1268.5,-15.7 -443.9,417.9 c -110.4,103.9 -278.8,120.7 -406.2,38.1 -74.6,-48.4 -155.5,-114.1 -225.6,-201 0,0 -791.3,289.2 -1174.9,936.2 -119.5,-177.5 -259.2,-419 -380.3,-719.6 343.9,-201.9 789.7,-360.6 1362.4,-455.9"
             style="fill:url(#linearGradient510);fill-opacity:1;fill-rule:nonzero;stroke:none"
             id="path512" /></g></g><g
         id="g514"><g
           id="g516"
           clip-path="url(#clipPath520)"><path
             d="m 13708.9,14134 c 2.5,-0.2 5,-0.2 7.4,-0.2 l 3220.2,3.5 c 79.6,0 144.1,63.9 144,142.7 -0.1,78.8 -64.9,143.9 -144.3,142.5 L 13716,14419 c -79.6,-0.1 -144,-64 -144,-142.8 0.1,-76.3 60.8,-138.5 136.9,-142.2"
             style="fill:url(#linearGradient526);fill-opacity:1;fill-rule:nonzero;stroke:none"
             id="path528" /></g></g><g
         id="g530"><g
           id="g532"
           clip-path="url(#clipPath536)"><path
             d="m 19831.3,17026.8 h -2681.8 c -197.8,0 -377.9,-113 -462.3,-290 l -1239.7,-2601.1 h 3332.7 c 127.5,0 242,77 288.9,194.3 l 961.4,2407 c 55.5,139.1 -48.1,289.8 -199.2,289.8"
             style="fill:url(#linearGradient542);fill-opacity:1;fill-rule:nonzero;stroke:none"
             id="path544" /></g></g><path
         d="m 17942,15693.1 c -58.2,-178.6 -15.2,-352.1 95.8,-387.5 111.1,-35.4 248.3,80.8 306.4,259.4 58.1,178.7 15.2,352.2 -95.9,387.5 -111.1,35.4 -248.2,-80.7 -306.3,-259.4"
         style="fill:#91b3fa;fill-opacity:1;fill-rule:nonzero;stroke:none"
         id="path546" /></g></g></svg>
