<svg id="Capa_1" enable-background="new 0 0 512 512" height="512" viewBox="0 0 512 512" width="512" xmlns="http://www.w3.org/2000/svg" xmlns:xlink="http://www.w3.org/1999/xlink"><linearGradient id="SVGID_1_" gradientUnits="userSpaceOnUse" x1="256" x2="256" y1="512" y2="0"><stop offset="0" stop-color="#addcff"/><stop offset=".5028" stop-color="#eaf6ff"/><stop offset="1" stop-color="#eaf6ff"/></linearGradient><linearGradient id="SVGID_2_" gradientUnits="userSpaceOnUse" x1="256" x2="256" y1="389.5" y2="122.5"><stop offset="0" stop-color="#00c0ff"/><stop offset="1" stop-color="#5558ff"/></linearGradient><g><g><circle cx="256" cy="256" fill="url(#SVGID_1_)" r="256"/></g><g><g><path d="m362.588 122.5h-213.176c-24.496 0-44.412 19.964-44.412 44.5v142.4c0 24.536 19.916 44.5 44.412 44.5h26.647v26.7c0 3.285 1.804 6.301 4.684 7.848 2.871 1.533 6.359 1.394 9.125-.443l51.056-34.105h121.664c24.496 0 44.412-19.964 44.412-44.5v-142.4c0-24.536-19.916-44.5-44.412-44.5zm-213.176 53.4h88.824c4.91 0 8.882 3.981 8.882 8.9s-3.973 8.9-8.882 8.9h-88.824c-4.91 0-8.882-3.981-8.882-8.9s3.972-8.9 8.882-8.9zm213.176 124.6h-213.176c-4.91 0-8.882-3.981-8.882-8.9s3.973-8.9 8.882-8.9h213.177c4.91 0 8.882 3.981 8.882 8.9s-3.973 8.9-8.883 8.9zm0-35.6h-213.176c-4.91 0-8.882-3.981-8.882-8.9s3.973-8.9 8.882-8.9h213.177c4.91 0 8.882 3.981 8.882 8.9s-3.973 8.9-8.883 8.9zm0-35.6h-213.176c-4.91 0-8.882-3.981-8.882-8.9s3.973-8.9 8.882-8.9h213.177c4.91 0 8.882 3.981 8.882 8.9s-3.973 8.9-8.883 8.9z" fill="url(#SVGID_2_)"/></g></g></g></svg>