<svg id="Capa_1" enable-background="new 0 0 512 512" height="512" viewBox="0 0 512 512" width="512" xmlns="http://www.w3.org/2000/svg" xmlns:xlink="http://www.w3.org/1999/xlink"><linearGradient id="SVGID_1_" gradientUnits="userSpaceOnUse" x1="256" x2="256" y1="512" y2="0"><stop offset="0" stop-color="#ffe59a"/><stop offset="1" stop-color="#ffffd5"/></linearGradient><linearGradient id="SVGID_2_" gradientUnits="userSpaceOnUse" x1="256" x2="256" y1="389.002" y2="123"><stop offset="0" stop-color="#ffde00"/><stop offset="1" stop-color="#fd5900"/></linearGradient><g><g><circle cx="256" cy="256" fill="url(#SVGID_1_)" r="256"/></g><g><g><path d="m380.353 123h-142.118c-14.694 0-26.647 11.932-26.647 26.6v106.4c0 14.668 11.953 26.6 26.647 26.6h85.146l32.927 32.869c2.595 2.59 6.468 3.271 9.68 1.922 3.313-1.368 5.482-4.607 5.482-8.191v-26.6h8.882c14.695 0 26.648-11.932 26.648-26.6v-106.4c0-14.668-11.953-26.6-26.647-26.6zm-124.353 35.467h35.529c4.91 0 8.882 3.966 8.882 8.867s-3.973 8.867-8.882 8.867h-35.529c-4.91 0-8.882-3.966-8.882-8.867 0-4.902 3.972-8.867 8.882-8.867zm106.588 88.666h-106.588c-4.91 0-8.882-3.966-8.882-8.867s3.973-8.867 8.882-8.867h106.588c4.91 0 8.882 3.966 8.882 8.867.001 4.902-3.972 8.867-8.882 8.867zm0-35.466h-106.588c-4.91 0-8.882-3.966-8.882-8.867s3.973-8.867 8.882-8.867h106.588c4.91 0 8.882 3.966 8.882 8.867.001 4.901-3.972 8.867-8.882 8.867zm-168.764 44.333v-62.067h-62.177c-14.694 0-26.647 11.932-26.647 26.6v106.4c0 14.668 11.953 26.6 26.647 26.6h8.882v26.6c0 3.585 2.169 6.823 5.482 8.191 3.21 1.348 7.083.671 9.68-1.922l32.927-32.869h85.146c14.694 0 26.647-11.932 26.647-26.6v-26.6h-62.176c-24.496 0-44.411-19.889-44.411-44.333z" fill="url(#SVGID_2_)"/></g></g></g></svg>