<svg id="Capa_1" enable-background="new 0 0 512 512" height="512" viewBox="0 0 512 512" width="512" xmlns="http://www.w3.org/2000/svg" xmlns:xlink="http://www.w3.org/1999/xlink"><linearGradient id="SVGID_1_" gradientUnits="userSpaceOnUse" x1="256" x2="256" y1="512" y2="0"><stop offset="0" stop-color="#c3ffe8"/><stop offset=".9973" stop-color="#f0fff4"/></linearGradient><linearGradient id="SVGID_2_" gradientUnits="userSpaceOnUse" x1="256" x2="256" y1="389" y2="123"><stop offset="0" stop-color="#9cffac"/><stop offset="1" stop-color="#00b59c"/></linearGradient><g><g><circle cx="256" cy="256" fill="url(#SVGID_1_)" r="256"/></g><g><g><path d="m394.161 269.118c8.414-14.781 12.838-31.484 12.838-48.585 0-53.78-43.839-97.533-97.705-97.533-54.245 0-97.705 43.667-97.705 97.533 0 45.476 32.216 85.506 76.54 95.178 23.021 5.299 48.818 1.472 69.827-10.469l37.368 12.374c3.191 1.052 6.678.231 9.073-2.147 2.377-2.372 3.209-5.879 2.151-9.057zm-120.396-39.718c-4.905 0-8.882-3.97-8.882-8.867 0-4.898 3.977-8.867 8.882-8.867s8.882 3.969 8.882 8.867c0 4.897-3.977 8.867-8.882 8.867zm35.529 0c-4.905 0-8.882-3.97-8.882-8.867 0-4.898 3.977-8.867 8.882-8.867s8.882 3.969 8.882 8.867c0 4.897-3.977 8.867-8.882 8.867zm35.529 0c-4.905 0-8.882-3.97-8.882-8.867 0-4.898 3.977-8.867 8.882-8.867s8.882 3.969 8.882 8.867c0 4.897-3.977 8.867-8.882 8.867zm-147.52-35.194c-51.349 2.826-92.302 45.301-92.302 97.261 0 17.101 4.424 33.804 12.838 48.585l-12.387 37.294c-1.058 3.178-.226 6.685 2.151 9.057 2.394 2.377 5.88 3.2 9.073 2.147l37.368-12.374c14.781 8.399 31.522 12.824 48.662 12.824 38.131 0 71.457-22.119 87.483-54.98-64.393-10.95-108.546-72.92-92.886-139.814z" fill="url(#SVGID_2_)"/></g></g></g></svg>