<svg id="Capa_1" enable-background="new 0 0 512 512" height="512" viewBox="0 0 512 512" width="512" xmlns="http://www.w3.org/2000/svg" xmlns:xlink="http://www.w3.org/1999/xlink"><linearGradient id="SVGID_1_" gradientUnits="userSpaceOnUse" x1="256" x2="256" y1="512" y2="0"><stop offset="0" stop-color="#ffbef9"/><stop offset="1" stop-color="#fff1ff"/></linearGradient><linearGradient id="SVGID_2_" gradientUnits="userSpaceOnUse" x1="256" x2="256" y1="389.002" y2="123"><stop offset="0" stop-color="#ff81ff"/><stop offset="1" stop-color="#a93aff"/></linearGradient><g><g><circle cx="256" cy="256" fill="url(#SVGID_1_)" r="256"/></g><g><g><path d="m398.118 123h-177.647c-4.91 0-8.882 3.966-8.882 8.867v141.867c0 4.901 3.973 8.867 8.882 8.867h102.91l32.927 32.869c2.595 2.59 6.468 3.271 9.68 1.922 3.313-1.368 5.482-4.607 5.482-8.191v-26.6h26.647c4.91 0 8.882-3.966 8.882-8.867v-141.867c.001-4.901-3.972-8.867-8.881-8.867zm-124.353 88.667c-4.905 0-8.882-3.97-8.882-8.867 0-4.898 3.977-8.867 8.882-8.867s8.882 3.969 8.882 8.867c0 4.897-3.977 8.867-8.882 8.867zm35.529 0c-4.905 0-8.883-3.97-8.883-8.867 0-4.898 3.977-8.867 8.883-8.867 4.905 0 8.882 3.969 8.882 8.867.001 4.897-3.977 8.867-8.882 8.867zm35.529 0c-4.905 0-8.882-3.97-8.882-8.867 0-4.898 3.977-8.867 8.882-8.867s8.882 3.969 8.882 8.867c.001 4.897-3.976 8.867-8.882 8.867zm-151 62.066v-79.8h-79.941c-4.91 0-8.882 3.966-8.882 8.867v141.867c0 4.901 3.973 8.867 8.882 8.867h26.647v26.6c0 3.585 2.169 6.823 5.482 8.191 3.21 1.348 7.083.671 9.68-1.922l32.927-32.869h102.91c4.91 0 8.882-3.966 8.882-8.867v-44.333h-79.941c-14.692-.001-26.646-11.933-26.646-26.601z" fill="url(#SVGID_2_)"/></g></g></g></svg>