<svg id="Capa_1" enable-background="new 0 0 512 512" height="512" viewBox="0 0 512 512" width="512" xmlns="http://www.w3.org/2000/svg" xmlns:xlink="http://www.w3.org/1999/xlink"><linearGradient id="SVGID_1_" gradientUnits="userSpaceOnUse" x1="256" x2="256" y1="512" y2="0"><stop offset="0" stop-color="#c3ffe8"/><stop offset=".9973" stop-color="#f0fff4"/></linearGradient><linearGradient id="SVGID_2_" gradientUnits="userSpaceOnUse" x1="256" x2="256" y1="389.5" y2="122.5"><stop offset="0" stop-color="#9cffac"/><stop offset="1" stop-color="#00b59c"/></linearGradient><g><g><circle cx="256" cy="256" fill="url(#SVGID_1_)" r="256"/></g><g><g><path d="m309.294 193.7h-17.765c-4.892 0-8.882 3.989-8.882 8.9v17.8c0 4.911 3.99 8.9 8.882 8.9h17.765c4.892 0 8.882-3.989 8.882-8.9v-17.8c.001-4.911-3.99-8.9-8.882-8.9zm-88.823 0h-17.765c-4.892 0-8.882 3.989-8.882 8.9v17.8c0 4.911 3.99 8.9 8.882 8.9h17.765c4.892 0 8.882-3.989 8.882-8.9v-17.8c0-4.911-3.99-8.9-8.882-8.9zm71.058-71.2h-71.059c-63.668 0-115.47 51.905-115.47 115.7 0 60.805 47.049 110.798 106.588 115.361v27.039c0 3.285 1.804 6.301 4.684 7.848 2.871 1.533 6.359 1.394 9.125-.443l51.056-34.105h15.076c63.669 0 115.471-51.905 115.471-115.7s-51.802-115.7-115.471-115.7zm-44.411 115.7c0 34.348-27.896 62.3-62.177 62.3-4.909 0-8.882-3.981-8.882-8.9s3.973-8.9 8.882-8.9c21.934 0 40.075-16.043 43.656-37.005-2.578.835-5.275 1.405-8.126 1.405h-17.765c-14.694 0-26.647-11.977-26.647-26.7v-17.8c0-14.723 11.953-26.7 26.647-26.7h17.765c14.694 0 26.647 11.977 26.647 26.7zm88.823 0c0 34.348-27.896 62.3-62.177 62.3-4.91 0-8.882-3.981-8.882-8.9s3.973-8.9 8.882-8.9c21.934 0 40.075-16.043 43.656-37.005-2.578.835-5.275 1.405-8.126 1.405h-17.765c-14.694 0-26.647-11.977-26.647-26.7v-17.8c0-14.723 11.953-26.7 26.647-26.7h17.765c14.694 0 26.647 11.977 26.647 26.7z" fill="url(#SVGID_2_)"/></g></g></g></svg>