<svg id="Capa_1" enable-background="new 0 0 512 512" height="512" viewBox="0 0 512 512" width="512" xmlns="http://www.w3.org/2000/svg" xmlns:xlink="http://www.w3.org/1999/xlink"><linearGradient id="SVGID_1_" gradientUnits="userSpaceOnUse" x1="256" x2="256" y1="512" y2="0"><stop offset="0" stop-color="#c3ffe8"/><stop offset=".9973" stop-color="#f0fff4"/></linearGradient><linearGradient id="SVGID_2_" gradientUnits="userSpaceOnUse" x1="256" x2="256" y1="407" y2="105"><stop offset="0" stop-color="#9cffac"/><stop offset="1" stop-color="#00b59c"/></linearGradient><g><g><circle cx="256" cy="256" fill="url(#SVGID_1_)" r="256"/></g><g><g><path d="m211.588 300.412c0-19.595-15.943-35.529-35.529-35.529s-35.529 15.934-35.529 35.529 15.943 35.529 35.529 35.529 35.529-15.934 35.529-35.529zm-35.529 35.529c-29.388 0-53.294 23.906-53.294 53.294v8.882c0 4.91 3.973 8.882 8.882 8.882h88.824c4.91 0 8.882-3.973 8.882-8.882v-8.882c0-29.388-23.906-53.294-53.294-53.294zm195.412-35.529c0-19.595-15.943-35.529-35.529-35.529s-35.529 15.934-35.529 35.529 15.943 35.529 35.529 35.529c19.585 0 35.529-15.934 35.529-35.529zm-35.53 35.529c-29.388 0-53.294 23.906-53.294 53.294v8.882c0 4.91 3.973 8.882 8.882 8.882h88.824c4.91 0 8.882-3.973 8.882-8.882v-8.882c0-29.388-23.906-53.294-53.294-53.294zm62.177-230.941h-124.353c-4.91 0-8.882 3.973-8.882 8.882v106.588c0 4.91 3.973 8.882 8.882 8.882h35.529v8.882c0 3.079 1.596 5.933 4.216 7.555 2.621 1.63 5.907 1.757 8.639.39l33.656-16.828h42.313c4.91 0 8.882-3.973 8.882-8.882v-106.587c0-4.909-3.973-8.882-8.882-8.882zm-79.942 71.059c-4.905 0-8.882-3.977-8.882-8.882 0-4.906 3.977-8.882 8.882-8.882s8.882 3.976 8.882 8.882c.001 4.905-3.976 8.882-8.882 8.882zm35.53 0c-4.905 0-8.882-3.977-8.882-8.882 0-4.906 3.977-8.882 8.882-8.882s8.882 3.976 8.882 8.882c0 4.905-3.977 8.882-8.882 8.882zm-115.471-71.059h-124.353c-4.91 0-8.882 3.973-8.882 8.882v106.588c0 4.91 3.973 8.882 8.882 8.882h24.548l33.656 16.828c2.725 1.363 6.012 1.244 8.639-.39 2.62-1.622 4.216-4.476 4.216-7.555v-8.882h53.294c4.91 0 8.882-3.973 8.882-8.882v-106.589c.001-4.909-3.972-8.882-8.882-8.882zm-79.941 71.059c-4.905 0-8.882-3.977-8.882-8.882 0-4.906 3.977-8.882 8.882-8.882s8.882 3.976 8.882 8.882c0 4.905-3.977 8.882-8.882 8.882zm35.53 0c-4.905 0-8.882-3.977-8.882-8.882 0-4.906 3.977-8.882 8.882-8.882s8.882 3.976 8.882 8.882c0 4.905-3.977 8.882-8.882 8.882z" fill="url(#SVGID_2_)"/></g></g></g></svg>