<svg id="Capa_1" enable-background="new 0 0 512 512" height="512" viewBox="0 0 512 512" width="512" xmlns="http://www.w3.org/2000/svg" xmlns:xlink="http://www.w3.org/1999/xlink"><linearGradient id="SVGID_1_" gradientUnits="userSpaceOnUse" x1="256" x2="256" y1="512" y2="0"><stop offset="0" stop-color="#ffbef9"/><stop offset="1" stop-color="#fff1ff"/></linearGradient><linearGradient id="SVGID_2_" gradientUnits="userSpaceOnUse" x1="256" x2="256" y1="407" y2="105"><stop offset="0" stop-color="#ff81ff"/><stop offset="1" stop-color="#a93aff"/></linearGradient><g><g><circle cx="256" cy="256" fill="url(#SVGID_1_)" r="256"/></g><g><g><path d="m229.353 300.412c0-19.595-15.943-35.529-35.529-35.529s-35.529 15.934-35.529 35.529 15.943 35.529 35.529 35.529 35.529-15.934 35.529-35.529zm-35.529 35.529c-29.388 0-53.294 23.906-53.294 53.294v8.882c0 4.91 3.973 8.882 8.882 8.882h88.824c4.91 0 8.882-3.973 8.882-8.882v-8.882c0-29.388-23.906-53.294-53.294-53.294zm159.882-35.529c0-19.595-15.943-35.529-35.529-35.529s-35.529 15.934-35.529 35.529 15.943 35.529 35.529 35.529 35.529-15.934 35.529-35.529zm-35.53 35.529c-29.388 0-53.294 23.906-53.294 53.294v8.882c0 4.91 3.973 8.882 8.882 8.882h88.824c4.91 0 8.882-3.973 8.882-8.882v-8.882c.001-29.388-23.905-53.294-53.294-53.294zm79.942-230.941h-284.236c-4.91 0-8.882 3.973-8.882 8.882v106.588c0 4.91 3.973 8.882 8.882 8.882h58.499l15.162 15.162c3.47 3.47 9.091 3.47 12.56 0l15.162-15.162h81.468l15.162 15.162c3.47 3.47 9.09 3.47 12.56 0l15.162-15.162h58.499c4.91 0 8.882-3.973 8.882-8.882v-106.588c.002-4.909-3.971-8.882-8.88-8.882zm-230.942 71.059c-4.905 0-8.882-3.977-8.882-8.882 0-4.906 3.977-8.882 8.882-8.882s8.882 3.976 8.882 8.882c.001 4.905-3.976 8.882-8.882 8.882zm35.53 0c-4.905 0-8.882-3.977-8.882-8.882 0-4.906 3.977-8.882 8.882-8.882s8.882 3.976 8.882 8.882c0 4.905-3.977 8.882-8.882 8.882zm35.529 0c-4.905 0-8.882-3.977-8.882-8.882 0-4.906 3.977-8.882 8.882-8.882s8.882 3.976 8.882 8.882c.001 4.905-3.976 8.882-8.882 8.882zm35.53 0c-4.905 0-8.882-3.977-8.882-8.882 0-4.906 3.977-8.882 8.882-8.882s8.882 3.976 8.882 8.882c0 4.905-3.977 8.882-8.882 8.882zm35.529 0c-4.905 0-8.882-3.977-8.882-8.882 0-4.906 3.977-8.882 8.882-8.882s8.882 3.976 8.882 8.882c0 4.905-3.977 8.882-8.882 8.882zm35.53 0c-4.905 0-8.882-3.977-8.882-8.882 0-4.906 3.977-8.882 8.882-8.882s8.882 3.976 8.882 8.882c0 4.905-3.977 8.882-8.882 8.882z" fill="url(#SVGID_2_)"/></g></g></g></svg>