<svg id="Capa_1" enable-background="new 0 0 512 512" height="512" viewBox="0 0 512 512" width="512" xmlns="http://www.w3.org/2000/svg" xmlns:xlink="http://www.w3.org/1999/xlink"><linearGradient id="SVGID_1_" gradientUnits="userSpaceOnUse" x1="256" x2="256" y1="512" y2="0"><stop offset="0" stop-color="#addcff"/><stop offset=".5028" stop-color="#eaf6ff"/><stop offset="1" stop-color="#eaf6ff"/></linearGradient><linearGradient id="SVGID_2_" gradientUnits="userSpaceOnUse" x1="256" x2="256" y1="407" y2="105"><stop offset="0" stop-color="#00c0ff"/><stop offset="1" stop-color="#5558ff"/></linearGradient><g><g><circle cx="256" cy="256" fill="url(#SVGID_1_)" r="256"/></g><g><g><path d="m184.941 318.176c-44.082 0-79.941 35.859-79.941 79.941 0 4.91 3.973 8.882 8.882 8.882h142.118c4.91 0 8.882-3.973 8.882-8.882 0-44.082-35.859-79.941-79.941-79.941zm44.412-44.411c0-24.487-19.916-44.412-44.412-44.412s-44.412 19.925-44.412 44.412 19.916 44.412 44.412 44.412 44.412-19.925 44.412-44.412zm97.706-168.765c-44.082 0-79.941 35.859-79.941 79.941 0 13.74 3.522 27.141 10.201 39.042l-9.75 29.206c-1.058 3.192-.225 6.714 2.151 9.091 2.435 2.447 6.018 3.186 9.09 2.143l29.215-9.732c11.884 6.679 25.294 10.192 39.034 10.192 44.082 0 79.941-35.859 79.941-79.941s-35.859-79.942-79.941-79.942zm-35.53 88.823c-4.905 0-8.882-3.977-8.882-8.882 0-4.906 3.977-8.882 8.882-8.882s8.882 3.976 8.882 8.882c.001 4.905-3.976 8.882-8.882 8.882zm35.53 0c-4.905 0-8.882-3.977-8.882-8.882 0-4.906 3.977-8.882 8.882-8.882s8.882 3.976 8.882 8.882c0 4.905-3.977 8.882-8.882 8.882zm35.529 0c-4.905 0-8.882-3.977-8.882-8.882 0-4.906 3.977-8.882 8.882-8.882s8.882 3.976 8.882 8.882c.001 4.905-3.977 8.882-8.882 8.882z" fill="url(#SVGID_2_)"/></g></g></g></svg>