<svg id="Capa_1" enable-background="new 0 0 512 512" height="512" viewBox="0 0 512 512" width="512" xmlns="http://www.w3.org/2000/svg" xmlns:xlink="http://www.w3.org/1999/xlink"><linearGradient id="SVGID_1_" gradientUnits="userSpaceOnUse" x1="256" x2="256" y1="512" y2="0"><stop offset="0" stop-color="#ffc2cc"/><stop offset="1" stop-color="#fff2f4"/></linearGradient><linearGradient id="SVGID_2_" gradientUnits="userSpaceOnUse" x1="256" x2="256" y1="407" y2="105"><stop offset="0" stop-color="#ffa68d"/><stop offset="1" stop-color="#fd3a84"/></linearGradient><g><g><circle cx="256" cy="256" fill="url(#SVGID_1_)" r="256"/></g><g><g><path d="m122.875 140.529c-4.97 0-8.875 3.908-8.875 8.882s3.905 8.882 8.875 8.882h8.875v-17.765h-8.875zm0 71.059c-4.97 0-8.875 3.908-8.875 8.882s3.905 8.882 8.875 8.882h8.875v-17.765h-8.875zm0 71.059c-4.97 0-8.875 3.908-8.875 8.882s3.905 8.882 8.875 8.882h8.875v-17.765h-8.875zm0 71.059c-4.97 0-8.875 3.908-8.875 8.882s3.905 8.882 8.875 8.882h8.875v-17.765h-8.875zm124.25-151c-9.794 0-17.75 7.972-17.75 17.765s7.956 17.765 17.75 17.765 17.75-7.972 17.75-17.765-7.956-17.765-17.75-17.765zm0 71.059c-19.57 0-35.5 15.934-35.5 35.529h71c0-19.595-15.93-35.529-35.5-35.529zm88.75-168.765h-177.5c-14.733 0-26.625 11.902-26.625 26.647v8.882h26.625c4.97 0 8.875 3.908 8.875 8.882s-3.905 8.882-8.875 8.882h-26.625v53.294h26.625c4.97 0 8.875 3.908 8.875 8.882s-3.905 8.882-8.875 8.882h-26.625v53.294h26.625c4.97 0 8.875 3.908 8.875 8.882s-3.905 8.882-8.875 8.882h-26.625v53.294h26.625c4.97 0 8.875 3.908 8.875 8.882s-3.905 8.882-8.875 8.882h-26.625v8.882c0 14.744 11.892 26.647 26.625 26.647h177.5c14.733 0 26.625-11.903 26.625-26.647v-248.702c0-14.745-11.892-26.647-26.625-26.647zm-35.5 213.176c0 4.91-3.969 8.882-8.875 8.882h-88.75c-4.906 0-8.875-3.973-8.875-8.882v-8.882c0-29.388 23.886-53.294 53.25-53.294-19.57 0-35.5-15.934-35.5-35.529s15.93-35.529 35.5-35.529 35.5 15.934 35.5 35.529-15.93 35.529-35.5 35.529c29.364 0 53.25 23.906 53.25 53.294zm88.75-177.647h-8.875v88.823h8.875c4.906 0 8.875-3.973 8.875-8.882v-71.059c0-4.909-3.969-8.882-8.875-8.882z" fill="url(#SVGID_2_)"/></g></g></g></svg>