<svg id="Capa_1" enable-background="new 0 0 512 512" height="512" viewBox="0 0 512 512" width="512" xmlns="http://www.w3.org/2000/svg" xmlns:xlink="http://www.w3.org/1999/xlink"><linearGradient id="SVGID_1_" gradientUnits="userSpaceOnUse" x1="256" x2="256" y1="512" y2="0"><stop offset="0" stop-color="#ffe59a"/><stop offset="1" stop-color="#ffffd5"/></linearGradient><linearGradient id="SVGID_2_" gradientUnits="userSpaceOnUse" x1="256" x2="256" y1="407" y2="105"><stop offset="0" stop-color="#ffde00"/><stop offset="1" stop-color="#fd5900"/></linearGradient><g><g><circle cx="256" cy="256" fill="url(#SVGID_1_)" r="256"/></g><g><g><path d="m300.333 158.294h44.333c3.065 0 5.923-1.596 7.551-4.216 1.61-2.62 1.749-5.89.381-8.639l-6.892-13.792 6.892-13.792c1.368-2.75 1.229-6.02-.381-8.639-1.628-2.62-4.485-4.216-7.551-4.216h-53.2c-4.901 0-8.867 3.973-8.867 8.882v62.177h17.733v-17.765zm-70.933 71.059c0-29.388-23.864-53.294-53.2-53.294s-53.2 23.906-53.2 53.294v79.941c0 4.91 3.966 8.882 8.867 8.882h88.667c4.901 0 8.867-3.973 8.867-8.882v-79.941zm-44.333 53.294h-17.733c-4.901 0-8.866-3.973-8.866-8.882 0-4.91 3.966-8.882 8.866-8.882h17.733c4.901 0 8.867 3.973 8.867 8.882-.001 4.909-3.966 8.882-8.867 8.882zm141.866-106.588h-26.6v44.412c0 4.974-3.901 8.882-8.866 8.882-4.966 0-8.867-3.909-8.867-8.882v-44.412h-59.939c14.896 12.968 24.472 31.976 24.472 53.294v88.824h133c4.966 0 8.867-3.909 8.867-8.882v-71.059c0-34.286-27.842-62.177-62.067-62.177zm-97.533 222.059c0 4.91 3.966 8.882 8.867 8.882h35.467c4.901 0 8.867-3.973 8.867-8.882v-62.177h-53.2v62.177z" fill="url(#SVGID_2_)"/></g></g></g></svg>