<svg id="Capa_1" enable-background="new 0 0 512 512" height="512" viewBox="0 0 512 512" width="512" xmlns="http://www.w3.org/2000/svg" xmlns:xlink="http://www.w3.org/1999/xlink"><linearGradient id="SVGID_1_" gradientUnits="userSpaceOnUse" x1="256" x2="256" y1="512" y2="0"><stop offset="0" stop-color="#ffc2cc"/><stop offset="1" stop-color="#fff2f4"/></linearGradient><linearGradient id="SVGID_2_" gradientUnits="userSpaceOnUse" x1="256" x2="256" y1="407" y2="105"><stop offset="0" stop-color="#ffa68d"/><stop offset="1" stop-color="#fd3a84"/></linearGradient><g><g><circle cx="256" cy="256" fill="url(#SVGID_1_)" r="256"/></g><g><g><path d="m380.353 105h-71.059c-14.694 0-26.647 11.953-26.647 26.647v159.882c0 14.694 11.953 26.647 26.647 26.647h71.059c14.694 0 26.647-11.953 26.647-26.647v-159.882c0-14.694-11.953-26.647-26.647-26.647zm-35.529 35.529c4.905 0 8.882 3.976 8.882 8.882 0 4.905-3.977 8.882-8.882 8.882s-8.882-3.977-8.882-8.882c-.001-4.906 3.976-8.882 8.882-8.882zm8.882 142.118h-17.765c-4.91 0-8.882-3.973-8.882-8.882 0-4.91 3.973-8.882 8.882-8.882h17.765c4.91 0 8.882 3.973 8.882 8.882s-3.973 8.882-8.882 8.882zm-192.821-109.201c3.413 3.421 9.069 3.523 12.582 0l17.754-17.754c3.47-3.47 3.47-9.091 0-12.56-3.47-3.47-9.091-3.47-12.56 0l-2.602 2.602v-14.087c0-4.901 3.99-8.882 8.882-8.882h71.059c4.91 0 8.882-3.973 8.882-8.882 0-4.91-3.973-8.882-8.882-8.882h-71.059c-14.694 0-26.647 11.953-26.647 26.647v14.087l-2.602-2.602c-3.47-3.47-9.091-3.47-12.56 0-3.47 3.47-3.47 9.091 0 12.56zm41.821 20.377h-71.059c-14.694 0-26.647 11.953-26.647 26.647v159.882c0 14.695 11.953 26.648 26.647 26.648h71.059c14.694 0 26.647-11.953 26.647-26.647v-159.882c0-14.694-11.953-26.648-26.647-26.648zm-35.53 35.53c4.905 0 8.882 3.976 8.882 8.882 0 4.905-3.977 8.882-8.882 8.882s-8.882-3.977-8.882-8.882c0-4.906 3.977-8.882 8.882-8.882zm8.883 142.118h-17.765c-4.91 0-8.882-3.973-8.882-8.882s3.973-8.882 8.882-8.882h17.765c4.91 0 8.882 3.973 8.882 8.882s-3.973 8.882-8.882 8.882zm175.056-32.917c-3.467-3.477-9.136-3.455-12.582 0l-17.754 17.754c-3.47 3.47-3.47 9.091 0 12.56s9.09 3.47 12.56 0l2.602-2.602v14.087c0 4.901-3.99 8.882-8.882 8.882h-71.059c-4.91 0-8.882 3.973-8.882 8.882 0 4.91 3.973 8.882 8.882 8.882h71.059c14.694 0 26.647-11.953 26.647-26.647v-14.087l2.602 2.602c3.47 3.469 9.09 3.47 12.56 0s3.47-9.091 0-12.56z" fill="url(#SVGID_2_)"/></g></g></g></svg>