<svg id="Capa_1" enable-background="new 0 0 512 512" height="512" viewBox="0 0 512 512" width="512" xmlns="http://www.w3.org/2000/svg" xmlns:xlink="http://www.w3.org/1999/xlink"><linearGradient id="SVGID_1_" gradientUnits="userSpaceOnUse" x1="256" x2="256" y1="512" y2="0"><stop offset="0" stop-color="#ffe59a"/><stop offset="1" stop-color="#ffffd5"/></linearGradient><linearGradient id="SVGID_2_" gradientUnits="userSpaceOnUse" x1="256" x2="256" y1="407" y2="105"><stop offset="0" stop-color="#ffde00"/><stop offset="1" stop-color="#fd5900"/></linearGradient><g><g><circle cx="256" cy="256" fill="url(#SVGID_1_)" r="256"/></g><g><g><path d="m380.133 176.059h-141.866c-4.901 0-8.867 3.973-8.867 8.882v106.588c0 4.91 3.966 8.882 8.867 8.882h26.6v26.647c0 3.591 2.165 6.835 5.472 8.206 3.149 1.327 7.031.712 9.663-1.926l32.869-32.927h67.262c4.901 0 8.867-3.973 8.867-8.882v-106.588c0-4.91-3.966-8.882-8.867-8.882zm-106.4 71.059c-4.897 0-8.867-3.977-8.867-8.882 0-4.906 3.97-8.882 8.867-8.882s8.867 3.976 8.867 8.882c0 4.905-3.97 8.882-8.867 8.882zm35.467 0c-4.897 0-8.867-3.977-8.867-8.882 0-4.906 3.97-8.882 8.867-8.882s8.867 3.976 8.867 8.882c0 4.905-3.97 8.882-8.867 8.882zm35.467 0c-4.897 0-8.867-3.977-8.867-8.882 0-4.906 3.97-8.882 8.867-8.882s8.867 3.976 8.867 8.882c-.001 4.905-3.971 8.882-8.867 8.882zm-81.203 104.523c-9.888-4.094-16.331-13.757-16.331-24.583v-8.882h-8.867c-14.668 0-26.6-11.953-26.6-26.647v-106.588c0-14.694 11.932-26.647 26.6-26.647h8.867c-4.897 0-8.867-3.977-8.867-8.882 0-4.906 3.97-8.882 8.867-8.882s8.867 3.976 8.867 8.882c0 4.905-3.97 8.882-8.867 8.882h70.933v-26.647c0-14.694-11.932-26.647-26.6-26.647h-141.866c-14.668 0-26.6 11.953-26.6 26.647v248.706c0 14.694 11.932 26.647 26.6 26.647h141.867c14.668 0 26.6-11.953 26.6-26.647v-60.025l-25.526 25.572c-8.003 8.016-19.606 9.728-29.077 5.741zm-78.397-202.229c0-4.91 3.966-8.882 8.867-8.882h17.733c4.901 0 8.867 3.973 8.867 8.882s-3.966 8.882-8.867 8.882h-17.733c-4.902 0-8.867-3.973-8.867-8.882zm44.333 222.059h-17.733c-4.901 0-8.867-3.973-8.867-8.882s3.966-8.882 8.867-8.882h17.733c4.901 0 8.867 3.973 8.867 8.882s-3.966 8.882-8.867 8.882z" fill="url(#SVGID_2_)"/></g></g></g></svg>