<svg id="Capa_1" enable-background="new 0 0 512 512" height="512" viewBox="0 0 512 512" width="512" xmlns="http://www.w3.org/2000/svg" xmlns:xlink="http://www.w3.org/1999/xlink"><linearGradient id="SVGID_1_" gradientUnits="userSpaceOnUse" x1="256" x2="256" y1="512" y2="0"><stop offset="0" stop-color="#ffe59a"/><stop offset="1" stop-color="#ffffd5"/></linearGradient><linearGradient id="SVGID_2_" gradientUnits="userSpaceOnUse" x1="256" x2="256" y1="407" y2="105"><stop offset="0" stop-color="#ffde00"/><stop offset="1" stop-color="#fd5900"/></linearGradient><g><g><circle cx="256" cy="256" fill="url(#SVGID_1_)" r="256"/></g><g><g><path d="m143.121 262.269c3.529 3.538 9.187 3.404 12.582 0l17.754-17.754c3.47-3.47 3.47-9.091 0-12.56s-9.091-3.47-12.56 0l-2.602 2.602v-49.616c0-4.901 3.99-8.882 8.882-8.882h53.294c4.909 0 8.882-3.973 8.882-8.882 0-4.91-3.973-8.882-8.882-8.882h-53.294c-14.694 0-26.647 11.953-26.647 26.647v49.616l-2.602-2.602c-3.47-3.47-9.091-3.47-12.56 0s-3.47 9.09 0 12.56zm225.758-12.538c-3.468-3.477-9.136-3.455-12.582 0l-17.754 17.754c-3.47 3.47-3.47 9.091 0 12.56 3.469 3.47 9.09 3.47 12.56 0l2.602-2.602v49.616c0 4.901-3.99 8.882-8.882 8.882h-53.294c-4.909 0-8.882 3.973-8.882 8.882 0 4.91 3.973 8.882 8.882 8.882h53.294c14.694 0 26.647-11.953 26.647-26.647v-49.616l2.602 2.602c3.47 3.47 9.091 3.47 12.56 0 3.47-3.47 3.47-9.09 0-12.56zm-115.829 32.916h-136.213l68.104 51.078zm-72.83 69.482c-4.488-2.88-39.782-29.694-75.22-56.163v102.151c0 4.91 3.973 8.882 8.882 8.882h142.118c4.91 0 8.882-3.973 8.882-8.882v-102.148c-28.75 21.472-71.045 53.481-75.22 56.16-3.206 2.064-6.121 2.137-9.442 0zm214.947-247.129h-136.22l68.112 51.078zm-62.782 69.281c-5.175 3.873-10.566.065-10.652 0l-74.615-55.956v102.146c0 4.91 3.973 8.882 8.882 8.882h142.118c4.91 0 8.882-3.973 8.882-8.882v-102.148z" fill="url(#SVGID_2_)"/></g></g></g></svg>