<svg id="Capa_1" enable-background="new 0 0 512 512" height="512" viewBox="0 0 512 512" width="512" xmlns="http://www.w3.org/2000/svg" xmlns:xlink="http://www.w3.org/1999/xlink"><linearGradient id="SVGID_1_" gradientUnits="userSpaceOnUse" x1="256" x2="256" y1="512" y2="0"><stop offset="0" stop-color="#c3ffe8"/><stop offset=".9973" stop-color="#f0fff4"/></linearGradient><linearGradient id="SVGID_2_" gradientUnits="userSpaceOnUse" x1="256" x2="256" y1="407" y2="105"><stop offset="0" stop-color="#9cffac"/><stop offset="1" stop-color="#00b59c"/></linearGradient><g><g><circle cx="256" cy="256" fill="url(#SVGID_1_)" r="256"/></g><g><g><path d="m359.396 247.118h-206.792l103.396 86.143zm-97.704 104.532c-1.648 1.37-3.679 2.056-5.692 2.056s-4.043-.685-5.692-2.056l-109.808-91.482v137.95c0 4.91 3.974 8.882 8.885 8.882h213.23c4.911 0 8.885-3.973 8.885-8.882v-137.95zm92.039-166.709c0-4.91-3.974-8.882-8.885-8.882h-177.692c-4.911 0-8.885 3.973-8.885 8.882v44.412h195.461v-44.412zm-17.77-71.059c0-4.91-3.974-8.882-8.885-8.882h-142.153c-4.911 0-8.885 3.973-8.885 8.882v44.412h159.923z" fill="url(#SVGID_2_)"/></g></g></g></svg>