<svg id="Capa_1" enable-background="new 0 0 512 512" height="512" viewBox="0 0 512 512" width="512" xmlns="http://www.w3.org/2000/svg" xmlns:xlink="http://www.w3.org/1999/xlink"><linearGradient id="SVGID_1_" gradientUnits="userSpaceOnUse" x1="256" x2="256" y1="512" y2="0"><stop offset="0" stop-color="#c3ffe8"/><stop offset=".9973" stop-color="#f0fff4"/></linearGradient><linearGradient id="SVGID_2_" gradientUnits="userSpaceOnUse" x1="256" x2="256" y1="407.002" y2="105"><stop offset="0" stop-color="#9cffac"/><stop offset="1" stop-color="#00b59c"/></linearGradient><g><g><circle cx="256" cy="256" fill="url(#SVGID_1_)" r="256"/></g><g><g><path d="m346.48 334.008-45.229-30.171c-10.518-7.007-24.68-5.644-33.636 3.334l-11.906 11.904c-6.994-1.007-23.587-5.166-40.63-22.218-17.044-17.043-21.192-33.661-22.198-40.651l11.889-11.903c8.956-8.969 10.362-23.121 3.332-33.661l-30.165-45.261c-4.443-6.668-11.559-10.957-19.543-11.747-7.914-.773-15.828 1.997-21.487 7.684l-18.848 18.866c-9.008 9.004-13.729 21.289-12.982 33.679 1.423 24.18 11.871 72.835 66.022 127.004 54.116 54.151 102.747 64.631 126.924 66.055 11.946.747 24.417-3.739 33.67-12.997l18.866-18.867c5.675-5.678 8.452-13.51 7.671-21.489-.798-7.987-5.085-15.116-11.75-19.561zm51.634-122.481h-79.976v-35.563h17.772c3.454 0 6.578-1.997 8.053-5.123 1.458-3.117.989-6.807-1.232-9.464l-44.431-53.343c-3.367-4.046-10.275-4.046-13.642 0l-44.431 53.344c-2.222 2.657-2.69 6.347-1.232 9.464 1.475 3.126 4.599 5.123 8.053 5.123h17.772v44.453c0 24.51 19.925 44.453 44.431 44.453h88.862c4.912 0 8.886-3.977 8.886-8.891v-35.563c.001-4.913-3.973-8.89-8.885-8.89z" fill="url(#SVGID_2_)"/></g></g></g></svg>