<svg id="Capa_1" enable-background="new 0 0 512 512" height="512" viewBox="0 0 512 512" width="512" xmlns="http://www.w3.org/2000/svg" xmlns:xlink="http://www.w3.org/1999/xlink"><linearGradient id="SVGID_1_" gradientUnits="userSpaceOnUse" x1="256" x2="256" y1="512" y2="0"><stop offset="0" stop-color="#ffe59a"/><stop offset="1" stop-color="#ffffd5"/></linearGradient><linearGradient id="SVGID_2_" gradientUnits="userSpaceOnUse" x1="255.995" x2="255.995" y1="407.002" y2="105"><stop offset="0" stop-color="#ffde00"/><stop offset="1" stop-color="#fd5900"/></linearGradient><g><g><circle cx="256" cy="256" fill="url(#SVGID_1_)" r="256"/></g><g><g><path d="m346.472 334.047-45.228-30.155c-10.518-7.003-24.679-5.641-33.635 3.332l-11.906 11.897c-6.994-1.007-23.586-5.163-40.629-22.206-17.043-17.034-21.191-33.643-22.197-40.629l11.888-11.897c8.956-8.964 10.361-23.108 3.332-33.643l-30.163-45.237c-4.443-6.665-11.559-10.951-19.542-11.741-7.931-.772-15.811 1.996-21.486 7.68l-18.848 18.856c-9.007 8.999-13.728 21.278-12.982 33.661 1.423 24.167 11.871 72.797 66.02 126.937 54.114 54.123 102.743 64.596 126.919 66.02 11.918.745 24.397-3.718 33.669-12.99l18.865-18.856c5.675-5.675 8.452-13.502 7.671-21.477-.797-7.985-5.084-15.109-11.748-19.552zm57.915-201.209-25.235-25.235c-3.471-3.471-9.094-3.471-12.565 0l-87.731 87.731-16.644-16.644c-2.534-2.534-6.369-3.289-9.684-1.927-3.315 1.371-5.484 4.617-5.484 8.209v71.087c0 4.911 3.974 8.886 8.886 8.886h71.087c3.593 0 6.838-2.161 8.209-5.484s.607-7.142-1.927-9.684l-16.644-16.644 87.731-87.731c3.472-3.47 3.472-9.093.001-12.564z" fill="url(#SVGID_2_)"/></g></g></g></svg>