<svg id="Capa_1" enable-background="new 0 0 512 512" height="512" viewBox="0 0 512 512" width="512" xmlns="http://www.w3.org/2000/svg" xmlns:xlink="http://www.w3.org/1999/xlink"><linearGradient id="SVGID_1_" gradientUnits="userSpaceOnUse" x1="256" x2="256" y1="512" y2="0"><stop offset="0" stop-color="#ffc2cc"/><stop offset="1" stop-color="#fff2f4"/></linearGradient><linearGradient id="SVGID_2_" gradientUnits="userSpaceOnUse" x1="256" x2="256" y1="407.002" y2="105"><stop offset="0" stop-color="#ffa68d"/><stop offset="1" stop-color="#fd3a84"/></linearGradient><g><g><circle cx="256" cy="256" fill="url(#SVGID_1_)" r="256"/></g><g><g><path d="m346.48 334.047-45.229-30.155c-10.518-7.003-24.68-5.641-33.636 3.332l-11.906 11.897c-6.994-1.007-23.587-5.163-40.63-22.206-17.044-17.034-21.192-33.643-22.198-40.629l11.889-11.897c8.956-8.964 10.362-23.108 3.332-33.643l-30.165-45.237c-4.443-6.665-11.559-10.951-19.543-11.741-7.897-.772-15.829 2.004-21.487 7.68l-18.849 18.856c-9.008 8.999-13.729 21.278-12.982 33.661 1.423 24.167 11.871 72.797 66.022 126.937 54.116 54.123 102.747 64.596 126.924 66.02 11.917.745 24.396-3.716 33.67-12.99l18.866-18.856c5.675-5.675 8.452-13.502 7.671-21.477-.797-7.985-5.084-15.109-11.749-19.552zm-19.456-229.047c-44.001 0-79.976 35.826-79.976 79.973 0 44.1 35.875 79.973 79.976 79.973 43.859 0 79.976-35.721 79.976-79.973 0-44.099-35.875-79.973-79.976-79.973zm0 142.175c-34.295 0-62.204-27.907-62.204-62.201 0-13.945 4.78-26.696 12.562-37.082l86.716 86.728c-10.384 7.777-23.133 12.555-37.074 12.555zm49.641-25.12-86.716-86.728c10.384-7.777 23.133-12.555 37.074-12.555 34.295 0 62.203 27.907 62.203 62.201.002 13.945-4.779 26.696-12.561 37.082z" fill="url(#SVGID_2_)"/></g></g></g></svg>