<svg id="Capa_1" enable-background="new 0 0 512 512" height="512" viewBox="0 0 512 512" width="512" xmlns="http://www.w3.org/2000/svg" xmlns:xlink="http://www.w3.org/1999/xlink"><linearGradient id="SVGID_1_" gradientUnits="userSpaceOnUse" x1="256" x2="256" y1="512" y2="0"><stop offset="0" stop-color="#ffbef9"/><stop offset="1" stop-color="#fff1ff"/></linearGradient><linearGradient id="SVGID_2_" gradientUnits="userSpaceOnUse" x1="255.995" x2="255.995" y1="407.002" y2="105"><stop offset="0" stop-color="#ff81ff"/><stop offset="1" stop-color="#a93aff"/></linearGradient><g><g><circle cx="256" cy="256" fill="url(#SVGID_1_)" r="256"/></g><g><g><path d="m346.472 334.047-45.228-30.155c-10.517-7.003-24.679-5.641-33.635 3.332l-11.906 11.897c-6.994-1.007-23.586-5.163-40.629-22.206-17.043-17.034-21.191-33.643-22.197-40.629l11.888-11.897c8.955-8.964 10.361-23.108 3.332-33.643l-30.164-45.237c-4.443-6.665-11.559-10.951-19.542-11.741-7.914-.772-15.828 2.004-21.486 7.68l-18.848 18.856c-9.007 8.999-13.728 21.278-12.982 33.661 1.423 24.167 11.871 72.797 66.02 126.937 54.114 54.123 102.744 64.596 126.919 66.02 11.918.745 24.397-3.718 33.669-12.99l18.865-18.856c5.675-5.675 8.452-13.502 7.671-21.477-.796-7.985-5.083-15.109-11.747-19.552zm-72.771-229.047c-4.912 0-8.886 3.974-8.886 8.886 0 4.911 3.974 8.886 8.886 8.886 63.694 0 115.517 51.823 115.517 115.517 0 4.912 3.974 8.886 8.886 8.886s8.886-3.974 8.886-8.886c0-73.5-59.789-133.289-133.289-133.289zm0 35.544c-4.912 0-8.886 3.974-8.886 8.886s3.974 8.886 8.886 8.886c44.1 0 79.973 35.874 79.973 79.973 0 4.912 3.974 8.886 8.886 8.886s8.886-3.974 8.886-8.886c0-53.897-43.857-97.745-97.745-97.745zm0 53.315c24.506 0 44.43 19.932 44.43 44.429 0 4.912 3.974 8.886 8.886 8.886s8.886-3.974 8.886-8.886c0-34.294-27.907-62.201-62.201-62.201-4.912 0-8.886 3.974-8.886 8.886-.001 4.912 3.974 8.886 8.885 8.886zm0 35.544c4.894 0 8.886 3.983 8.886 8.886 0 4.912 3.974 8.886 8.886 8.886s8.886-3.974 8.886-8.886c0-14.7-11.958-26.658-26.658-26.658-4.912 0-8.886 3.974-8.886 8.886s3.975 8.886 8.886 8.886z" fill="url(#SVGID_2_)"/></g></g></g></svg>