<svg id="Capa_1" enable-background="new 0 0 512 512" height="512" viewBox="0 0 512 512" width="512" xmlns="http://www.w3.org/2000/svg" xmlns:xlink="http://www.w3.org/1999/xlink"><linearGradient id="SVGID_1_" gradientUnits="userSpaceOnUse" x1="256" x2="256" y1="512" y2="0"><stop offset="0" stop-color="#ffe59a"/><stop offset="1" stop-color="#ffffd5"/></linearGradient><linearGradient id="SVGID_2_" gradientUnits="userSpaceOnUse" x1="256" x2="256" y1="407" y2="105"><stop offset="0" stop-color="#ffde00"/><stop offset="1" stop-color="#fd5900"/></linearGradient><g><g><circle cx="256" cy="256" fill="url(#SVGID_1_)" r="256"/></g><g><g><path d="m256 247.118c-4.892 0-8.882 3.981-8.882 8.882s3.99 8.882 8.882 8.882 8.882-3.981 8.882-8.882-3.99-8.882-8.882-8.882zm71.059 0c-4.892 0-8.882 3.981-8.882 8.882s3.99 8.882 8.882 8.882 8.882-3.981 8.882-8.882-3.99-8.882-8.882-8.882zm-142.118 0c-4.892 0-8.882 3.981-8.882 8.882s3.99 8.882 8.882 8.882 8.882-3.981 8.882-8.882-3.99-8.882-8.882-8.882zm71.059-142.118c-83.255 0-151 67.737-151 151 0 28.989 8.171 56.963 23.68 81.216l-23.039 57.605c-1.318 3.296-.555 7.061 1.96 9.576 2.566 2.566 6.365 3.259 9.576 1.969l57.614-23.047c24.237 15.51 52.22 23.681 81.209 23.681 83.255 0 151-67.737 151-151s-67.745-151-151-151zm-71.059 177.647c-14.694 0-26.647-11.953-26.647-26.647s11.953-26.647 26.647-26.647 26.647 11.953 26.647 26.647-11.953 26.647-26.647 26.647zm71.059 0c-14.694 0-26.647-11.953-26.647-26.647s11.953-26.647 26.647-26.647 26.647 11.953 26.647 26.647-11.953 26.647-26.647 26.647zm71.059 0c-14.694 0-26.647-11.953-26.647-26.647s11.953-26.647 26.647-26.647 26.647 11.953 26.647 26.647-11.953 26.647-26.647 26.647z" fill="url(#SVGID_2_)"/></g></g></g></svg>