<svg id="Capa_1" enable-background="new 0 0 512 512" height="512" viewBox="0 0 512 512" width="512" xmlns="http://www.w3.org/2000/svg" xmlns:xlink="http://www.w3.org/1999/xlink"><linearGradient id="SVGID_1_" gradientUnits="userSpaceOnUse" x1="256" x2="256" y1="512" y2="0"><stop offset="0" stop-color="#c3ffe8"/><stop offset=".9973" stop-color="#f0fff4"/></linearGradient><linearGradient id="SVGID_2_" gradientUnits="userSpaceOnUse" x1="256" x2="256" y1="407" y2="105"><stop offset="0" stop-color="#9cffac"/><stop offset="1" stop-color="#00b59c"/></linearGradient><g><g><circle cx="256" cy="256" fill="url(#SVGID_1_)" r="256"/></g><g><g><path d="m326.452 295.337-22.483-11.233-8.032 8.032c-.972.971-2.169 1.709-3.47 2.142-2.481.798-24.843 7.226-53.051-20.983-28.191-28.2-21.807-50.597-20.992-53.06.434-1.31 1.18-2.498 2.151-3.47l8.032-8.032-11.242-22.475c-1.301-2.585-3.678-4.337-6.523-4.797-.486-.087-.989-.122-1.457-.122-2.342 0-4.545.911-6.245 2.602l-15.579 15.579c-1.735 1.735-2.672 4.077-2.62 6.592.191 11.571 4.649 42.495 41.914 79.742 32.58 32.589 63.981 39.78 79.802 41.168 2.672.251 5.326-.677 7.234-2.585l14.868-14.876c2.047-2.047 2.949-4.849 2.481-7.703-.451-2.851-2.203-5.228-4.788-6.521zm-70.452-190.337c-83.255 0-151 67.737-151 151 0 24.791 6.107 49.269 17.713 71.007l-12.231 64.119c-.555 2.888.365 5.864 2.446 7.946s5.048 3.001 7.946 2.446l64.119-12.222c21.755 11.589 46.216 17.704 71.007 17.704 83.255 0 151-67.737 151-151s-67.745-151-151-151zm85.319 217.123-14.885 14.894c-5.781 5.761-13.663 8.383-21.321 7.703-18.233-1.596-54.266-9.732-90.819-46.303-40.335-40.326-46.84-74.954-47.118-91.998-.121-7.373 2.654-14.286 7.824-19.456l15.579-15.579c6.141-6.133 14.555-8.865 23.108-7.46 8.553 1.388 15.683 6.636 19.569 14.39l14.104 28.2c1.718 3.417 1.041 7.546-1.666 10.253l-10.617 10.617c-.382 4.441.416 16.863 16.897 33.352 16.464 16.455 28.764 17.27 33.344 16.897l10.617-10.617c2.706-2.715 6.818-3.374 10.253-1.665l28.208 14.095c7.755 3.877 12.994 11.008 14.382 19.569 1.389 8.553-1.335 16.975-7.459 23.108z" fill="url(#SVGID_2_)"/></g></g></g></svg>