<svg id="Capa_1" enable-background="new 0 0 512 512" height="512" viewBox="0 0 512 512" width="512" xmlns="http://www.w3.org/2000/svg" xmlns:xlink="http://www.w3.org/1999/xlink"><linearGradient id="SVGID_1_" gradientUnits="userSpaceOnUse" x1="256" x2="256" y1="512" y2="0"><stop offset="0" stop-color="#ffe59a"/><stop offset="1" stop-color="#ffffd5"/></linearGradient><linearGradient id="SVGID_2_" gradientUnits="userSpaceOnUse" x1="255.998" x2="255.998" y1="407" y2="105"><stop offset="0" stop-color="#ffde00"/><stop offset="1" stop-color="#fd5900"/></linearGradient><g><g><circle cx="256" cy="256" fill="url(#SVGID_1_)" r="256"/></g><g><g><path d="m281.448 247.12h-7.685c-4.909 0-8.882-3.973-8.882-8.882v-62.176h-17.764v62.176c0 4.909-3.973 8.882-8.882 8.882h-7.685l25.45 30.533zm116.233-38.069-136.357-102.269c-3.157-2.377-7.494-2.377-10.652 0l-136.36 102.27 141.686 123.966zm-148.501 88.17-44.411-53.293c-2.221-2.654-2.689-6.341-1.232-9.455 1.475-3.123 4.597-5.118 8.05-5.118h17.764v-62.175c0-4.909 3.973-8.882 8.882-8.882h35.529c4.91 0 8.882 3.973 8.882 8.882v62.176h17.764c3.452 0 6.575 1.995 8.05 5.118 1.457 3.114.989 6.801-1.232 9.455l-44.411 53.293c-1.683 2.021-4.181 3.192-6.818 3.192-2.636-.001-5.134-1.172-6.817-3.193zm12.664 54.291c-1.665 1.466-3.765 2.194-5.846 2.194-2.082 0-4.181-.729-5.846-2.194l-145.152-126.999v173.604c0 4.91 3.973 8.882 8.882 8.882h284.231c4.909 0 8.882-3.973 8.882-8.882v-173.61z" fill="url(#SVGID_2_)"/></g></g></g></svg>