<svg id="Capa_1" enable-background="new 0 0 512 512" height="512" viewBox="0 0 512 512" width="512" xmlns="http://www.w3.org/2000/svg" xmlns:xlink="http://www.w3.org/1999/xlink"><linearGradient id="SVGID_1_" gradientUnits="userSpaceOnUse" x1="256" x2="256" y1="512" y2="0"><stop offset="0" stop-color="#c3ffe8"/><stop offset=".9973" stop-color="#f0fff4"/></linearGradient><linearGradient id="SVGID_2_" gradientUnits="userSpaceOnUse" x1="256" x2="256" y1="407" y2="104.996"><stop offset="0" stop-color="#9cffac"/><stop offset="1" stop-color="#00b59c"/></linearGradient><g><g><circle cx="256" cy="256" fill="url(#SVGID_1_)" r="256"/></g><g><g><path d="m261.846 351.511c-1.665 1.466-3.765 2.195-5.846 2.195s-4.181-.729-5.846-2.195l-145.154-127.001v173.607c0 4.91 3.973 8.882 8.882 8.882h284.235c4.91 0 8.882-3.973 8.882-8.882v-173.607zm19.604-139.923-25.45-30.533-25.45 30.533h7.685c4.91 0 8.882 3.973 8.882 8.883v62.176h17.765v-62.176c0-4.91 3.973-8.883 8.882-8.883zm116.238-2.538-136.362-102.272c-3.157-2.377-7.494-2.377-10.652 0l-136.362 102.272 141.688 123.968zm-168.335 82.479v-62.176h-17.765c-3.452 0-6.575-1.995-8.05-5.118-1.457-3.114-.989-6.801 1.232-9.455l44.412-53.294c3.366-4.042 10.27-4.042 13.636 0l44.412 53.294c2.221 2.654 2.689 6.341 1.232 9.455-1.475 3.123-4.597 5.118-8.05 5.118h-17.765v62.176c0 4.91-3.973 8.882-8.882 8.882h-35.529c-4.91.001-8.883-3.972-8.883-8.882z" fill="url(#SVGID_2_)"/></g></g></g></svg>