<svg id="Capa_1" enable-background="new 0 0 512 512" height="512" viewBox="0 0 512 512" width="512" xmlns="http://www.w3.org/2000/svg" xmlns:xlink="http://www.w3.org/1999/xlink"><linearGradient id="SVGID_1_" gradientUnits="userSpaceOnUse" x1="256" x2="256" y1="512" y2="0"><stop offset="0" stop-color="#ffe59a"/><stop offset="1" stop-color="#ffffd5"/></linearGradient><linearGradient id="SVGID_2_" gradientUnits="userSpaceOnUse" x1="256" x2="256" y1="407" y2="105"><stop offset="0" stop-color="#ffde00"/><stop offset="1" stop-color="#fd5900"/></linearGradient><g><g><circle cx="256" cy="256" fill="url(#SVGID_1_)" r="256"/></g><g><g><path d="m158.294 407h88.823v-35.529h-88.823zm17.765-204.294c0-4.901-3.981-8.882-8.882-8.882s-8.882 3.981-8.882 8.882 3.981 8.882 8.882 8.882 8.882-3.981 8.882-8.882zm62.176-8.883c-4.901 0-8.882 3.981-8.882 8.882s3.981 8.882 8.882 8.882 8.882-3.981 8.882-8.882-3.981-8.882-8.882-8.882zm53.294-53.294h-79.941v-26.647c0-4.91-3.973-8.882-8.882-8.882s-8.882 3.973-8.882 8.882v26.647h-79.941c-4.91 0-8.882 3.973-8.882 8.882v142.118c0 4.91 3.973 8.882 8.882 8.882h62.177v17.765h-62.177c-4.91 0-8.882 3.973-8.882 8.882v71.059c0 4.91 3.973 8.882 8.882 8.882h26.647v-44.412c0-4.909 3.973-8.882 8.882-8.882h106.588c4.91 0 8.882 3.973 8.882 8.882v44.413h26.647c4.91 0 8.882-3.973 8.882-8.882v-71.059c0-4.91-3.973-8.882-8.882-8.882h-62.176v-17.765h62.176c4.91 0 8.882-3.973 8.882-8.882v-142.118c.001-4.91-3.972-8.883-8.882-8.883zm-151 62.177c0-14.694 11.953-26.647 26.647-26.647s26.647 11.953 26.647 26.647-11.953 26.647-26.647 26.647-26.647-11.953-26.647-26.647zm97.706 62.176h-71.059c-4.91 0-8.882-3.973-8.882-8.882s3.973-8.882 8.882-8.882h71.059c4.91 0 8.882 3.973 8.882 8.882s-3.972 8.882-8.882 8.882zm0-35.529c-14.694 0-26.647-11.953-26.647-26.647s11.953-26.647 26.647-26.647 26.647 11.953 26.647 26.647-11.953 26.647-26.647 26.647zm159.883-124.353h-71.059c-4.91 0-8.882 3.973-8.882 8.882v71.059c0 3.591 2.16 6.835 5.482 8.206 3.273 1.366 7.116.638 9.68-1.926l15.163-15.162h49.616c4.91 0 8.882-3.973 8.882-8.882v-53.294c0-4.91-3.973-8.883-8.882-8.883z" fill="url(#SVGID_2_)"/></g></g></g></svg>