<svg id="Capa_1" enable-background="new 0 0 512 512" height="512" viewBox="0 0 512 512" width="512" xmlns="http://www.w3.org/2000/svg" xmlns:xlink="http://www.w3.org/1999/xlink"><linearGradient id="SVGID_1_" gradientUnits="userSpaceOnUse" x1="256" x2="256" y1="512" y2="0"><stop offset="0" stop-color="#ffbef9"/><stop offset="1" stop-color="#fff1ff"/></linearGradient><linearGradient id="SVGID_2_" gradientUnits="userSpaceOnUse" x1="256" x2="256" y1="353.5" y2="158.5"><stop offset="0" stop-color="#ff81ff"/><stop offset="1" stop-color="#a93aff"/></linearGradient><g><g><circle cx="256" cy="256" fill="url(#SVGID_1_)" r="256"/></g><g><g><path d="m318.176 300.318h35.529v-17.728h-35.529zm79.942-141.818h-284.236c-4.91 0-8.882 3.964-8.882 8.864v177.272c0 4.899 3.973 8.864 8.882 8.864h284.235c4.91 0 8.882-3.964 8.882-8.864v-177.272c.001-4.9-3.972-8.864-8.881-8.864zm-195.412 88.636h-53.294c-4.91 0-8.882-3.964-8.882-8.864s3.973-8.864 8.882-8.864h53.294c4.91 0 8.882 3.964 8.882 8.864s-3.973 8.864-8.882 8.864zm35.529-35.454h-88.824c-4.91 0-8.882-3.965-8.882-8.864s3.973-8.864 8.882-8.864h88.824c4.91 0 8.882 3.964 8.882 8.864s-3.972 8.864-8.882 8.864zm133.236 97.5c0 4.899-3.973 8.864-8.882 8.864h-53.294c-4.91 0-8.882-3.964-8.882-8.864v-35.455c0-4.899 3.973-8.863 8.882-8.863h53.294c4.91 0 8.882 3.964 8.882 8.863z" fill="url(#SVGID_2_)"/></g></g></g></svg>