<svg id="Capa_1" enable-background="new 0 0 512 512" height="512" viewBox="0 0 512 512" width="512" xmlns="http://www.w3.org/2000/svg" xmlns:xlink="http://www.w3.org/1999/xlink"><linearGradient id="SVGID_1_" gradientUnits="userSpaceOnUse" x1="256" x2="256" y1="512" y2="0"><stop offset="0" stop-color="#ffe59a"/><stop offset="1" stop-color="#ffffd5"/></linearGradient><linearGradient id="SVGID_2_" gradientUnits="userSpaceOnUse" x1="256" x2="256" y1="407" y2="105"><stop offset="0" stop-color="#ffde00"/><stop offset="1" stop-color="#fd5900"/></linearGradient><g><g><circle cx="256" cy="256" fill="url(#SVGID_1_)" r="256"/></g><g><g><path d="m193.933 305.616 38.064-38.132c3.464-3.47 9.074-3.47 12.538 0l11.465 11.485 29.198-29.249c3.464-3.47 9.075-3.47 12.538 0l20.331 20.367v-94.028h-124.134zm62.067-111.793c14.668 0 26.6 11.953 26.6 26.647s-11.932 26.647-26.6 26.647-26.6-11.953-26.6-26.647c0-14.693 11.932-26.647 26.6-26.647zm0 35.53c4.884 0 8.867-3.981 8.867-8.882s-3.983-8.883-8.867-8.883-8.867 3.981-8.867 8.883c0 4.901 3.983 8.882 8.867 8.882zm124.133-88.824c4.901 0 8.867-3.973 8.867-8.882v-17.765c0-4.91-3.966-8.882-8.867-8.882h-35.467c-4.901 0-8.867 3.973-8.867 8.882 0 4.901-3.983 8.882-8.867 8.882s-8.867-3.981-8.867-8.882c0-4.91-3.966-8.882-8.867-8.882h-35.467c-4.901 0-8.867 3.973-8.867 8.882 0 4.901-3.983 8.882-8.867 8.882s-8.867-3.981-8.867-8.882c0-4.91-3.966-8.882-8.867-8.882h-35.463c-4.901 0-8.867 3.973-8.867 8.882 0 4.901-3.983 8.882-8.867 8.882s-8.867-3.981-8.867-8.882c0-4.91-3.966-8.882-8.867-8.882h-35.467c-4.901 0-8.867 3.973-8.867 8.882v17.765c0 4.91 3.966 8.882 8.867 8.882 4.884 0 8.867 3.981 8.867 8.882s-3.983 8.883-8.867 8.883c-4.901 0-8.867 3.973-8.867 8.882v35.529c0 4.91 3.966 8.882 8.867 8.882 4.884 0 8.867 3.981 8.867 8.883 0 4.901-3.983 8.882-8.867 8.882-4.901 0-8.867 3.973-8.867 8.882v35.529c0 4.91 3.966 8.882 8.867 8.882 4.884 0 8.867 3.981 8.867 8.882s-3.983 8.882-8.867 8.882c-4.901 0-8.867 3.973-8.867 8.882v35.529c0 4.91 3.966 8.883 8.867 8.883 4.884 0 8.867 3.981 8.867 8.882s-3.983 8.882-8.867 8.882c-4.901 0-8.867 3.973-8.867 8.882v17.765c0 4.91 3.966 8.882 8.867 8.882h35.467c4.901 0 8.867-3.973 8.867-8.882 0-4.901 3.983-8.882 8.867-8.882s8.867 3.981 8.867 8.882c0 4.91 3.966 8.882 8.867 8.882h35.467c4.901 0 8.867-3.973 8.867-8.882 0-4.901 3.983-8.882 8.867-8.882s8.867 3.981 8.867 8.882c0 4.91 3.966 8.882 8.867 8.882h35.465c4.901 0 8.867-3.973 8.867-8.882 0-4.901 3.983-8.882 8.867-8.882s8.867 3.981 8.867 8.882c0 4.91 3.966 8.882 8.867 8.882h35.467c4.901 0 8.867-3.973 8.867-8.882v-17.765c0-4.91-3.966-8.882-8.867-8.882-4.884 0-8.867-3.981-8.867-8.882s3.983-8.882 8.867-8.882c4.901 0 8.867-3.973 8.867-8.883v-35.529c0-4.909-3.966-8.882-8.867-8.882-4.884 0-8.867-3.981-8.867-8.882s3.983-8.882 8.867-8.882c4.901 0 8.867-3.973 8.867-8.882v-35.529c0-4.91-3.966-8.882-8.867-8.882-4.884 0-8.867-3.981-8.867-8.882s3.983-8.883 8.867-8.883c4.901 0 8.867-3.973 8.867-8.882v-35.529c0-4.91-3.966-8.882-8.867-8.882-4.884 0-8.867-3.981-8.867-8.883-.001-4.9 3.982-8.882 8.865-8.882zm-44.333 204.294c0 4.91-3.966 8.883-8.867 8.883h-141.866c-4.901 0-8.867-3.973-8.867-8.883v-177.646c0-4.91 3.966-8.882 8.867-8.882h141.867c4.901 0 8.867 3.973 8.867 8.882v177.646zm-73.531-47.013c-3.464 3.47-9.074 3.47-12.538 0l-11.464-11.485-44.333 44.412v5.205h124.133v-40.734l-26.6-26.647z" fill="url(#SVGID_2_)"/></g></g></g></svg>