<svg id="Capa_1" enable-background="new 0 0 512 512" height="512" viewBox="0 0 512 512" width="512" xmlns="http://www.w3.org/2000/svg" xmlns:xlink="http://www.w3.org/1999/xlink"><linearGradient id="SVGID_1_" gradientUnits="userSpaceOnUse" x1="256" x2="256" y1="512" y2="0"><stop offset="0" stop-color="#ffc2cc"/><stop offset="1" stop-color="#fff2f4"/></linearGradient><linearGradient id="SVGID_2_" gradientUnits="userSpaceOnUse" x1="256" x2="256" y1="407" y2="105"><stop offset="0" stop-color="#ffa68d"/><stop offset="1" stop-color="#fd3a84"/></linearGradient><g><g><circle cx="256" cy="256" fill="url(#SVGID_1_)" r="256"/></g><g><g><path d="m321.594 176.059 35.535-71.059h-202.26l35.538 71.059zm-74.479 62.176c0 4.901 3.991 8.882 8.885 8.882s8.885-3.981 8.885-8.882-3.991-8.882-8.885-8.882-8.885 3.981-8.885 8.882zm87.909-49.321c-1.51 3.01-4.581 4.909-7.948 4.909h-62.192v19.401c10.319 3.679 17.769 13.446 17.769 25.011 0 14.694-11.956 26.647-26.654 26.647s-26.654-11.953-26.654-26.647c0-11.565 7.45-21.332 17.769-25.011v-19.401h-62.192c-3.366 0-6.438-1.9-7.948-4.909l-36.474-72.921v282.124c0 4.91 3.974 8.882 8.885 8.882h213.231c4.911 0 8.885-3.973 8.885-8.882v-282.13z" fill="url(#SVGID_2_)"/></g></g></g></svg>