<svg id="Capa_1" enable-background="new 0 0 512 512" height="512" viewBox="0 0 512 512" width="512" xmlns="http://www.w3.org/2000/svg" xmlns:xlink="http://www.w3.org/1999/xlink"><linearGradient id="SVGID_1_" gradientUnits="userSpaceOnUse" x1="256" x2="256" y1="512" y2="0"><stop offset="0" stop-color="#addcff"/><stop offset=".5028" stop-color="#eaf6ff"/><stop offset="1" stop-color="#eaf6ff"/></linearGradient><linearGradient id="SVGID_2_" gradientUnits="userSpaceOnUse" x1="256" x2="256" y1="371.5" y2="140.5"><stop offset="0" stop-color="#00c0ff"/><stop offset="1" stop-color="#5558ff"/></linearGradient><g><g><circle cx="256" cy="256" fill="url(#SVGID_1_)" r="256"/></g><g><g><path d="m249.182 297.23c1.683 2.022 4.181 3.193 6.818 3.193s5.135-1.171 6.818-3.193l44.412-53.308c2.22-2.655 2.689-6.342 1.232-9.457-1.475-3.124-4.597-5.119-8.05-5.119h-17.765v-79.962c0-4.911-3.973-8.885-8.882-8.885h-35.529c-4.91 0-8.882 3.974-8.882 8.885v79.962h-17.765c-3.452 0-6.575 1.996-8.05 5.119-1.457 3.115-.989 6.802 1.232 9.457zm148.936-14.576h-71.059c-3.365 0-6.436 1.9-7.946 4.911l-15.301 30.628h-95.624l-15.301-30.628c-1.509-3.011-4.58-4.911-7.946-4.911h-71.059c-4.91 0-8.882 3.974-8.882 8.885v71.077c0 4.911 3.973 8.885 8.882 8.885h284.235c4.91 0 8.882-3.974 8.882-8.885v-71.077c.001-4.912-3.972-8.885-8.881-8.885z" fill="url(#SVGID_2_)"/></g></g></g></svg>