<svg id="Capa_1" enable-background="new 0 0 512 512" height="512" viewBox="0 0 512 512" width="512" xmlns="http://www.w3.org/2000/svg" xmlns:xlink="http://www.w3.org/1999/xlink"><linearGradient id="SVGID_1_" gradientUnits="userSpaceOnUse" x1="256" x2="256" y1="512" y2="0"><stop offset="0" stop-color="#addcff"/><stop offset=".5028" stop-color="#eaf6ff"/><stop offset="1" stop-color="#eaf6ff"/></linearGradient><linearGradient id="SVGID_2_" gradientUnits="userSpaceOnUse" x1="256" x2="256" y1="371.5" y2="140.5"><stop offset="0" stop-color="#00c0ff"/><stop offset="1" stop-color="#5558ff"/></linearGradient><g><g><circle cx="256" cy="256" fill="url(#SVGID_1_)" r="256"/></g><g><g><path d="m193.824 282.654h71.059v-53.308h-71.059zm124.352-7.714v-37.88l-28.399 18.94zm-62.176-134.44c-83.255 0-151 51.815-151 115.5 0 19.947 6.644 39.425 19.291 56.648l-18.649 46.67c-1.318 3.297-.555 7.063 1.96 9.579 2.566 2.567 6.365 3.26 9.576 1.97l51.438-20.589c25.571 13.9 55.688 21.223 87.384 21.223 83.255 0 151-51.815 151-115.5s-67.745-115.501-151-115.501zm79.941 151.039c0 3.28-1.804 6.29-4.684 7.834-2.871 1.531-6.359 1.392-9.125-.442l-39.485-26.33v18.938c0 4.911-3.973 8.884-8.882 8.884h-88.824c-4.91 0-8.882-3.974-8.882-8.884v-71.077c0-4.911 3.973-8.884 8.882-8.884h88.824c4.91 0 8.882 3.974 8.882 8.884v18.938l39.485-26.33c2.741-1.822 6.228-1.979 9.125-.442 2.88 1.544 4.684 4.555 4.684 7.834z" fill="url(#SVGID_2_)"/></g></g></g></svg>