<svg id="Capa_1" enable-background="new 0 0 512 512" height="512" viewBox="0 0 512 512" width="512" xmlns="http://www.w3.org/2000/svg" xmlns:xlink="http://www.w3.org/1999/xlink"><linearGradient id="SVGID_1_" gradientUnits="userSpaceOnUse" x1="256" x2="256" y1="512" y2="0"><stop offset="0" stop-color="#c3ffe8"/><stop offset=".9973" stop-color="#f0fff4"/></linearGradient><linearGradient id="SVGID_2_" gradientUnits="userSpaceOnUse" x1="256" x2="256" y1="353.5" y2="158.5"><stop offset="0" stop-color="#9cffac"/><stop offset="1" stop-color="#00b59c"/></linearGradient><g><g><circle cx="256" cy="256" fill="url(#SVGID_1_)" r="256"/></g><g><g><path d="m135.828 212.106c-3.47-3.479-9.125-3.462-12.56-.017-11.78 11.711-18.268 27.3-18.268 43.911s6.488 32.2 18.268 43.911c3.534 3.509 9.154 3.398 12.56-.017 3.452-3.471 3.452-9.08-.035-12.534-8.397-8.362-13.029-19.502-13.029-31.36s4.632-22.999 13.029-31.36c3.487-3.454 3.487-9.063.035-12.534zm252.904-.017c-3.47-3.445-9.091-3.462-12.56.017-3.452 3.471-3.452 9.08.035 12.534 8.397 8.362 13.029 19.502 13.029 31.36s-4.632 22.999-13.029 31.36c-3.487 3.454-3.487 9.063-.035 12.534 3.46 3.47 9.116 3.471 12.56.017 11.78-11.711 18.268-27.3 18.268-43.911s-6.488-32.2-18.268-43.911zm-159.199 52.775c1.789 49.287 17.967 88.636 26.467 88.636s24.678-39.349 26.467-88.636zm52.934-17.728c-1.789-49.287-17.967-88.636-26.467-88.636s-24.678 39.349-26.467 88.636zm-.961-85.149c11.731 22.601 17.606 58.643 18.699 85.149h53.05c-3.726-40.999-32.992-74.66-71.749-85.149zm-122.762 102.877c3.727 41 32.993 74.66 71.75 85.149-11.731-22.601-17.606-58.643-18.699-85.149zm71.75-102.877c-38.756 10.489-68.023 44.149-71.75 85.149h53.05c1.093-26.506 6.969-62.548 18.7-85.149zm51.012 188.026c38.756-10.489 68.023-44.149 71.749-85.149h-53.05c-1.092 26.506-6.968 62.548-18.699 85.149z" fill="url(#SVGID_2_)"/></g></g></g></svg>