<svg id="Capa_1" enable-background="new 0 0 512 512" height="512" viewBox="0 0 512 512" width="512" xmlns="http://www.w3.org/2000/svg" xmlns:xlink="http://www.w3.org/1999/xlink"><linearGradient id="SVGID_1_" gradientUnits="userSpaceOnUse" x1="256" x2="256" y1="512" y2="0"><stop offset="0" stop-color="#ffe59a"/><stop offset="1" stop-color="#ffffd5"/></linearGradient><linearGradient id="SVGID_2_" gradientUnits="userSpaceOnUse" x1="256" x2="256" y1="407" y2="105"><stop offset="0" stop-color="#ffde00"/><stop offset="1" stop-color="#fd5900"/></linearGradient><g><g><circle cx="256" cy="256" fill="url(#SVGID_1_)" r="256"/></g><g><g><path d="m318.045 149.412c0-24.515-19.854-44.412-44.318-44.412h-35.455c-24.464 0-44.318 19.896-44.318 44.412v97.706h124.091zm-79.772 79.941c-4.895 0-8.864-3.977-8.864-8.882 0-4.906 3.969-8.882 8.864-8.882s8.864 3.976 8.864 8.882c-.001 4.905-3.969 8.882-8.864 8.882zm0-35.53c-4.895 0-8.864-3.977-8.864-8.882 0-4.907 3.969-8.883 8.864-8.883s8.864 3.976 8.864 8.883c-.001 4.906-3.969 8.882-8.864 8.882zm0-35.529c-4.895 0-8.864-3.977-8.864-8.882 0-4.906 3.969-8.882 8.864-8.882s8.864 3.976 8.864 8.882c-.001 4.905-3.969 8.882-8.864 8.882zm35.454 71.059c-4.895 0-8.864-3.977-8.864-8.882 0-4.906 3.969-8.882 8.864-8.882s8.864 3.976 8.864 8.882c0 4.905-3.969 8.882-8.864 8.882zm0-35.53c-4.895 0-8.864-3.977-8.864-8.882 0-4.907 3.969-8.883 8.864-8.883s8.864 3.976 8.864 8.883c0 4.906-3.969 8.882-8.864 8.882zm0-35.529c-4.895 0-8.864-3.977-8.864-8.882 0-4.906 3.969-8.882 8.864-8.882s8.864 3.976 8.864 8.882c0 4.905-3.969 8.882-8.864 8.882zm-79.772 115.471c0 24.516 19.854 44.412 44.318 44.412h35.455c24.464 0 44.318-19.896 44.318-44.412v-8.882h-124.091zm150.681-26.647h-26.591v17.765h17.727v8.882c0 34.286-27.832 62.177-62.045 62.177h-35.455c-34.214 0-62.045-27.891-62.045-62.177v-8.882h17.727v-17.765h-26.591c-4.964 0-8.864 3.908-8.864 8.882v17.765c0 44.056 35.809 79.941 79.773 79.941h35.455c43.963 0 79.773-35.885 79.773-79.941v-17.765c0-4.975-3.899-8.882-8.864-8.882zm-17.727 142.117h-44.318v-17.765h-53.182v17.765h-44.318c-4.899 0-8.864 3.973-8.864 8.882s3.964 8.882 8.864 8.882h141.818c4.899 0 8.864-3.973 8.864-8.882s-3.965-8.882-8.864-8.882z" fill="url(#SVGID_2_)"/></g></g></g></svg>