<svg id="Capa_1" enable-background="new 0 0 512 512" height="512" viewBox="0 0 512 512" width="512" xmlns="http://www.w3.org/2000/svg" xmlns:xlink="http://www.w3.org/1999/xlink"><linearGradient id="SVGID_1_" gradientUnits="userSpaceOnUse" x1="256" x2="256" y1="512" y2="0"><stop offset="0" stop-color="#c3ffe8"/><stop offset=".9973" stop-color="#f0fff4"/></linearGradient><linearGradient id="SVGID_2_" gradientUnits="userSpaceOnUse" x1="256" x2="256" y1="407" y2="105"><stop offset="0" stop-color="#9cffac"/><stop offset="1" stop-color="#00b59c"/></linearGradient><g><g><circle cx="256" cy="256" fill="url(#SVGID_1_)" r="256"/></g><g><g><path d="m398.118 318.176h-71.059c-3.365 0-6.436 1.9-7.946 4.91l-15.301 30.62h-95.624l-15.301-30.62c-1.509-3.01-4.58-4.91-7.946-4.91h-71.059c-4.91 0-8.882 3.973-8.882 8.882v71.059c0 4.91 3.973 8.882 8.882 8.882h284.235c4.91 0 8.882-3.973 8.882-8.882v-71.059c.001-4.909-3.972-8.882-8.881-8.882zm-8.883-168.764v-26.647c0-9.811-7.954-17.765-17.765-17.765s-17.765 7.954-17.765 17.765v35.529h26.647c4.907 0 8.883-3.977 8.883-8.882zm-180.475 165.711 10.409 20.818h73.661l10.392-20.792c4.563-9.1 13.688-14.738 23.837-14.738h8.882c0-15.21 0-150.708 0-177.647 0-6.5 1.882-12.518 4.942-17.765h-120.412c-24.496 0-44.412 19.925-44.412 44.412v151h8.882c10.149.001 19.274 5.639 23.819 14.712zm2.828-147.947c0-4.91 3.973-8.882 8.882-8.882s8.882 3.973 8.882 8.882v88.824c0 14.694 11.953 26.647 26.647 26.647s26.647-11.953 26.647-26.647v-71.059c0-4.901-3.99-8.883-8.882-8.883s-8.882 3.981-8.882 8.883v71.059c0 4.91-3.973 8.882-8.882 8.882s-8.882-3.973-8.882-8.882v-71.059c0-14.694 11.953-26.647 26.647-26.647s26.647 11.953 26.647 26.647v71.059c0 24.487-19.916 44.412-44.412 44.412s-44.412-19.925-44.412-44.412z" fill="url(#SVGID_2_)"/></g></g></g></svg>