<svg id="Capa_1" enable-background="new 0 0 512 512" height="512" viewBox="0 0 512 512" width="512" xmlns="http://www.w3.org/2000/svg" xmlns:xlink="http://www.w3.org/1999/xlink"><linearGradient id="SVGID_1_" gradientUnits="userSpaceOnUse" x1="256" x2="256" y1="512" y2="0"><stop offset="0" stop-color="#ffc2cc"/><stop offset="1" stop-color="#fff2f4"/></linearGradient><linearGradient id="SVGID_2_" gradientUnits="userSpaceOnUse" x1="256" x2="256" y1="407" y2="105"><stop offset="0" stop-color="#ffa68d"/><stop offset="1" stop-color="#fd3a84"/></linearGradient><g><g><circle cx="256" cy="256" fill="url(#SVGID_1_)" r="256"/></g><g><g><path d="m398.118 318.176h-71.059c-3.365 0-6.436 1.9-7.946 4.91l-15.301 30.62h-95.624l-15.301-30.62c-1.509-3.01-4.58-4.91-7.946-4.91h-71.059c-4.91 0-8.882 3.973-8.882 8.882v71.059c0 4.91 3.973 8.882 8.882 8.882h284.235c4.91 0 8.882-3.973 8.882-8.882v-71.059c.001-4.909-3.972-8.882-8.881-8.882zm-189.358-3.053 10.409 20.818h73.661l10.392-20.792c4.563-9.1 13.688-14.738 23.837-14.738h44.412v-79.941c0-4.91-3.973-8.882-8.882-8.882h-213.177c-4.909 0-8.882 3.973-8.882 8.882v79.941h44.412c10.148.001 19.273 5.639 23.818 14.712zm144.946-147.947c0-4.91-3.973-8.882-8.882-8.882h-177.647c-4.91 0-8.882 3.973-8.882 8.882v26.647h195.412v-26.647zm-17.765-53.294c0-4.91-3.973-8.882-8.882-8.882h-142.118c-4.909 0-8.882 3.973-8.882 8.882v26.647h159.882z" fill="url(#SVGID_2_)"/></g></g></g></svg>