<svg id="Capa_1" enable-background="new 0 0 512 512" height="512" viewBox="0 0 512 512" width="512" xmlns="http://www.w3.org/2000/svg" xmlns:xlink="http://www.w3.org/1999/xlink"><linearGradient id="SVGID_1_" gradientUnits="userSpaceOnUse" x1="256" x2="256" y1="512" y2="0"><stop offset="0" stop-color="#ffe59a"/><stop offset="1" stop-color="#ffffd5"/></linearGradient><linearGradient id="SVGID_2_" gradientUnits="userSpaceOnUse" x1="256" x2="256" y1="407" y2="105"><stop offset="0" stop-color="#ffde00"/><stop offset="1" stop-color="#fd5900"/></linearGradient><g><g><circle cx="256" cy="256" fill="url(#SVGID_1_)" r="256"/></g><g><g><path d="m362.615 318.176c-14.698 0-26.654-11.953-26.654-26.647v-71.059c0-34.154-21.727-63.945-53.308-75.046v-13.778c.001-14.693-11.955-26.646-26.653-26.646s-26.654 11.953-26.654 26.647v13.883c-31.641 11.602-53.308 42.529-53.308 77.959v68.04c0 14.694-11.956 26.647-26.654 26.647-4.911 0-8.885 3.973-8.885 8.882v35.53c0 4.91 3.974 8.882 8.885 8.882h213.231c4.911 0 8.885-3.973 8.885-8.882v-35.53c0-4.909-3.974-8.882-8.885-8.882zm-97.73-176.99c-8.193-.945-12.346-.662-17.769-.058v-9.481c0-4.901 3.991-8.882 8.885-8.882s8.885 3.981 8.885 8.882v9.539zm-8.885 265.814c11.568 0 21.337-7.448 25.017-17.765h-50.035c3.681 10.317 13.45 17.765 25.018 17.765z" fill="url(#SVGID_2_)"/></g></g></g></svg>