<svg id="Capa_1" enable-background="new 0 0 512 512" height="512" viewBox="0 0 512 512" width="512" xmlns="http://www.w3.org/2000/svg" xmlns:xlink="http://www.w3.org/1999/xlink"><linearGradient id="SVGID_1_" gradientUnits="userSpaceOnUse" x1="256" x2="256" y1="512" y2="0"><stop offset="0" stop-color="#ffc2cc"/><stop offset="1" stop-color="#fff2f4"/></linearGradient><linearGradient id="SVGID_2_" gradientUnits="userSpaceOnUse" x1="256" x2="256" y1="398" y2="114"><stop offset="0" stop-color="#ffa68d"/><stop offset="1" stop-color="#fd3a84"/></linearGradient><g><g><circle cx="256" cy="256" fill="url(#SVGID_1_)" r="256"/></g><g><g><path d="m211.588 291.494v-106.507h-53.294c-29.388 0-53.294 23.888-53.294 53.253s23.906 53.253 53.294 53.253h53.294zm153.811-177.043c-3.574-1.196-7.616.043-9.906 3.068-.501.651-48.299 62.502-126.14 67.03v107.382c77.841 4.528 125.639 66.379 126.14 67.03 2.307 3.069 6.354 4.274 9.906 3.068 3.626-1.205 6.072-4.594 6.072-8.408v-230.763c0-3.814-2.447-7.203-6.072-8.407zm-144.408 233.147c-6.441-14.794-9.324-26.647-9.381-38.354h-53.316v79.88c0 4.906 3.973 8.875 8.882 8.875h53.294c4.91 0 8.882-3.97 8.882-8.875-.197-2.013 1.488-18.475-8.361-41.526zm168.244-139.921v61.125c10.567-6.157 17.765-17.479 17.765-30.562s-7.198-24.404-17.765-30.563z" fill="url(#SVGID_2_)"/></g></g></g></svg>