<svg id="Capa_1" enable-background="new 0 0 512 512" height="512" viewBox="0 0 512 512" width="512" xmlns="http://www.w3.org/2000/svg" xmlns:xlink="http://www.w3.org/1999/xlink"><linearGradient id="SVGID_1_" gradientUnits="userSpaceOnUse" x1="256" x2="256" y1="512" y2="0"><stop offset="0" stop-color="#addcff"/><stop offset=".5028" stop-color="#eaf6ff"/><stop offset="1" stop-color="#eaf6ff"/></linearGradient><linearGradient id="SVGID_2_" gradientUnits="userSpaceOnUse" x1="256" x2="256" y1="407" y2="105"><stop offset="0" stop-color="#00c0ff"/><stop offset="1" stop-color="#5558ff"/></linearGradient><g><g><circle cx="256" cy="256" fill="url(#SVGID_1_)" r="256"/></g><g><g><path d="m380.353 105h-248.706c-14.694 0-26.647 11.953-26.647 26.647v44.412h302v-44.412c0-14.694-11.953-26.647-26.647-26.647zm-124.353 53.294h-17.765c-4.91 0-8.882-3.973-8.882-8.882s3.973-8.882 8.882-8.882h17.765c4.91 0 8.882 3.973 8.882 8.882s-3.972 8.882-8.882 8.882zm53.294 0h-17.765c-4.91 0-8.882-3.973-8.882-8.882s3.973-8.882 8.882-8.882h17.765c4.909 0 8.882 3.973 8.882 8.882s-3.972 8.882-8.882 8.882zm53.294 0h-17.765c-4.91 0-8.882-3.973-8.882-8.882s3.973-8.882 8.882-8.882h17.765c4.91 0 8.882 3.973 8.882 8.882s-3.972 8.882-8.882 8.882zm-177.647 97.706v14.087l20.367-20.367c1.666-1.665 3.921-2.602 6.28-2.602h71.059v-17.765h-124.353v17.765h17.765c4.909 0 8.882 3.972 8.882 8.882zm-79.941 124.353c0 14.694 11.953 26.647 26.647 26.647h248.706c14.694 0 26.647-11.953 26.647-26.647v-186.53h-302zm266.471-88.824v35.529c0 4.91-3.973 8.883-8.882 8.883h-17.765v26.647c0 3.591-2.168 6.835-5.482 8.206-3.229 1.358-7.096.658-9.68-1.926l-32.927-32.927h-76.263c-4.91 0-8.882-3.973-8.882-8.883v-35.529c0-4.91 3.973-8.882 8.882-8.882h142.118c4.908 0 8.881 3.973 8.881 8.882zm-230.942-71.058c0-4.91 3.973-8.882 8.882-8.882h142.118c4.91 0 8.882 3.973 8.882 8.882v35.529c0 4.91-3.973 8.882-8.882 8.882h-76.263l-32.927 32.927c-2.582 2.582-6.451 3.284-9.68 1.926-3.314-1.371-5.482-4.615-5.482-8.206v-26.647h-17.765c-4.91 0-8.882-3.973-8.882-8.882v-35.529zm166.163 100.308 20.367 20.367v-14.087c0-4.909 3.973-8.882 8.882-8.882h17.765v-17.765h-124.353v17.765h71.059c2.359-.001 4.614.936 6.28 2.602z" fill="url(#SVGID_2_)"/></g></g></g></svg>