<svg id="Capa_1" enable-background="new 0 0 512 512" height="512" viewBox="0 0 512 512" width="512" xmlns="http://www.w3.org/2000/svg" xmlns:xlink="http://www.w3.org/1999/xlink"><linearGradient id="SVGID_1_" gradientUnits="userSpaceOnUse" x1="256" x2="256" y1="512" y2="0"><stop offset="0" stop-color="#ffbef9"/><stop offset="1" stop-color="#fff1ff"/></linearGradient><linearGradient id="SVGID_2_" gradientUnits="userSpaceOnUse" x1="256" x2="256" y1="407" y2="105"><stop offset="0" stop-color="#ff81ff"/><stop offset="1" stop-color="#a93aff"/></linearGradient><g><g><circle cx="256" cy="256" fill="url(#SVGID_1_)" r="256"/></g><g><g><path d="m398.118 318.176h-71.059c-3.365 0-6.436 1.9-7.946 4.91l-15.301 30.62h-95.624l-15.301-30.62c-1.509-3.01-4.58-4.91-7.946-4.91h-71.059c-4.91 0-8.882 3.973-8.882 8.882v71.059c0 4.91 3.973 8.882 8.882 8.882h284.235c4.91 0 8.882-3.973 8.882-8.882v-71.059c.001-4.909-3.972-8.882-8.881-8.882zm0-106.588h-71.059c-3.365 0-6.436 1.899-7.946 4.91l-15.301 30.62h-95.624l-15.301-30.62c-1.509-3.01-4.58-4.91-7.946-4.91h-71.059c-4.91 0-8.882 3.973-8.882 8.882v71.059c0 4.91 3.973 8.882 8.882 8.882h284.235c4.91 0 8.882-3.973 8.882-8.882v-71.059c.001-4.909-3.972-8.882-8.881-8.882zm0-106.588h-71.059c-3.365 0-6.436 1.899-7.946 4.91l-15.301 30.62h-95.624l-15.301-30.62c-1.509-3.01-4.58-4.91-7.946-4.91h-71.059c-4.91 0-8.882 3.973-8.882 8.882v71.059c0 4.909 3.973 8.882 8.882 8.882h284.235c4.91 0 8.882-3.973 8.882-8.882v-71.059c.001-4.909-3.972-8.882-8.881-8.882z" fill="url(#SVGID_2_)"/></g></g></g></svg>