<svg id="Capa_1" enable-background="new 0 0 512 512" height="512" viewBox="0 0 512 512" width="512" xmlns="http://www.w3.org/2000/svg" xmlns:xlink="http://www.w3.org/1999/xlink"><linearGradient id="SVGID_1_" gradientUnits="userSpaceOnUse" x1="256" x2="256" y1="512" y2="0"><stop offset="0" stop-color="#addcff"/><stop offset=".5028" stop-color="#eaf6ff"/><stop offset="1" stop-color="#eaf6ff"/></linearGradient><linearGradient id="SVGID_2_" gradientUnits="userSpaceOnUse" x1="256" x2="256" y1="389" y2="123"><stop offset="0" stop-color="#00c0ff"/><stop offset="1" stop-color="#5558ff"/></linearGradient><g><g><circle cx="256" cy="256" fill="url(#SVGID_1_)" r="256"/></g><g><g><path d="m398.118 335.8h-284.236c-4.91 0-8.882 3.966-8.882 8.867 0 24.443 19.916 44.333 44.412 44.333h213.177c24.495 0 44.411-19.89 44.411-44.333 0-4.901-3.973-8.867-8.882-8.867zm-44.412-203.933c0-4.901-3.973-8.867-8.882-8.867h-177.647c-4.91 0-8.882 3.966-8.882 8.867v26.6h195.412v-26.6zm-186.529 150.733h177.647c4.91 0 8.882-3.966 8.882-8.867v-97.533h-195.412v97.533c0 4.901 3.973 8.867 8.883 8.867zm71.058-88.667h71.059c4.909 0 8.882 3.966 8.882 8.867s-3.973 8.867-8.882 8.867h-71.059c-4.91 0-8.882-3.966-8.882-8.867s3.973-8.867 8.882-8.867zm0 35.467h53.294c4.91 0 8.882 3.966 8.882 8.867s-3.973 8.867-8.882 8.867h-53.294c-4.91 0-8.882-3.966-8.882-8.867s3.973-8.867 8.882-8.867zm-35.529-35.467c4.905 0 8.883 3.969 8.883 8.867 0 4.897-3.977 8.867-8.883 8.867-4.905 0-8.882-3.97-8.882-8.867-.001-4.898 3.977-8.867 8.882-8.867zm0 35.467c4.905 0 8.883 3.969 8.883 8.867 0 4.896-3.977 8.867-8.883 8.867-4.905 0-8.882-3.97-8.882-8.867-.001-4.898 3.977-8.867 8.882-8.867zm186.529-44.334c0-4.901-3.973-8.866-8.882-8.866h-8.882v97.533c0 14.668-11.953 26.6-26.647 26.6h-177.647c-14.694 0-26.647-11.932-26.647-26.6v-97.533h-8.882c-4.909 0-8.882 3.965-8.882 8.866v133h266.471v-133z" fill="url(#SVGID_2_)"/></g></g></g></svg>