<svg id="Capa_1" enable-background="new 0 0 512 512" height="512" viewBox="0 0 512 512" width="512" xmlns="http://www.w3.org/2000/svg" xmlns:xlink="http://www.w3.org/1999/xlink"><linearGradient id="SVGID_1_" gradientUnits="userSpaceOnUse" x1="256" x2="256" y1="512" y2="0"><stop offset="0" stop-color="#ffbef9"/><stop offset="1" stop-color="#fff1ff"/></linearGradient><linearGradient id="SVGID_2_" gradientUnits="userSpaceOnUse" x1="256" x2="256" y1="407" y2="105"><stop offset="0" stop-color="#ff81ff"/><stop offset="1" stop-color="#a93aff"/></linearGradient><g><g><circle cx="256" cy="256" fill="url(#SVGID_1_)" r="256"/></g><g><g><path d="m353.706 113.882c0-4.91-3.973-8.882-8.882-8.882h-177.648c-4.91 0-8.882 3.973-8.882 8.882v26.647h195.412zm-186.53 151h177.647c4.91 0 8.882-3.973 8.882-8.882v-97.706h-195.411v97.706c0 4.91 3.973 8.882 8.882 8.882zm71.059-88.823h71.059c4.91 0 8.882 3.973 8.882 8.883 0 4.909-3.973 8.882-8.882 8.882h-71.059c-4.91 0-8.882-3.973-8.882-8.882 0-4.91 3.973-8.883 8.882-8.883zm0 35.529h53.294c4.91 0 8.882 3.973 8.882 8.882s-3.973 8.882-8.882 8.882h-53.294c-4.91 0-8.882-3.973-8.882-8.882s3.973-8.882 8.882-8.882zm-35.529-35.529c4.905 0 8.882 3.976 8.882 8.883 0 4.905-3.977 8.882-8.882 8.882s-8.882-3.977-8.882-8.882c0-4.907 3.977-8.883 8.882-8.883zm0 35.529c4.905 0 8.882 3.976 8.882 8.882 0 4.905-3.977 8.882-8.882 8.882s-8.882-3.977-8.882-8.882c0-4.906 3.977-8.882 8.882-8.882zm106.588 177.647c-4.892 0-8.882-3.981-8.882-8.882v-8.882h-88.823v8.882c0 4.901-3.99 8.882-8.882 8.882-4.91 0-8.882 3.973-8.882 8.882s3.973 8.882 8.882 8.882h106.588c4.91 0 8.882-3.973 8.882-8.882s-3.973-8.882-8.883-8.882zm88.824-213.176h-26.647v79.941c0 14.694-11.953 26.647-26.647 26.647h-177.648c-14.694 0-26.647-11.953-26.647-26.647v-79.941h-26.647c-4.91 0-8.882 3.973-8.882 8.883v159.882c0 4.91 3.973 8.883 8.882 8.883h284.235c4.91 0 8.882-3.973 8.882-8.883v-159.883c.001-4.909-3.972-8.882-8.881-8.882z" fill="url(#SVGID_2_)"/></g></g></g></svg>