<svg id="Capa_1" enable-background="new 0 0 512 512" height="512" viewBox="0 0 512 512" width="512" xmlns="http://www.w3.org/2000/svg" xmlns:xlink="http://www.w3.org/1999/xlink"><linearGradient id="SVGID_1_" gradientUnits="userSpaceOnUse" x1="256" x2="256" y1="512" y2="0"><stop offset="0" stop-color="#c3ffe8"/><stop offset=".9973" stop-color="#f0fff4"/></linearGradient><linearGradient id="SVGID_2_" gradientUnits="userSpaceOnUse" x1="256" x2="256" y1="407" y2="105"><stop offset="0" stop-color="#9cffac"/><stop offset="1" stop-color="#00b59c"/></linearGradient><g><g><circle cx="256" cy="256" fill="url(#SVGID_1_)" r="256"/></g><g><g><path d="m362.4 211.588c-27.862 0-209.09 0-212.8 0-4.901 0-8.867 3.973-8.867 8.882s3.966 8.882 8.867 8.882h9.717l16.935 169.649c.45 4.537 4.26 7.998 8.815 7.998h141.867c4.555 0 8.364-3.461 8.815-7.998l16.935-169.649h9.717c4.901 0 8.867-3.973 8.867-8.882-.001-4.909-3.967-8.882-8.868-8.882zm-133 133.235c0 4.91-3.966 8.883-8.867 8.883s-8.867-3.973-8.867-8.883v-71.059c0-4.91 3.966-8.882 8.867-8.882s8.867 3.973 8.867 8.882zm35.467 0c0 4.91-3.966 8.883-8.867 8.883s-8.867-3.973-8.867-8.883v-71.059c0-4.91 3.966-8.882 8.867-8.882s8.867 3.973 8.867 8.882zm35.466 0c0 4.91-3.966 8.883-8.867 8.883s-8.867-3.973-8.867-8.883v-71.059c0-4.91 3.966-8.882 8.867-8.882s8.867 3.973 8.867 8.882zm-97.533-151h106.4c4.901 0 8.867-3.973 8.867-8.882v-66.306c-12.236 8.142-54.015 36.173-57.559 38.291-1.385.834-2.908 1.367-4.508 1.367s-3.123-.533-4.508-1.367c-3.562-2.129-43.408-28.876-57.559-38.293v66.308c0 4.91 3.966 8.882 8.867 8.882zm103.716-88.823h-101.029l50.513 33.737zm79.886 55.896c-3.464-3.47-9.074-3.47-12.538 0l-2.598 2.602v-49.616c0-4.91-3.966-8.882-8.867-8.882s-8.867 3.973-8.867 8.882v49.616l-2.598-2.602c-3.464-3.47-9.074-3.47-12.538 0s-3.464 9.09 0 12.56l17.722 17.754c3.518 3.534 9.165 3.41 12.56 0l17.723-17.754c3.465-3.469 3.465-9.09.001-12.56zm-230.522 30.314 17.723-17.754c3.464-3.47 3.464-9.09 0-12.56s-9.074-3.47-12.538 0l-2.598 2.602v-49.616c0-4.91-3.966-8.882-8.867-8.882s-8.867 3.973-8.867 8.882v49.616l-2.598-2.602c-3.464-3.47-9.074-3.47-12.538 0s-3.464 9.09 0 12.56l17.723 17.754c3.518 3.534 9.165 3.411 12.56 0z" fill="url(#SVGID_2_)"/></g></g></g></svg>