<svg id="Capa_1" enable-background="new 0 0 512 512" height="512" viewBox="0 0 512 512" width="512" xmlns="http://www.w3.org/2000/svg" xmlns:xlink="http://www.w3.org/1999/xlink"><linearGradient id="SVGID_1_" gradientUnits="userSpaceOnUse" x1="256" x2="256" y1="512" y2="0"><stop offset="0" stop-color="#ffe59a"/><stop offset="1" stop-color="#ffffd5"/></linearGradient><linearGradient id="SVGID_2_" gradientUnits="userSpaceOnUse" x1="256" x2="256" y1="410.152" y2="110.017"><stop offset="0" stop-color="#ffde00"/><stop offset="1" stop-color="#fd5900"/></linearGradient><g><g><circle cx="256" cy="256" fill="url(#SVGID_1_)" r="256"/></g><g><g><path d="m398.118 220.471h-284.236c-4.91 0-8.882 3.973-8.882 8.882v53.294c0 4.91 3.973 8.882 8.882 8.882h284.235c4.91 0 8.882-3.973 8.882-8.882v-53.294c.001-4.91-3.972-8.882-8.881-8.882zm-82.705 88.823h-118.826c14.801 16.532 36.042 26.647 59.413 26.647s44.611-10.115 59.413-26.647zm22.255 0c-17.682 27.213-47.89 44.412-81.668 44.412s-63.985-17.199-81.667-44.412h-58.286c-.445 3.597 1.225 7.173 4.532 8.917l23.611 12.491 2.411 26.647c.382 4.276 3.782 7.659 8.05 8.049l26.647 2.403 12.491 23.637c2.012 3.765 6.384 5.578 10.478 4.337l25.433-7.833 20.645 17.027c3.291 2.702 8.008 2.712 11.311 0l20.645-17.027 25.433 7.833c4.094 1.232 8.483-.572 10.478-4.337l12.491-23.637 26.647-2.403c4.268-.39 7.668-3.773 8.05-8.049l2.411-26.647 23.611-12.491c3.307-1.744 4.977-5.32 4.532-8.917zm-163.335-106.588c17.682-27.213 47.889-44.412 81.667-44.412s63.986 17.199 81.668 44.412h58.285c.445-3.597-1.225-7.173-4.532-8.917l-23.611-12.491-2.411-26.647c-.382-4.276-3.782-7.659-8.05-8.049l-26.647-2.403-12.491-23.637c-1.995-3.756-6.384-5.552-10.478-4.337l-25.433 7.833-20.645-17.027c-3.296-2.707-8.015-2.707-11.311 0l-20.644 17.026-25.433-7.833c-4.094-1.223-8.466.572-10.478 4.337l-12.491 23.637-26.647 2.403c-4.268.39-7.668 3.773-8.05 8.049l-2.411 26.647-23.611 12.491c-3.307 1.744-4.977 5.32-4.532 8.917h58.286zm22.254 0h118.825c-14.801-16.532-36.041-26.647-59.413-26.647s-44.61 10.115-59.412 26.647z" fill="url(#SVGID_2_)"/></g></g></g></svg>