<svg id="Capa_1" enable-background="new 0 0 512 512" height="512" viewBox="0 0 512 512" width="512" xmlns="http://www.w3.org/2000/svg" xmlns:xlink="http://www.w3.org/1999/xlink"><linearGradient id="SVGID_1_" gradientUnits="userSpaceOnUse" x1="256" x2="256" y1="512" y2="0"><stop offset="0" stop-color="#ffc2cc"/><stop offset="1" stop-color="#fff2f4"/></linearGradient><linearGradient id="SVGID_2_" gradientUnits="userSpaceOnUse" x1="256" x2="256" y1="407" y2="105"><stop offset="0" stop-color="#ffa68d"/><stop offset="1" stop-color="#fd3a84"/></linearGradient><g><g><circle cx="256" cy="256" fill="url(#SVGID_1_)" r="256"/></g><g><g><path d="m220.461 158.294h71.077c4.911 0 8.885-3.973 8.885-8.882v-17.765c0-14.694-11.956-26.647-26.654-26.647h-35.539c-14.698 0-26.654 11.953-26.654 26.647v17.765c.001 4.909 3.975 8.882 8.885 8.882zm142.154-35.529h-45.321c.585 2.871.898 5.841.898 8.882v17.765c0 14.694-11.956 26.647-26.654 26.647h-71.077c-14.698 0-26.654-11.953-26.654-26.647v-17.765c0-3.042.313-6.011.898-8.882h-45.321c-4.911 0-8.885 3.973-8.885 8.882v266.471c0 4.91 3.974 8.882 8.885 8.882h213.23c4.911 0 8.885-3.973 8.885-8.882v-266.471c.001-4.91-3.973-8.882-8.884-8.882zm-100.333 228.339-35.539 35.529c-1.735 1.735-4.008 2.603-6.282 2.603-2.273 0-4.546-.868-6.282-2.603l-17.769-17.765c-3.471-3.47-3.471-9.09 0-12.56 3.47-3.47 9.093-3.47 12.563 0l11.487 11.485 29.257-29.25c3.471-3.47 9.093-3.47 12.563 0 3.472 3.47 3.472 9.091.002 12.561zm0-71.059-35.539 35.529c-1.735 1.735-4.008 2.602-6.282 2.602-2.273 0-4.546-.867-6.282-2.602l-17.769-17.765c-3.471-3.47-3.471-9.091 0-12.561 3.47-3.469 9.093-3.469 12.563 0l11.487 11.485 29.257-29.25c3.471-3.47 9.093-3.47 12.563 0 3.472 3.471 3.472 9.092.002 12.562zm0-71.059-35.539 35.53c-1.735 1.734-4.008 2.602-6.282 2.602-2.273 0-4.546-.868-6.282-2.602l-17.769-17.765c-3.471-3.469-3.471-9.09 0-12.56 3.47-3.47 9.093-3.47 12.563 0l11.487 11.484 29.257-29.249c3.471-3.47 9.093-3.47 12.563 0 3.472 3.47 3.472 9.09.002 12.56zm47.026 162.485h-26.654c-4.911 0-8.885-3.973-8.885-8.882s3.974-8.882 8.885-8.882h26.654c4.911 0 8.885 3.973 8.885 8.882s-3.974 8.882-8.885 8.882zm0-71.059h-26.654c-4.911 0-8.885-3.973-8.885-8.882s3.974-8.882 8.885-8.882h26.654c4.911 0 8.885 3.973 8.885 8.882s-3.974 8.882-8.885 8.882zm0-71.059h-26.654c-4.911 0-8.885-3.973-8.885-8.882 0-4.91 3.974-8.882 8.885-8.882h26.654c4.911 0 8.885 3.973 8.885 8.882-.001 4.909-3.974 8.882-8.885 8.882z" fill="url(#SVGID_2_)"/></g></g></g></svg>