<svg id="Capa_1" enable-background="new 0 0 512 512" height="512" viewBox="0 0 512 512" width="512" xmlns="http://www.w3.org/2000/svg" xmlns:xlink="http://www.w3.org/1999/xlink"><linearGradient id="SVGID_1_" gradientUnits="userSpaceOnUse" x1="256" x2="256" y1="512" y2="0"><stop offset="0" stop-color="#c3ffe8"/><stop offset=".9973" stop-color="#f0fff4"/></linearGradient><linearGradient id="SVGID_2_" gradientUnits="userSpaceOnUse" x1="256" x2="256" y1="407" y2="105"><stop offset="0" stop-color="#9cffac"/><stop offset="1" stop-color="#00b59c"/></linearGradient><g><g><circle cx="256" cy="256" fill="url(#SVGID_1_)" r="256"/></g><g><g><path d="m318.192 110.205v48.089h48.102zm-62.192 243.501c4.894 0 8.885-3.981 8.885-8.874-.052-3.409-3.913-15.327-8.885-28.781-4.972 13.454-8.841 25.38-8.885 28.781 0 4.893 3.983 8.874 8.885 8.874zm53.308-177.647c-4.911 0-8.885-3.973-8.885-8.882v-62.177h-35.538v35.529h8.885c4.911 0 8.885 3.973 8.885 8.882s-3.974 8.882-8.885 8.882h-8.885v17.765h8.885c4.911 0 8.885 3.973 8.885 8.883 0 4.909-3.974 8.882-8.885 8.882h-8.885v17.765h8.885c4.911 0 8.885 3.973 8.885 8.882s-3.974 8.882-8.885 8.882h-8.885v17.765h8.885c4.911 0 8.885 3.973 8.885 8.882s-3.974 8.882-8.885 8.882h-8.885v24.922c4.869 11.996 17.769 44.733 17.769 55.019 0 14.694-11.956 26.647-26.654 26.647s-26.654-11.953-26.654-26.647c0-10.286 12.9-43.023 17.769-55.019v-24.922h-8.885c-4.911 0-8.885-3.973-8.885-8.882s3.974-8.882 8.885-8.882h8.885v-17.765h-8.885c-4.911 0-8.885-3.973-8.885-8.882 0-4.91 3.974-8.882 8.885-8.882h8.885v-17.765h-8.885c-4.911 0-8.885-3.973-8.885-8.882 0-4.91 3.974-8.883 8.885-8.883h8.885v-17.765h-8.885c-4.911 0-8.885-3.973-8.885-8.882s3.974-8.882 8.885-8.882h8.885v-35.529h-97.73c-4.911 0-8.885 3.973-8.885 8.882v284.235c0 4.91 3.974 8.882 8.885 8.882h213.23c4.911 0 8.885-3.973 8.885-8.882v-222.058z" fill="url(#SVGID_2_)"/></g></g></g></svg>